<svg width="39" height="24" viewBox="0 0 39 24" fill="none" xmlns="http://www.w3.org/2000/svg">
<path d="M36.7648 11.3521C36.4434 11.0082 36.242 10.7902 36.0361 10.5721C33.2458 7.62749 30.4532 4.6806 27.6628 1.73595C27.4818 1.54488 27.2962 1.35831 27.1265 1.15826C26.8549 0.841316 26.8368 0.488407 27.1333 0.198438C27.4343 -0.0960266 27.785 -0.0443267 28.0928 0.232156C28.1901 0.319821 28.2761 0.418725 28.3666 0.515381C31.7408 4.07368 35.1128 7.63199 38.487 11.1903C39.1727 11.9141 39.1704 12.1007 38.487 12.8222C35.1286 16.3693 31.7703 19.9141 28.4096 23.4612C27.871 24.0299 27.4592 24.1445 27.1242 23.8208C26.7802 23.4904 26.8685 23.1262 27.432 22.5283C30.3898 19.4038 33.3476 16.2816 36.3054 13.1571C36.4163 13.0402 36.5204 12.9121 36.7173 12.6828C36.3665 12.6828 36.1334 12.6828 35.898 12.6828C20.3441 12.6828 4.79022 12.6828 -10.766 12.6806C-11.0285 12.6806 -11.3362 12.7256 -11.5399 12.6064C-11.7526 12.4805 -12.0152 12.1748 -11.9993 11.9635C-11.9835 11.75 -11.6802 11.5072 -11.4471 11.3814C-11.2706 11.2869 -11.0036 11.3521 -10.7773 11.3521C4.79701 11.3521 20.369 11.3521 35.9433 11.3521C36.1606 11.3521 36.3823 11.3521 36.7648 11.3521Z" fill="black"/>
</svg>
