<svg width="20" height="20" viewBox="0 0 20 20" fill="none" xmlns="http://www.w3.org/2000/svg">
<path d="M16.7731 0.877501H14.9046V0.702001C14.9046 0.515819 14.8272 0.337262 14.6895 0.205611C14.5518 0.0739607 14.3651 0 14.1703 0C13.9756 0 13.7889 0.0739607 13.6512 0.205611C13.5135 0.337262 13.4361 0.515819 13.4361 0.702001V0.877501H6.56388V0.702001C6.56388 0.515819 6.48652 0.337262 6.34883 0.205611C6.21114 0.0739607 6.02439 0 5.82966 0C5.63494 0 5.44819 0.0739607 5.31049 0.205611C5.1728 0.337262 5.09545 0.515819 5.09545 0.702001V0.877501H3.22687C2.37135 0.87843 1.55115 1.20379 0.946202 1.78219C0.341256 2.36059 0.000971632 3.14481 0 3.96279V16.9147C0.000971632 17.7327 0.341256 18.5169 0.946202 19.0953C1.55115 19.6737 2.37135 19.9991 3.22687 20H16.7731C17.6286 19.9991 18.4489 19.6737 19.0538 19.0953C19.6587 18.5169 19.999 17.7327 20 16.9147V3.96981C20.0005 3.56419 19.9174 3.16244 19.7555 2.78751C19.5936 2.41259 19.356 2.07182 19.0564 1.78467C18.7567 1.49752 18.4009 1.26962 18.0091 1.11396C17.6174 0.958312 17.1974 0.877962 16.7731 0.877501ZM3.22687 2.2815H5.09545V2.46753C5.09545 2.65371 5.1728 2.83227 5.31049 2.96392C5.44819 3.09557 5.63494 3.16953 5.82966 3.16953C6.02439 3.16953 6.21114 3.09557 6.34883 2.96392C6.48652 2.83227 6.56388 2.65371 6.56388 2.46753V2.2815H13.4361V2.46753C13.4361 2.65371 13.5135 2.83227 13.6512 2.96392C13.7889 3.09557 13.9756 3.16953 14.1703 3.16953C14.3651 3.16953 14.5518 3.09557 14.6895 2.96392C14.8272 2.83227 14.9046 2.65371 14.9046 2.46753V2.2815H16.7731C17.2392 2.28243 17.6859 2.45986 18.0155 2.77497C18.345 3.09007 18.5306 3.51717 18.5316 3.96279V5.80555H1.46843V3.96981C1.46795 3.74856 1.51305 3.52939 1.60116 3.3248C1.68926 3.12021 1.81866 2.93422 1.98194 2.77745C2.14523 2.62068 2.33921 2.49619 2.55282 2.41109C2.76642 2.326 2.99547 2.28196 3.22687 2.2815ZM16.7731 18.603H3.22687C2.7608 18.6021 2.3141 18.4247 1.98454 18.1096C1.65497 17.7945 1.4694 17.3673 1.46843 16.9217V7.21657H18.5316V16.9217C18.5306 17.3673 18.345 17.7945 18.0155 18.1096C17.6859 18.4247 17.2392 18.6021 16.7731 18.603Z" fill="black"/>
</svg>
