<svg width="285" height="135" viewBox="0 0 285 135" fill="none" xmlns="http://www.w3.org/2000/svg">
<path d="M229.3 0.300049H216.2V65.1001H229.3V0.300049Z" fill="#2DBDB6"/>
<path d="M260.3 57.3C252.8 57.3 248.8 51.9 248.8 42.5C248.8 33 252.9 27.6 260.2 27.6C269.2 27.6 271.9 35 271.9 42.5C271.9 51.6 268 57.3 260.3 57.3ZM260.3 17.9C245.4 17.9 235.7 27.6 235.7 42.5C235.7 57.2 245.3 67 260.3 67C275 67 285 57.6 285 42.5C285 27.7 275.4 17.9 260.3 17.9Z" fill="#AECB5B"/>
<path d="M90.5 47.8C90.5 54.6 86.9 58.3 79.9 58.3C74.2 58.3 71.9 56.1 71.9 52.4C71.9 47.4 75.9 45.9 82.6 45.1C87 44.6 89.3 43.9 90.5 42.9V47.8ZM103.6 31.1C103.6 22.5 96.7 17.9 82.8 17.9C69.4 17.9 60.9 23.3 60.3 33.5H73.4C73.9 28.6 76.7 26.5 82.2 26.5C86.6 26.5 90.6001 27.4 90.6001 32.7C90.6001 36.8 86.9 37.6 78.4 38.5C70.5 39.3 66 40.7 63 43.2C60.3 45.4 58.8 48.6 58.8 53.1C58.8 62.1 65.3 67 75 67C81.7 67 87.4 65 91 61.2C91.1 62.5 91.4 63.9 91.8 65.2H105C104 63.1 103.6 59.2 103.6 55.8V31.1Z" fill="#4D207A"/>
<path d="M175.4 37.4C176 31.3 179.8 27.5 186.2 27.5C192.3 27.5 195.4 30.4 196.7 37.4H175.4ZM186.6 17.9C172.2 17.9 162.3 28.4 162.3 42.5C162.3 56.8 171.5 67 186.6 67C198 67 205.4 61.9 208.9 51.3H197.4C196.4 54.5 192 57.3 187 57.3C179.5 57.3 175.7 53.5 175.4 45.5H209.8C209.8 45.5 209.9 43.9 209.9 43.2C209.9 29.4 201.7 17.9 186.6 17.9Z" fill="#009DCA"/>
<path d="M138.7 17.9C132.8 17.9 127.6 20.5 124.4 25V19.7H111.3V65.1H124.4V58.3V41.1C124.4 32.9 126.4 27.8 134.5 27.8C140.6 27.8 142.9 31.4 142.9 39V65.1H156V36.5C156 23.5 150.7 17.9 138.7 17.9Z" fill="#005BAA"/>
<path d="M170.4 121.4C195.6 121.3 216 100.8 216 75.6H229.3C229.3 108.2 202.9 134.6 170.4 134.7V121.4Z" fill="#FAB417"/>
<path d="M33.7 27.5C18.9 23.9 16.2 23.1 16.2 18.4C16.2 13.4 20.9 11.2 26.3 11.2C34.3 11.2 38.2 14 39.1 19.7H53.2C52.6 6.10004 40.6 0.400024 26.9 0.400024C14.8 0.400024 2.3 6.70003 2.3 19.5C2.3 27.6 6.8 33 16.8 36.2C21 37.5 25.3 38.4 30.2 39.7C38.3 41.7 41.5 44.1 41.5 48.2C41.5 54 35.2 56.1 28.6 56.1C22.1 56.1 14.8 53.6 14.2 45.5H0C0.4 60.7 14.3 66.9 28 66.9C45.5 66.9 55.4 58.5 55.4 46.5C55.4 33.1 43.5 29.9 33.7 27.5Z" fill="#A3238E"/>
<path d="M111.3 75.5H124.6C124.6 100.8 145.1 121.3 170.4 121.3V134.6C137.7 134.7 111.3 108.2 111.3 75.5Z" fill="#FAB417"/>
</svg>
