<?xml version="1.0" encoding="UTF-8"?>
<svg xmlns="http://www.w3.org/2000/svg" viewBox="0 0 1200 1200">
  <defs>
    <style>
      .cls-1 {
        fill: #000;
      }

      .cls-1, .cls-2 {
        stroke-width: 0px;
      }

      .cls-2 {
        fill: #a3238e;
      }

      .cls-3 {
        opacity: .5;
      }
    </style>
  </defs>
  <g id="back">
    <rect class="cls-1" width="1200" height="1200"/>
  </g>
  <g id="Layer_1" data-name="Layer 1">
    <g>
      <g class="cls-3">
        <path class="cls-2" d="M72.49,418.25c0,5.7,4.63,10.33,10.33,10.33s10.33-4.62,10.33-10.33-4.63-10.33-10.33-10.33-10.33,4.62-10.33,10.33Z"/>
        <path class="cls-2" d="M72.49,444.21c0,5.7,4.63,10.33,10.33,10.33s10.33-4.62,10.33-10.33-4.63-10.33-10.33-10.33-10.33,4.62-10.33,10.33Z"/>
        <path class="cls-2" d="M72.49,470.18c0,5.7,4.63,10.32,10.33,10.32s10.33-4.62,10.33-10.32-4.63-10.32-10.33-10.32-10.33,4.62-10.33,10.32Z"/>
        <path class="cls-2" d="M50,483.16c0,5.7,4.62,10.32,10.33,10.32s10.33-4.62,10.33-10.32-4.62-10.32-10.33-10.32-10.33,4.62-10.33,10.32Z"/>
        <circle class="cls-2" cx="60.33" cy="431.23" r="10.33"/>
        <path class="cls-2" d="M117.46,444.21c0,5.7,4.63,10.33,10.33,10.33s10.33-4.62,10.33-10.33-4.63-10.33-10.33-10.33-10.33,4.62-10.33,10.33Z"/>
        <path class="cls-2" d="M94.97,405.27c0,5.7,4.63,10.32,10.33,10.32s10.33-4.62,10.33-10.32-4.63-10.32-10.33-10.32-10.33,4.62-10.33,10.32Z"/>
        <path class="cls-2" d="M139.94,431.23c0,5.7,4.63,10.33,10.33,10.33s10.33-4.62,10.33-10.33-4.63-10.33-10.33-10.33-10.33,4.62-10.33,10.33Z"/>
        <path class="cls-2" d="M139.94,457.2c0,5.7,4.63,10.32,10.33,10.32s10.33-4.62,10.33-10.32-4.63-10.32-10.33-10.32-10.33,4.62-10.33,10.32Z"/>
        <path class="cls-2" d="M94.97,457.2c0,5.7,4.63,10.32,10.33,10.32s10.33-4.62,10.33-10.32-4.63-10.32-10.33-10.32-10.33,4.62-10.33,10.32Z"/>
        <path class="cls-2" d="M94.97,431.23c0,5.7,4.63,10.33,10.33,10.33s10.33-4.62,10.33-10.33-4.63-10.33-10.33-10.33-10.33,4.62-10.33,10.33Z"/>
        <path class="cls-2" d="M117.46,418.25c0,5.7,4.63,10.33,10.33,10.33s10.33-4.62,10.33-10.33-4.63-10.33-10.33-10.33-10.33,4.62-10.33,10.33Z"/>
        <path class="cls-2" d="M769.56,483.16c0,5.7,4.63,10.32,10.33,10.32s10.33-4.62,10.33-10.32-4.63-10.32-10.33-10.32-10.33,4.62-10.33,10.32Z"/>
        <path class="cls-2" d="M657.13,496.14c0,5.7,4.63,10.32,10.33,10.32s10.33-4.62,10.33-10.32-4.63-10.32-10.33-10.32-10.33,4.62-10.33,10.32Z"/>
        <path class="cls-2" d="M657.13,522.11c0,5.7,4.63,10.32,10.33,10.32s10.33-4.62,10.33-10.32-4.63-10.32-10.33-10.32-10.33,4.62-10.33,10.32Z"/>
        <path class="cls-2" d="M657.13,444.21c0,5.7,4.63,10.33,10.33,10.33s10.33-4.62,10.33-10.33-4.63-10.33-10.33-10.33-10.33,4.62-10.33,10.33Z"/>
        <path class="cls-2" d="M657.13,470.18c0,5.7,4.63,10.32,10.33,10.32s10.33-4.62,10.33-10.32-4.63-10.32-10.33-10.32-10.33,4.62-10.33,10.32Z"/>
        <path class="cls-2" d="M657.13,418.25c0,5.7,4.63,10.33,10.33,10.33s10.33-4.62,10.33-10.33-4.63-10.33-10.33-10.33-10.33,4.62-10.33,10.33Z"/>
        <path class="cls-2" d="M634.65,483.16c0,5.7,4.62,10.32,10.32,10.32s10.32-4.62,10.32-10.32-4.62-10.32-10.32-10.32-10.32,4.62-10.32,10.32Z"/>
        <path class="cls-2" d="M769.56,405.27c0,5.7,4.63,10.32,10.33,10.32s10.33-4.62,10.33-10.32-4.63-10.32-10.33-10.32-10.33,4.62-10.33,10.32Z"/>
        <path class="cls-2" d="M634.65,405.27c0,5.7,4.62,10.32,10.32,10.32s10.32-4.62,10.32-10.32-4.62-10.32-10.32-10.32-10.32,4.62-10.32,10.32Z"/>
        <path class="cls-2" d="M634.65,431.23c0,5.7,4.62,10.33,10.32,10.33s10.32-4.62,10.32-10.33-4.62-10.33-10.32-10.33-10.32,4.62-10.32,10.33Z"/>
        <path class="cls-2" d="M634.65,457.2c0,5.7,4.62,10.32,10.32,10.32s10.32-4.62,10.32-10.32-4.62-10.32-10.32-10.32-10.32,4.62-10.32,10.32Z"/>
        <path class="cls-2" d="M634.65,509.13c0,5.7,4.62,10.32,10.32,10.32s10.32-4.62,10.32-10.32-4.62-10.32-10.32-10.32-10.32,4.62-10.32,10.32Z"/>
        <path class="cls-2" d="M634.65,535.09c0,5.7,4.62,10.33,10.32,10.33s10.32-4.62,10.32-10.33-4.62-10.33-10.32-10.33-10.32,4.62-10.32,10.33Z"/>
        <path class="cls-2" d="M747.08,366.32c0,5.7,4.63,10.32,10.33,10.32s10.33-4.62,10.33-10.32-4.63-10.32-10.33-10.32-10.33,4.62-10.33,10.32Z"/>
        <path class="cls-2" d="M724.6,561.05c0,5.7,4.62,10.32,10.32,10.32s10.32-4.62,10.32-10.32-4.62-10.32-10.32-10.32-10.32,4.62-10.32,10.32Z"/>
        <path class="cls-2" d="M724.6,535.09c0,5.7,4.62,10.33,10.32,10.33s10.32-4.62,10.32-10.33-4.62-10.33-10.32-10.33-10.32,4.62-10.32,10.33Z"/>
        <path class="cls-2" d="M724.6,509.13c0,5.7,4.62,10.32,10.32,10.32s10.32-4.62,10.32-10.32-4.62-10.32-10.32-10.32-10.32,4.62-10.32,10.32Z"/>
        <path class="cls-2" d="M724.6,483.16c0,5.7,4.62,10.32,10.32,10.32s10.32-4.62,10.32-10.32-4.62-10.32-10.32-10.32-10.32,4.62-10.32,10.32Z"/>
        <path class="cls-2" d="M724.6,457.2c0,5.7,4.62,10.32,10.32,10.32s10.32-4.62,10.32-10.32-4.62-10.32-10.32-10.32-10.32,4.62-10.32,10.32Z"/>
        <path class="cls-2" d="M724.6,431.23c0,5.7,4.62,10.33,10.32,10.33s10.32-4.62,10.32-10.33-4.62-10.33-10.32-10.33-10.32,4.62-10.32,10.33Z"/>
        <path class="cls-2" d="M724.6,379.3c0,5.7,4.62,10.32,10.32,10.32s10.32-4.62,10.32-10.32-4.62-10.32-10.32-10.32-10.32,4.62-10.32,10.32Z"/>
        <path class="cls-2" d="M747.08,574.04c0,5.7,4.63,10.32,10.33,10.32s10.33-4.62,10.33-10.32-4.63-10.32-10.33-10.32-10.33,4.62-10.33,10.32Z"/>
        <path class="cls-2" d="M747.08,548.07c0,5.7,4.63,10.33,10.33,10.33s10.33-4.62,10.33-10.33-4.63-10.33-10.33-10.33-10.33,4.62-10.33,10.33Z"/>
        <path class="cls-2" d="M747.08,522.11c0,5.7,4.63,10.32,10.33,10.32s10.33-4.62,10.33-10.32-4.63-10.32-10.33-10.32-10.33,4.62-10.33,10.32Z"/>
        <path class="cls-2" d="M747.08,496.14c0,5.7,4.63,10.32,10.33,10.32s10.33-4.62,10.33-10.32-4.63-10.32-10.33-10.32-10.33,4.62-10.33,10.32Z"/>
        <path class="cls-2" d="M747.08,470.18c0,5.7,4.63,10.32,10.33,10.32s10.33-4.62,10.33-10.32-4.63-10.32-10.33-10.32-10.33,4.62-10.33,10.32Z"/>
        <path class="cls-2" d="M747.08,444.21c0,5.7,4.63,10.33,10.33,10.33s10.33-4.62,10.33-10.33-4.63-10.33-10.33-10.33-10.33,4.62-10.33,10.33Z"/>
        <path class="cls-2" d="M747.08,418.25c0,5.7,4.63,10.33,10.33,10.33s10.33-4.62,10.33-10.33-4.63-10.33-10.33-10.33-10.33,4.62-10.33,10.33Z"/>
        <path class="cls-2" d="M679.61,483.16c0,5.7,4.63,10.32,10.33,10.32s10.33-4.62,10.33-10.32-4.63-10.32-10.33-10.32-10.33,4.62-10.33,10.32Z"/>
        <path class="cls-2" d="M679.61,509.13c0,5.7,4.63,10.32,10.33,10.32s10.33-4.62,10.33-10.32-4.63-10.32-10.33-10.32-10.33,4.62-10.33,10.32Z"/>
        <path class="cls-2" d="M679.61,535.09c0,5.7,4.63,10.33,10.33,10.33s10.33-4.62,10.33-10.33-4.63-10.33-10.33-10.33-10.33,4.62-10.33,10.33Z"/>
        <path class="cls-2" d="M679.61,457.2c0,5.7,4.63,10.32,10.33,10.32s10.33-4.62,10.33-10.32-4.63-10.32-10.33-10.32-10.33,4.62-10.33,10.32Z"/>
        <path class="cls-2" d="M679.61,431.23c0,5.7,4.63,10.33,10.33,10.33s10.33-4.62,10.33-10.33-4.63-10.33-10.33-10.33-10.33,4.62-10.33,10.33Z"/>
        <path class="cls-2" d="M702.11,496.14c0,5.7,4.62,10.32,10.32,10.32s10.32-4.62,10.32-10.32-4.62-10.32-10.32-10.32-10.32,4.62-10.32,10.32Z"/>
        <path class="cls-2" d="M702.11,522.11c0,5.7,4.62,10.32,10.32,10.32s10.32-4.62,10.32-10.32-4.62-10.32-10.32-10.32-10.32,4.62-10.32,10.32Z"/>
        <path class="cls-2" d="M702.11,470.18c0,5.7,4.62,10.32,10.32,10.32s10.32-4.62,10.32-10.32-4.62-10.32-10.32-10.32-10.32,4.62-10.32,10.32Z"/>
        <path class="cls-2" d="M702.11,444.21c0,5.7,4.62,10.33,10.32,10.33s10.32-4.62,10.32-10.33-4.62-10.33-10.32-10.33-10.32,4.62-10.32,10.33Z"/>
        <path class="cls-2" d="M702.11,418.25c0,5.7,4.62,10.33,10.32,10.33s10.32-4.62,10.32-10.33-4.62-10.33-10.32-10.33-10.32,4.62-10.32,10.33Z"/>
        <path class="cls-2" d="M544.71,483.16c0,5.7,4.62,10.32,10.32,10.32s10.32-4.62,10.32-10.32-4.62-10.32-10.32-10.32-10.32,4.62-10.32,10.32Z"/>
        <path class="cls-2" d="M544.71,509.13c0,5.7,4.62,10.32,10.32,10.32s10.32-4.62,10.32-10.32-4.62-10.32-10.32-10.32-10.32,4.62-10.32,10.32Z"/>
        <path class="cls-2" d="M544.71,561.05c0,5.7,4.62,10.32,10.32,10.32s10.32-4.62,10.32-10.32-4.62-10.32-10.32-10.32-10.32,4.62-10.32,10.32Z"/>
        <path class="cls-2" d="M499.72,431.23c0,5.7,4.63,10.33,10.33,10.33s10.33-4.62,10.33-10.33-4.63-10.33-10.33-10.33-10.33,4.62-10.33,10.33Z"/>
        <path class="cls-2" d="M499.72,327.37c0,5.7,4.63,10.33,10.33,10.33s10.33-4.62,10.33-10.33-4.63-10.33-10.33-10.33-10.33,4.62-10.33,10.33Z"/>
        <path class="cls-2" d="M589.67,457.2c0,5.7,4.62,10.32,10.33,10.32s10.33-4.62,10.33-10.32-4.62-10.32-10.33-10.32-10.33,4.62-10.33,10.32Z"/>
        <path class="cls-2" d="M589.67,561.05c0,5.7,4.62,10.32,10.33,10.32s10.33-4.62,10.33-10.32-4.62-10.32-10.33-10.32-10.33,4.62-10.33,10.32Z"/>
        <circle class="cls-2" cx="600" cy="535.09" r="10.33"/>
        <ellipse class="cls-2" cx="600" cy="509.13" rx="10.33" ry="10.32"/>
        <path class="cls-2" d="M612.16,496.14c0,5.7,4.62,10.32,10.32,10.32s10.32-4.62,10.32-10.32-4.62-10.32-10.32-10.32-10.32,4.62-10.32,10.32Z"/>
        <path class="cls-2" d="M612.16,418.25c0,5.7,4.62,10.33,10.32,10.33s10.32-4.62,10.32-10.33-4.62-10.33-10.32-10.33-10.32,4.62-10.32,10.33Z"/>
        <path class="cls-2" d="M612.16,548.07c0,5.7,4.62,10.33,10.32,10.33s10.32-4.62,10.32-10.33-4.62-10.33-10.32-10.33-10.32,4.62-10.32,10.33Z"/>
        <path class="cls-2" d="M612.16,340.36c0,5.7,4.62,10.33,10.32,10.33s10.32-4.62,10.32-10.33-4.62-10.33-10.32-10.33-10.32,4.62-10.32,10.33Z"/>
        <path class="cls-2" d="M612.16,522.11c0,5.7,4.62,10.32,10.32,10.32s10.32-4.62,10.32-10.32-4.62-10.32-10.32-10.32-10.32,4.62-10.32,10.32Z"/>
        <path class="cls-2" d="M567.19,522.11c0,5.7,4.62,10.32,10.33,10.32s10.33-4.62,10.33-10.32-4.62-10.32-10.33-10.32-10.33,4.62-10.33,10.32Z"/>
        <circle class="cls-2" cx="577.51" cy="548.07" r="10.33"/>
        <circle class="cls-2" cx="600" cy="431.23" r="10.33"/>
        <path class="cls-2" d="M904.49,509.13c0,5.7,4.62,10.32,10.32,10.32s10.32-4.62,10.32-10.32-4.62-10.32-10.32-10.32-10.32,4.62-10.32,10.32Z"/>
        <path class="cls-2" d="M837.02,625.96c0,5.7,4.63,10.32,10.33,10.32s10.33-4.62,10.33-10.32-4.63-10.32-10.33-10.32-10.33,4.62-10.33,10.32Z"/>
        <path class="cls-2" d="M859.5,431.23c0,5.7,4.63,10.33,10.33,10.33s10.33-4.62,10.33-10.33-4.63-10.33-10.33-10.33-10.33,4.62-10.33,10.33Z"/>
        <path class="cls-2" d="M859.5,457.2c0,5.7,4.63,10.32,10.33,10.32s10.33-4.62,10.33-10.32-4.63-10.32-10.33-10.32-10.33,4.62-10.33,10.32Z"/>
        <path class="cls-2" d="M859.5,405.27c0,5.7,4.63,10.32,10.33,10.32s10.33-4.62,10.33-10.32-4.63-10.32-10.33-10.32-10.33,4.62-10.33,10.32Z"/>
        <path class="cls-2" d="M859.5,379.3c0,5.7,4.63,10.32,10.33,10.32s10.33-4.62,10.33-10.32-4.63-10.32-10.33-10.32-10.33,4.62-10.33,10.32Z"/>
        <path class="cls-2" d="M837.02,496.14c0,5.7,4.63,10.32,10.33,10.32s10.33-4.62,10.33-10.32-4.63-10.32-10.33-10.32-10.33,4.62-10.33,10.32Z"/>
        <path class="cls-2" d="M837.02,392.28c0,5.7,4.63,10.32,10.33,10.32s10.33-4.62,10.33-10.32-4.63-10.32-10.33-10.32-10.33,4.62-10.33,10.32Z"/>
        <path class="cls-2" d="M837.02,600c0,5.7,4.63,10.32,10.33,10.32s10.33-4.62,10.33-10.32-4.63-10.32-10.33-10.32-10.33,4.62-10.33,10.32Z"/>
        <path class="cls-2" d="M837.02,444.21c0,5.7,4.63,10.33,10.33,10.33s10.33-4.62,10.33-10.33-4.63-10.33-10.33-10.33-10.33,4.62-10.33,10.33Z"/>
        <path class="cls-2" d="M837.02,418.25c0,5.7,4.63,10.33,10.33,10.33s10.33-4.62,10.33-10.33-4.63-10.33-10.33-10.33-10.33,4.62-10.33,10.33Z"/>
        <path class="cls-2" d="M837.02,548.07c0,5.7,4.63,10.33,10.33,10.33s10.33-4.62,10.33-10.33-4.63-10.33-10.33-10.33-10.33,4.62-10.33,10.33Z"/>
        <path class="cls-2" d="M837.02,574.04c0,5.7,4.63,10.32,10.33,10.32s10.33-4.62,10.33-10.32-4.63-10.32-10.33-10.32-10.33,4.62-10.33,10.32Z"/>
        <path class="cls-2" d="M837.02,470.18c0,5.7,4.63,10.32,10.33,10.32s10.33-4.62,10.33-10.32-4.63-10.32-10.33-10.32-10.33,4.62-10.33,10.32Z"/>
        <path class="cls-2" d="M859.5,483.16c0,5.7,4.63,10.32,10.33,10.32s10.33-4.62,10.33-10.32-4.63-10.32-10.33-10.32-10.33,4.62-10.33,10.32Z"/>
        <path class="cls-2" d="M837.02,522.11c0,5.7,4.63,10.32,10.33,10.32s10.33-4.62,10.33-10.32-4.63-10.32-10.33-10.32-10.33,4.62-10.33,10.32Z"/>
        <path class="cls-2" d="M859.5,535.09c0,5.7,4.63,10.33,10.33,10.33s10.33-4.62,10.33-10.33-4.63-10.33-10.33-10.33-10.33,4.62-10.33,10.33Z"/>
        <path class="cls-2" d="M882,392.28c0,5.7,4.62,10.32,10.32,10.32s10.32-4.62,10.32-10.32-4.62-10.32-10.32-10.32-10.32,4.62-10.32,10.32Z"/>
        <path class="cls-2" d="M882,574.04c0,5.7,4.62,10.32,10.32,10.32s10.32-4.62,10.32-10.32-4.62-10.32-10.32-10.32-10.32,4.62-10.32,10.32Z"/>
        <path class="cls-2" d="M882,366.32c0,5.7,4.62,10.32,10.32,10.32s10.32-4.62,10.32-10.32-4.62-10.32-10.32-10.32-10.32,4.62-10.32,10.32Z"/>
        <path class="cls-2" d="M882,418.25c0,5.7,4.62,10.33,10.32,10.33s10.32-4.62,10.32-10.33-4.62-10.33-10.32-10.33-10.32,4.62-10.32,10.33Z"/>
        <path class="cls-2" d="M882,548.07c0,5.7,4.62,10.33,10.32,10.33s10.32-4.62,10.32-10.33-4.62-10.33-10.32-10.33-10.32,4.62-10.32,10.33Z"/>
        <path class="cls-2" d="M882,522.11c0,5.7,4.62,10.32,10.32,10.32s10.32-4.62,10.32-10.32-4.62-10.32-10.32-10.32-10.32,4.62-10.32,10.32Z"/>
        <path class="cls-2" d="M882,496.14c0,5.7,4.62,10.32,10.32,10.32s10.32-4.62,10.32-10.32-4.62-10.32-10.32-10.32-10.32,4.62-10.32,10.32Z"/>
        <path class="cls-2" d="M882,444.21c0,5.7,4.62,10.33,10.32,10.33s10.32-4.62,10.32-10.33-4.62-10.33-10.32-10.33-10.32,4.62-10.32,10.33Z"/>
        <path class="cls-2" d="M882,470.18c0,5.7,4.62,10.32,10.32,10.32s10.32-4.62,10.32-10.32-4.62-10.32-10.32-10.32-10.32,4.62-10.32,10.32Z"/>
        <path class="cls-2" d="M859.5,612.98c0,5.7,4.63,10.32,10.33,10.32s10.33-4.62,10.33-10.32-4.63-10.32-10.33-10.32-10.33,4.62-10.33,10.32Z"/>
        <path class="cls-2" d="M859.5,587.02c0,5.7,4.63,10.32,10.33,10.32s10.33-4.62,10.33-10.32-4.63-10.32-10.33-10.32-10.33,4.62-10.33,10.32Z"/>
        <path class="cls-2" d="M859.5,561.05c0,5.7,4.63,10.32,10.33,10.32s10.33-4.62,10.33-10.32-4.63-10.32-10.33-10.32-10.33,4.62-10.33,10.32Z"/>
        <path class="cls-2" d="M859.5,638.95c0,5.7,4.63,10.33,10.33,10.33s10.33-4.62,10.33-10.33-4.63-10.33-10.33-10.33-10.33,4.62-10.33,10.33Z"/>
        <path class="cls-2" d="M859.5,690.88c0,5.7,4.63,10.32,10.33,10.32s10.33-4.62,10.33-10.32-4.63-10.32-10.33-10.32-10.33,4.62-10.33,10.32Z"/>
        <path class="cls-2" d="M859.5,664.91c0,5.7,4.63,10.32,10.33,10.32s10.33-4.62,10.33-10.32-4.63-10.32-10.33-10.32-10.33,4.62-10.33,10.32Z"/>
        <path class="cls-2" d="M859.5,509.13c0,5.7,4.63,10.32,10.33,10.32s10.33-4.62,10.33-10.32-4.63-10.32-10.33-10.32-10.33,4.62-10.33,10.32Z"/>
        <path class="cls-2" d="M792.05,392.28c0,5.7,4.62,10.32,10.32,10.32s10.33-4.62,10.33-10.32-4.62-10.32-10.33-10.32-10.32,4.62-10.32,10.32Z"/>
        <path class="cls-2" d="M792.05,418.25c0,5.7,4.62,10.33,10.32,10.33s10.33-4.62,10.33-10.33-4.62-10.33-10.33-10.33-10.32,4.62-10.32,10.33Z"/>
        <path class="cls-2" d="M792.05,548.07c0,5.7,4.62,10.33,10.32,10.33s10.33-4.62,10.33-10.33-4.62-10.33-10.33-10.33-10.32,4.62-10.32,10.33Z"/>
        <path class="cls-2" d="M792.05,522.11c0,5.7,4.62,10.32,10.32,10.32s10.33-4.62,10.33-10.32-4.62-10.32-10.33-10.32-10.32,4.62-10.32,10.32Z"/>
        <path class="cls-2" d="M792.05,470.18c0,5.7,4.62,10.32,10.32,10.32s10.33-4.62,10.33-10.32-4.62-10.32-10.33-10.32-10.32,4.62-10.32,10.32Z"/>
        <path class="cls-2" d="M792.05,444.21c0,5.7,4.62,10.33,10.32,10.33s10.33-4.62,10.33-10.33-4.62-10.33-10.33-10.33-10.32,4.62-10.32,10.33Z"/>
        <path class="cls-2" d="M792.05,496.14c0,5.7,4.62,10.32,10.32,10.32s10.33-4.62,10.33-10.32-4.62-10.32-10.33-10.32-10.32,4.62-10.32,10.32Z"/>
        <path class="cls-2" d="M769.56,535.09c0,5.7,4.63,10.33,10.33,10.33s10.33-4.62,10.33-10.33-4.63-10.33-10.33-10.33-10.33,4.62-10.33,10.33Z"/>
        <path class="cls-2" d="M769.56,561.05c0,5.7,4.63,10.32,10.33,10.32s10.33-4.62,10.33-10.32-4.63-10.32-10.33-10.32-10.33,4.62-10.33,10.32Z"/>
        <path class="cls-2" d="M769.56,457.2c0,5.7,4.63,10.32,10.33,10.32s10.33-4.62,10.33-10.32-4.63-10.32-10.33-10.32-10.33,4.62-10.33,10.32Z"/>
        <path class="cls-2" d="M769.56,509.13c0,5.7,4.63,10.32,10.33,10.32s10.33-4.62,10.33-10.32-4.63-10.32-10.33-10.32-10.33,4.62-10.33,10.32Z"/>
        <path class="cls-2" d="M792.05,574.04c0,5.7,4.62,10.32,10.32,10.32s10.33-4.62,10.33-10.32-4.62-10.32-10.33-10.32-10.32,4.62-10.32,10.32Z"/>
        <path class="cls-2" d="M814.54,535.09c0,5.7,4.62,10.33,10.32,10.33s10.33-4.62,10.33-10.33-4.62-10.33-10.33-10.33-10.32,4.62-10.32,10.33Z"/>
        <path class="cls-2" d="M814.54,483.16c0,5.7,4.62,10.32,10.32,10.32s10.33-4.62,10.33-10.32-4.62-10.32-10.33-10.32-10.32,4.62-10.32,10.32Z"/>
        <path class="cls-2" d="M814.54,509.13c0,5.7,4.62,10.32,10.32,10.32s10.33-4.62,10.33-10.32-4.62-10.32-10.33-10.32-10.32,4.62-10.32,10.32Z"/>
        <path class="cls-2" d="M814.54,457.2c0,5.7,4.62,10.32,10.32,10.32s10.33-4.62,10.33-10.32-4.62-10.32-10.33-10.32-10.32,4.62-10.32,10.32Z"/>
        <path class="cls-2" d="M814.54,431.23c0,5.7,4.62,10.33,10.32,10.33s10.33-4.62,10.33-10.33-4.62-10.33-10.33-10.33-10.32,4.62-10.32,10.33Z"/>
        <path class="cls-2" d="M814.54,561.05c0,5.7,4.62,10.32,10.32,10.32s10.33-4.62,10.33-10.32-4.62-10.32-10.33-10.32-10.32,4.62-10.32,10.32Z"/>
        <path class="cls-2" d="M814.54,405.27c0,5.7,4.62,10.32,10.32,10.32s10.33-4.62,10.33-10.32-4.62-10.32-10.33-10.32-10.32,4.62-10.32,10.32Z"/>
        <path class="cls-2" d="M814.54,612.98c0,5.7,4.62,10.32,10.32,10.32s10.33-4.62,10.33-10.32-4.62-10.32-10.33-10.32-10.32,4.62-10.32,10.32Z"/>
        <path class="cls-2" d="M792.05,600c0,5.7,4.62,10.32,10.32,10.32s10.33-4.62,10.33-10.32-4.62-10.32-10.33-10.32-10.32,4.62-10.32,10.32Z"/>
        <path class="cls-2" d="M814.54,587.02c0,5.7,4.62,10.32,10.32,10.32s10.33-4.62,10.33-10.32-4.62-10.32-10.33-10.32-10.32,4.62-10.32,10.32Z"/>
        <path class="cls-2" d="M792.05,651.93c0,5.7,4.62,10.33,10.32,10.33s10.33-4.62,10.33-10.33-4.62-10.33-10.33-10.33-10.32,4.62-10.32,10.33Z"/>
        <path class="cls-2" d="M792.05,625.96c0,5.7,4.62,10.32,10.32,10.32s10.33-4.62,10.33-10.32-4.62-10.32-10.33-10.32-10.32,4.62-10.32,10.32Z"/>
        <path class="cls-2" d="M1039.4,509.13c0,5.7,4.62,10.32,10.33,10.32s10.33-4.62,10.33-10.32-4.62-10.32-10.33-10.32-10.33,4.62-10.33,10.32Z"/>
        <path class="cls-2" d="M994.42,457.2c0,5.7,4.62,10.32,10.33,10.32s10.32-4.62,10.32-10.32-4.62-10.32-10.32-10.32-10.33,4.62-10.33,10.32Z"/>
        <path class="cls-2" d="M994.42,431.23c0,5.7,4.62,10.33,10.33,10.33s10.32-4.62,10.32-10.33-4.62-10.33-10.32-10.33-10.33,4.62-10.33,10.33Z"/>
        <path class="cls-2" d="M994.42,405.27c0,5.7,4.62,10.32,10.33,10.32s10.32-4.62,10.32-10.32-4.62-10.32-10.32-10.32-10.33,4.62-10.33,10.32Z"/>
        <path class="cls-2" d="M971.94,807.72c0,5.7,4.62,10.32,10.33,10.32s10.32-4.62,10.32-10.32-4.62-10.32-10.32-10.32-10.33,4.62-10.33,10.32Z"/>
        <path class="cls-2" d="M882,600c0,5.7,4.62,10.32,10.32,10.32s10.32-4.62,10.32-10.32-4.62-10.32-10.32-10.32-10.32,4.62-10.32,10.32Z"/>
        <path class="cls-2" d="M994.42,561.05c0,5.7,4.62,10.32,10.33,10.32s10.32-4.62,10.32-10.32-4.62-10.32-10.32-10.32-10.33,4.62-10.33,10.32Z"/>
        <path class="cls-2" d="M994.42,768.77c0,5.7,4.62,10.32,10.33,10.32s10.32-4.62,10.32-10.32-4.62-10.32-10.32-10.32-10.33,4.62-10.33,10.32Z"/>
        <path class="cls-2" d="M994.42,716.84c0,5.7,4.62,10.32,10.33,10.32s10.32-4.62,10.32-10.32-4.62-10.32-10.32-10.32-10.33,4.62-10.33,10.32Z"/>
        <path class="cls-2" d="M971.94,444.21c0,5.7,4.62,10.33,10.33,10.33s10.32-4.62,10.32-10.33-4.62-10.33-10.32-10.33-10.33,4.62-10.33,10.33Z"/>
        <path class="cls-2" d="M971.94,418.25c0,5.7,4.62,10.33,10.33,10.33s10.32-4.62,10.32-10.33-4.62-10.33-10.32-10.33-10.33,4.62-10.33,10.33Z"/>
        <path class="cls-2" d="M994.42,820.7c0,5.7,4.62,10.32,10.33,10.32s10.32-4.62,10.32-10.32-4.62-10.32-10.32-10.32-10.33,4.62-10.33,10.32Z"/>
        <path class="cls-2" d="M949.45,794.74c0,5.7,4.63,10.32,10.33,10.32s10.33-4.62,10.33-10.32-4.63-10.32-10.33-10.32-10.33,4.62-10.33,10.32Z"/>
        <path class="cls-2" d="M971.94,755.79c0,5.7,4.62,10.33,10.33,10.33s10.32-4.62,10.32-10.33-4.62-10.33-10.32-10.33-10.33,4.62-10.33,10.33Z"/>
        <path class="cls-2" d="M971.94,470.18c0,5.7,4.62,10.32,10.33,10.32s10.32-4.62,10.32-10.32-4.62-10.32-10.32-10.32-10.33,4.62-10.33,10.32Z"/>
        <path class="cls-2" d="M971.94,781.75c0,5.7,4.62,10.32,10.33,10.32s10.32-4.62,10.32-10.32-4.62-10.32-10.32-10.32-10.33,4.62-10.33,10.32Z"/>
        <path class="cls-2" d="M971.94,703.86c0,5.7,4.62,10.32,10.33,10.32s10.32-4.62,10.32-10.32-4.62-10.32-10.32-10.32-10.33,4.62-10.33,10.32Z"/>
        <path class="cls-2" d="M971.94,574.04c0,5.7,4.62,10.32,10.33,10.32s10.32-4.62,10.32-10.32-4.62-10.32-10.32-10.32-10.33,4.62-10.33,10.32Z"/>
        <path class="cls-2" d="M971.94,522.11c0,5.7,4.62,10.32,10.33,10.32s10.32-4.62,10.32-10.32-4.62-10.32-10.32-10.32-10.33,4.62-10.33,10.32Z"/>
        <path class="cls-2" d="M1106.85,418.25c0,5.7,4.63,10.33,10.33,10.33s10.33-4.62,10.33-10.33-4.63-10.33-10.33-10.33-10.33,4.62-10.33,10.33Z"/>
        <path class="cls-2" d="M1084.37,846.66c0,5.7,4.62,10.33,10.32,10.33s10.33-4.62,10.33-10.33-4.62-10.33-10.33-10.33-10.32,4.62-10.32,10.33Z"/>
        <path class="cls-2" d="M1084.37,405.27c0,5.7,4.62,10.32,10.32,10.32s10.33-4.62,10.33-10.32-4.62-10.32-10.33-10.32-10.32,4.62-10.32,10.32Z"/>
        <path class="cls-2" d="M1129.34,431.23c0,5.7,4.63,10.33,10.33,10.33s10.33-4.62,10.33-10.33-4.63-10.33-10.33-10.33-10.33,4.62-10.33,10.33Z"/>
        <path class="cls-2" d="M1084.37,431.23c0,5.7,4.62,10.33,10.32,10.33s10.33-4.62,10.33-10.33-4.62-10.33-10.33-10.33-10.32,4.62-10.32,10.33Z"/>
        <path class="cls-2" d="M949.45,768.77c0,5.7,4.63,10.32,10.33,10.32s10.33-4.62,10.33-10.32-4.63-10.32-10.33-10.32-10.33,4.62-10.33,10.32Z"/>
        <path class="cls-2" d="M1016.91,418.25c0,5.7,4.62,10.33,10.33,10.33s10.33-4.62,10.33-10.33-4.62-10.33-10.33-10.33-10.33,4.62-10.33,10.33Z"/>
        <path class="cls-2" d="M1084.37,457.2c0,5.7,4.62,10.32,10.32,10.32s10.33-4.62,10.33-10.32-4.62-10.32-10.33-10.32-10.32,4.62-10.32,10.32Z"/>
        <path class="cls-2" d="M1016.91,807.72c0,5.7,4.62,10.32,10.33,10.32s10.33-4.62,10.33-10.32-4.62-10.32-10.33-10.32-10.33,4.62-10.33,10.32Z"/>
        <path class="cls-2" d="M1016.91,444.21c0,5.7,4.62,10.33,10.33,10.33s10.33-4.62,10.33-10.33-4.62-10.33-10.33-10.33-10.33,4.62-10.33,10.33Z"/>
        <path class="cls-2" d="M1039.4,431.23c0,5.7,4.62,10.33,10.33,10.33s10.33-4.62,10.33-10.33-4.62-10.33-10.33-10.33-10.33,4.62-10.33,10.33Z"/>
        <path class="cls-2" d="M1016.91,781.75c0,5.7,4.62,10.32,10.33,10.32s10.33-4.62,10.33-10.32-4.62-10.32-10.33-10.32-10.33,4.62-10.33,10.32Z"/>
        <circle class="cls-2" cx="1072.21" cy="444.21" r="10.33"/>
        <ellipse class="cls-2" cx="1072.21" cy="470.18" rx="10.33" ry="10.32"/>
        <path class="cls-2" d="M1061.88,418.25c0,5.7,4.62,10.33,10.33,10.33s10.33-4.62,10.33-10.33-4.62-10.33-10.33-10.33-10.33,4.62-10.33,10.33Z"/>
        <path class="cls-2" d="M1039.4,405.27c0,5.7,4.62,10.32,10.33,10.32s10.33-4.62,10.33-10.32-4.62-10.32-10.33-10.32-10.33,4.62-10.33,10.32Z"/>
        <path class="cls-2" d="M1039.4,483.16c0,5.7,4.62,10.32,10.33,10.32s10.33-4.62,10.33-10.32-4.62-10.32-10.33-10.32-10.33,4.62-10.33,10.32Z"/>
        <path class="cls-2" d="M994.42,794.74c0,5.7,4.62,10.32,10.33,10.32s10.32-4.62,10.32-10.32-4.62-10.32-10.32-10.32-10.33,4.62-10.33,10.32Z"/>
        <path class="cls-2" d="M904.49,535.09c0,5.7,4.62,10.33,10.32,10.33s10.32-4.62,10.32-10.33-4.62-10.33-10.32-10.33-10.32,4.62-10.32,10.33Z"/>
        <path class="cls-2" d="M904.49,561.05c0,5.7,4.62,10.32,10.32,10.32s10.32-4.62,10.32-10.32-4.62-10.32-10.32-10.32-10.32,4.62-10.32,10.32Z"/>
        <path class="cls-2" d="M769.56,431.23c0,5.7,4.63,10.33,10.33,10.33s10.33-4.62,10.33-10.33-4.63-10.33-10.33-10.33-10.33,4.62-10.33,10.33Z"/>
        <path class="cls-2" d="M904.49,483.16c0,5.7,4.62,10.32,10.32,10.32s10.32-4.62,10.32-10.32-4.62-10.32-10.32-10.32-10.32,4.62-10.32,10.32Z"/>
        <path class="cls-2" d="M904.49,587.02c0,5.7,4.62,10.32,10.32,10.32s10.32-4.62,10.32-10.32-4.62-10.32-10.32-10.32-10.32,4.62-10.32,10.32Z"/>
        <path class="cls-2" d="M904.49,612.98c0,5.7,4.62,10.32,10.32,10.32s10.32-4.62,10.32-10.32-4.62-10.32-10.32-10.32-10.32,4.62-10.32,10.32Z"/>
        <path class="cls-2" d="M926.96,703.86c0,5.7,4.63,10.32,10.33,10.32s10.33-4.62,10.33-10.32-4.63-10.32-10.33-10.32-10.33,4.62-10.33,10.32Z"/>
        <path class="cls-2" d="M904.49,457.2c0,5.7,4.62,10.32,10.32,10.32s10.32-4.62,10.32-10.32-4.62-10.32-10.32-10.32-10.32,4.62-10.32,10.32Z"/>
        <path class="cls-2" d="M926.96,651.93c0,5.7,4.63,10.33,10.33,10.33s10.33-4.62,10.33-10.33-4.63-10.33-10.33-10.33-10.33,4.62-10.33,10.33Z"/>
        <path class="cls-2" d="M904.49,690.88c0,5.7,4.62,10.32,10.32,10.32s10.32-4.62,10.32-10.32-4.62-10.32-10.32-10.32-10.32,4.62-10.32,10.32Z"/>
        <path class="cls-2" d="M882,703.86c0,5.7,4.62,10.32,10.32,10.32s10.32-4.62,10.32-10.32-4.62-10.32-10.32-10.32-10.32,4.62-10.32,10.32Z"/>
        <path class="cls-2" d="M926.96,781.75c0,5.7,4.63,10.32,10.33,10.32s10.33-4.62,10.33-10.32-4.63-10.32-10.33-10.32-10.33,4.62-10.33,10.32Z"/>
        <path class="cls-2" d="M882,625.96c0,5.7,4.62,10.32,10.32,10.32s10.32-4.62,10.32-10.32-4.62-10.32-10.32-10.32-10.32,4.62-10.32,10.32Z"/>
        <path class="cls-2" d="M882,651.93c0,5.7,4.62,10.33,10.32,10.33s10.32-4.62,10.32-10.33-4.62-10.33-10.32-10.33-10.32,4.62-10.32,10.33Z"/>
        <path class="cls-2" d="M904.49,405.27c0,5.7,4.62,10.32,10.32,10.32s10.32-4.62,10.32-10.32-4.62-10.32-10.32-10.32-10.32,4.62-10.32,10.32Z"/>
        <path class="cls-2" d="M904.49,431.23c0,5.7,4.62,10.33,10.32,10.33s10.32-4.62,10.32-10.33-4.62-10.33-10.32-10.33-10.32,4.62-10.32,10.33Z"/>
        <path class="cls-2" d="M949.45,405.27c0,5.7,4.63,10.32,10.33,10.32s10.33-4.62,10.33-10.32-4.63-10.32-10.33-10.32-10.33,4.62-10.33,10.32Z"/>
        <path class="cls-2" d="M926.96,807.72c0,5.7,4.63,10.32,10.33,10.32s10.33-4.62,10.33-10.32-4.63-10.32-10.33-10.32-10.33,4.62-10.33,10.32Z"/>
        <path class="cls-2" d="M949.45,535.09c0,5.7,4.63,10.33,10.33,10.33s10.33-4.62,10.33-10.33-4.63-10.33-10.33-10.33-10.33,4.62-10.33,10.33Z"/>
        <path class="cls-2" d="M949.45,509.13c0,5.7,4.63,10.32,10.33,10.32s10.33-4.62,10.33-10.32-4.63-10.32-10.33-10.32-10.33,4.62-10.33,10.32Z"/>
        <path class="cls-2" d="M949.45,431.23c0,5.7,4.63,10.33,10.33,10.33s10.33-4.62,10.33-10.33-4.63-10.33-10.33-10.33-10.33,4.62-10.33,10.33Z"/>
        <path class="cls-2" d="M949.45,483.16c0,5.7,4.63,10.32,10.33,10.32s10.33-4.62,10.33-10.32-4.63-10.32-10.33-10.32-10.33,4.62-10.33,10.32Z"/>
        <path class="cls-2" d="M949.45,457.2c0,5.7,4.63,10.32,10.33,10.32s10.33-4.62,10.33-10.32-4.63-10.32-10.33-10.32-10.33,4.62-10.33,10.32Z"/>
        <path class="cls-2" d="M926.96,548.07c0,5.7,4.63,10.33,10.33,10.33s10.33-4.62,10.33-10.33-4.63-10.33-10.33-10.33-10.33,4.62-10.33,10.33Z"/>
        <path class="cls-2" d="M926.96,496.14c0,5.7,4.63,10.32,10.33,10.32s10.33-4.62,10.33-10.32-4.63-10.32-10.33-10.32-10.33,4.62-10.33,10.32Z"/>
        <path class="cls-2" d="M926.96,470.18c0,5.7,4.63,10.32,10.33,10.32s10.33-4.62,10.33-10.32-4.63-10.32-10.33-10.32-10.33,4.62-10.33,10.32Z"/>
        <path class="cls-2" d="M926.96,444.21c0,5.7,4.63,10.33,10.33,10.33s10.33-4.62,10.33-10.33-4.63-10.33-10.33-10.33-10.33,4.62-10.33,10.33Z"/>
        <path class="cls-2" d="M926.96,522.11c0,5.7,4.63,10.32,10.33,10.32s10.33-4.62,10.33-10.32-4.63-10.32-10.33-10.32-10.33,4.62-10.33,10.32Z"/>
        <path class="cls-2" d="M926.96,418.25c0,5.7,4.63,10.33,10.33,10.33s10.33-4.62,10.33-10.33-4.63-10.33-10.33-10.33-10.33,4.62-10.33,10.33Z"/>
        <path class="cls-2" d="M926.96,392.28c0,5.7,4.63,10.32,10.33,10.32s10.33-4.62,10.33-10.32-4.63-10.32-10.33-10.32-10.33,4.62-10.33,10.32Z"/>
        <path class="cls-2" d="M949.45,561.05c0,5.7,4.63,10.32,10.33,10.32s10.33-4.62,10.33-10.32-4.63-10.32-10.33-10.32-10.33,4.62-10.33,10.32Z"/>
        <path class="cls-2" d="M926.96,574.04c0,5.7,4.63,10.32,10.33,10.32s10.33-4.62,10.33-10.32-4.63-10.32-10.33-10.32-10.33,4.62-10.33,10.32Z"/>
        <path class="cls-2" d="M274.87,353.34c0,5.7,4.62,10.33,10.32,10.33s10.32-4.62,10.32-10.33-4.62-10.33-10.32-10.33-10.32,4.62-10.32,10.33Z"/>
        <path class="cls-2" d="M274.87,431.23c0,5.7,4.62,10.33,10.32,10.33s10.32-4.62,10.32-10.33-4.62-10.33-10.32-10.33-10.32,4.62-10.32,10.33Z"/>
        <path class="cls-2" d="M274.87,587.02c0,5.7,4.62,10.32,10.32,10.32s10.32-4.62,10.32-10.32-4.62-10.32-10.32-10.32-10.32,4.62-10.32,10.32Z"/>
        <path class="cls-2" d="M274.87,638.95c0,5.7,4.62,10.33,10.32,10.33s10.32-4.62,10.32-10.33-4.62-10.33-10.32-10.33-10.32,4.62-10.32,10.33Z"/>
        <path class="cls-2" d="M274.87,509.13c0,5.7,4.62,10.32,10.32,10.32s10.32-4.62,10.32-10.32-4.62-10.32-10.32-10.32-10.32,4.62-10.32,10.32Z"/>
        <path class="cls-2" d="M274.87,535.09c0,5.7,4.62,10.33,10.32,10.33s10.32-4.62,10.32-10.33-4.62-10.33-10.32-10.33-10.32,4.62-10.32,10.33Z"/>
        <path class="cls-2" d="M274.87,561.05c0,5.7,4.62,10.32,10.32,10.32s10.32-4.62,10.32-10.32-4.62-10.32-10.32-10.32-10.32,4.62-10.32,10.32Z"/>
        <path class="cls-2" d="M252.39,600c0,5.7,4.62,10.32,10.32,10.32s10.32-4.62,10.32-10.32-4.62-10.32-10.32-10.32-10.32,4.62-10.32,10.32Z"/>
        <path class="cls-2" d="M252.39,548.07c0,5.7,4.62,10.33,10.32,10.33s10.32-4.62,10.32-10.33-4.62-10.33-10.32-10.33-10.32,4.62-10.32,10.33Z"/>
        <path class="cls-2" d="M252.39,574.04c0,5.7,4.62,10.32,10.32,10.32s10.32-4.62,10.32-10.32-4.62-10.32-10.32-10.32-10.32,4.62-10.32,10.32Z"/>
        <path class="cls-2" d="M252.39,496.14c0,5.7,4.62,10.32,10.32,10.32s10.32-4.62,10.32-10.32-4.62-10.32-10.32-10.32-10.32,4.62-10.32,10.32Z"/>
        <path class="cls-2" d="M252.39,522.11c0,5.7,4.62,10.32,10.32,10.32s10.32-4.62,10.32-10.32-4.62-10.32-10.32-10.32-10.32,4.62-10.32,10.32Z"/>
        <path class="cls-2" d="M252.39,651.93c0,5.7,4.62,10.33,10.32,10.33s10.32-4.62,10.32-10.33-4.62-10.33-10.32-10.33-10.32,4.62-10.32,10.33Z"/>
        <path class="cls-2" d="M252.39,470.18c0,5.7,4.62,10.32,10.32,10.32s10.32-4.62,10.32-10.32-4.62-10.32-10.32-10.32-10.32,4.62-10.32,10.32Z"/>
        <path class="cls-2" d="M252.39,625.96c0,5.7,4.62,10.32,10.32,10.32s10.32-4.62,10.32-10.32-4.62-10.32-10.32-10.32-10.32,4.62-10.32,10.32Z"/>
        <path class="cls-2" d="M252.39,444.21c0,5.7,4.62,10.33,10.32,10.33s10.32-4.62,10.32-10.33-4.62-10.33-10.32-10.33-10.32,4.62-10.32,10.33Z"/>
        <path class="cls-2" d="M252.39,392.28c0,5.7,4.62,10.32,10.32,10.32s10.32-4.62,10.32-10.32-4.62-10.32-10.32-10.32-10.32,4.62-10.32,10.32Z"/>
        <ellipse class="cls-2" cx="307.68" cy="574.04" rx="10.33" ry="10.32"/>
        <circle class="cls-2" cx="307.68" cy="548.07" r="10.33"/>
        <path class="cls-2" d="M297.35,600c0,5.7,4.62,10.32,10.33,10.32s10.33-4.62,10.33-10.32-4.62-10.32-10.33-10.32-10.33,4.62-10.33,10.32Z"/>
        <path class="cls-2" d="M297.35,522.11c0,5.7,4.62,10.32,10.33,10.32s10.33-4.62,10.33-10.32-4.62-10.32-10.33-10.32-10.33,4.62-10.33,10.32Z"/>
        <path class="cls-2" d="M297.35,496.14c0,5.7,4.62,10.32,10.33,10.32s10.33-4.62,10.33-10.32-4.62-10.32-10.33-10.32-10.33,4.62-10.33,10.32Z"/>
        <ellipse class="cls-2" cx="307.68" cy="677.89" rx="10.33" ry="10.32"/>
        <path class="cls-2" d="M297.35,418.25c0,5.7,4.62,10.33,10.33,10.33s10.33-4.62,10.33-10.33-4.62-10.33-10.33-10.33-10.33,4.62-10.33,10.33Z"/>
        <circle class="cls-2" cx="307.68" cy="340.36" r="10.33"/>
        <path class="cls-2" d="M274.87,664.91c0,5.7,4.62,10.32,10.32,10.32s10.32-4.62,10.32-10.32-4.62-10.32-10.32-10.32-10.32,4.62-10.32,10.32Z"/>
        <path class="cls-2" d="M297.35,392.28c0,5.7,4.62,10.32,10.33,10.32s10.33-4.62,10.33-10.32-4.62-10.32-10.33-10.32-10.33,4.62-10.33,10.32Z"/>
        <path class="cls-2" d="M184.92,561.05c0,5.7,4.63,10.32,10.33,10.32s10.33-4.62,10.33-10.32-4.63-10.32-10.33-10.32-10.33,4.62-10.33,10.32Z"/>
        <path class="cls-2" d="M184.92,509.13c0,5.7,4.63,10.32,10.33,10.32s10.33-4.62,10.33-10.32-4.63-10.32-10.33-10.32-10.33,4.62-10.33,10.32Z"/>
        <path class="cls-2" d="M184.92,535.09c0,5.7,4.63,10.33,10.33,10.33s10.33-4.62,10.33-10.33-4.63-10.33-10.33-10.33-10.33,4.62-10.33,10.33Z"/>
        <path class="cls-2" d="M184.92,483.16c0,5.7,4.63,10.32,10.33,10.32s10.33-4.62,10.33-10.32-4.63-10.32-10.33-10.32-10.33,4.62-10.33,10.32Z"/>
        <path class="cls-2" d="M184.92,587.02c0,5.7,4.63,10.32,10.33,10.32s10.33-4.62,10.33-10.32-4.63-10.32-10.33-10.32-10.33,4.62-10.33,10.32Z"/>
        <path class="cls-2" d="M184.92,457.2c0,5.7,4.63,10.32,10.33,10.32s10.33-4.62,10.33-10.32-4.63-10.32-10.33-10.32-10.33,4.62-10.33,10.32Z"/>
        <path class="cls-2" d="M162.43,470.18c0,5.7,4.63,10.32,10.33,10.32s10.33-4.62,10.33-10.32-4.63-10.32-10.33-10.32-10.33,4.62-10.33,10.32Z"/>
        <path class="cls-2" d="M162.43,496.14c0,5.7,4.63,10.32,10.33,10.32s10.33-4.62,10.33-10.32-4.63-10.32-10.33-10.32-10.33,4.62-10.33,10.32Z"/>
        <path class="cls-2" d="M162.43,418.25c0,5.7,4.63,10.33,10.33,10.33s10.33-4.62,10.33-10.33-4.63-10.33-10.33-10.33-10.33,4.62-10.33,10.33Z"/>
        <path class="cls-2" d="M162.43,444.21c0,5.7,4.63,10.33,10.33,10.33s10.33-4.62,10.33-10.33-4.63-10.33-10.33-10.33-10.33,4.62-10.33,10.33Z"/>
        <path class="cls-2" d="M184.92,431.23c0,5.7,4.63,10.33,10.33,10.33s10.33-4.62,10.33-10.33-4.63-10.33-10.33-10.33-10.33,4.62-10.33,10.33Z"/>
        <path class="cls-2" d="M162.43,522.11c0,5.7,4.63,10.32,10.33,10.32s10.33-4.62,10.33-10.32-4.63-10.32-10.33-10.32-10.33,4.62-10.33,10.32Z"/>
        <path class="cls-2" d="M229.89,587.02c0,5.7,4.63,10.32,10.33,10.32s10.33-4.62,10.33-10.32-4.63-10.32-10.33-10.32-10.33,4.62-10.33,10.32Z"/>
        <path class="cls-2" d="M229.89,509.13c0,5.7,4.63,10.32,10.33,10.32s10.33-4.62,10.33-10.32-4.63-10.32-10.33-10.32-10.33,4.62-10.33,10.32Z"/>
        <path class="cls-2" d="M229.89,561.05c0,5.7,4.63,10.32,10.33,10.32s10.33-4.62,10.33-10.32-4.63-10.32-10.33-10.32-10.33,4.62-10.33,10.32Z"/>
        <path class="cls-2" d="M229.89,535.09c0,5.7,4.63,10.33,10.33,10.33s10.33-4.62,10.33-10.33-4.63-10.33-10.33-10.33-10.33,4.62-10.33,10.33Z"/>
        <path class="cls-2" d="M229.89,612.98c0,5.7,4.63,10.32,10.33,10.32s10.33-4.62,10.33-10.32-4.63-10.32-10.33-10.32-10.33,4.62-10.33,10.32Z"/>
        <path class="cls-2" d="M229.89,431.23c0,5.7,4.63,10.33,10.33,10.33s10.33-4.62,10.33-10.33-4.63-10.33-10.33-10.33-10.33,4.62-10.33,10.33Z"/>
        <path class="cls-2" d="M229.89,457.2c0,5.7,4.63,10.32,10.33,10.32s10.33-4.62,10.33-10.32-4.63-10.32-10.33-10.32-10.33,4.62-10.33,10.32Z"/>
        <path class="cls-2" d="M229.89,483.16c0,5.7,4.63,10.32,10.33,10.32s10.33-4.62,10.33-10.32-4.63-10.32-10.33-10.32-10.33,4.62-10.33,10.32Z"/>
        <path class="cls-2" d="M229.89,405.27c0,5.7,4.63,10.32,10.33,10.32s10.33-4.62,10.33-10.32-4.63-10.32-10.33-10.32-10.33,4.62-10.33,10.32Z"/>
        <path class="cls-2" d="M207.4,574.04c0,5.7,4.63,10.32,10.33,10.32s10.33-4.62,10.33-10.32-4.63-10.32-10.33-10.32-10.33,4.62-10.33,10.32Z"/>
        <path class="cls-2" d="M207.4,600c0,5.7,4.63,10.32,10.33,10.32s10.33-4.62,10.33-10.32-4.63-10.32-10.33-10.32-10.33,4.62-10.33,10.32Z"/>
        <path class="cls-2" d="M207.4,522.11c0,5.7,4.63,10.32,10.33,10.32s10.33-4.62,10.33-10.32-4.63-10.32-10.33-10.32-10.33,4.62-10.33,10.32Z"/>
        <path class="cls-2" d="M207.4,496.14c0,5.7,4.63,10.32,10.33,10.32s10.33-4.62,10.33-10.32-4.63-10.32-10.33-10.32-10.33,4.62-10.33,10.32Z"/>
        <path class="cls-2" d="M207.4,548.07c0,5.7,4.63,10.33,10.33,10.33s10.33-4.62,10.33-10.33-4.63-10.33-10.33-10.33-10.33,4.62-10.33,10.33Z"/>
        <path class="cls-2" d="M229.89,353.34c0,5.7,4.63,10.33,10.33,10.33s10.33-4.62,10.33-10.33-4.63-10.33-10.33-10.33-10.33,4.62-10.33,10.33Z"/>
        <path class="cls-2" d="M207.4,470.18c0,5.7,4.63,10.32,10.33,10.32s10.33-4.62,10.33-10.32-4.63-10.32-10.33-10.32-10.33,4.62-10.33,10.32Z"/>
        <path class="cls-2" d="M207.4,418.25c0,5.7,4.63,10.33,10.33,10.33s10.33-4.62,10.33-10.33-4.63-10.33-10.33-10.33-10.33,4.62-10.33,10.33Z"/>
        <path class="cls-2" d="M207.4,444.21c0,5.7,4.63,10.33,10.33,10.33s10.33-4.62,10.33-10.33-4.63-10.33-10.33-10.33-10.33,4.62-10.33,10.33Z"/>
        <path class="cls-2" d="M207.4,392.28c0,5.7,4.63,10.32,10.33,10.32s10.33-4.62,10.33-10.32-4.63-10.32-10.33-10.32-10.33,4.62-10.33,10.32Z"/>
        <path class="cls-2" d="M432.27,392.28c0,5.7,4.62,10.32,10.32,10.32s10.33-4.62,10.33-10.32-4.62-10.32-10.33-10.32-10.32,4.62-10.32,10.32Z"/>
        <path class="cls-2" d="M432.27,340.36c0,5.7,4.62,10.33,10.32,10.33s10.33-4.62,10.33-10.33-4.62-10.33-10.33-10.33-10.32,4.62-10.32,10.33Z"/>
        <path class="cls-2" d="M432.27,314.39c0,5.7,4.62,10.32,10.32,10.32s10.33-4.62,10.33-10.32-4.62-10.32-10.33-10.32-10.32,4.62-10.32,10.32Z"/>
        <path class="cls-2" d="M432.27,444.21c0,5.7,4.62,10.33,10.32,10.33s10.33-4.62,10.33-10.33-4.62-10.33-10.33-10.33-10.32,4.62-10.32,10.33Z"/>
        <path class="cls-2" d="M432.27,366.32c0,5.7,4.62,10.32,10.32,10.32s10.33-4.62,10.33-10.32-4.62-10.32-10.33-10.32-10.32,4.62-10.32,10.32Z"/>
        <path class="cls-2" d="M432.27,729.82c0,5.7,4.62,10.32,10.32,10.32s10.33-4.62,10.33-10.32-4.62-10.32-10.33-10.32-10.32,4.62-10.32,10.32Z"/>
        <path class="cls-2" d="M432.27,418.25c0,5.7,4.62,10.33,10.32,10.33s10.33-4.62,10.33-10.33-4.62-10.33-10.33-10.33-10.32,4.62-10.32,10.33Z"/>
        <path class="cls-2" d="M409.78,405.27c0,5.7,4.62,10.32,10.33,10.32s10.33-4.62,10.33-10.32-4.62-10.32-10.33-10.32-10.33,4.62-10.33,10.32Z"/>
        <path class="cls-2" d="M409.78,353.34c0,5.7,4.62,10.33,10.33,10.33s10.33-4.62,10.33-10.33-4.62-10.33-10.33-10.33-10.33,4.62-10.33,10.33Z"/>
        <circle class="cls-2" cx="420.11" cy="431.23" r="10.33"/>
        <circle class="cls-2" cx="420.11" cy="327.37" r="10.33"/>
        <path class="cls-2" d="M409.78,379.3c0,5.7,4.62,10.32,10.33,10.32s10.33-4.62,10.33-10.32-4.62-10.32-10.33-10.32-10.33,4.62-10.33,10.32Z"/>
        <path class="cls-2" d="M409.78,457.2c0,5.7,4.62,10.32,10.33,10.32s10.33-4.62,10.33-10.32-4.62-10.32-10.33-10.32-10.33,4.62-10.33,10.32Z"/>
        <ellipse class="cls-2" cx="420.11" cy="716.84" rx="10.33" ry="10.32"/>
        <circle class="cls-2" cx="420.11" cy="742.81" r="10.33"/>
        <path class="cls-2" d="M409.78,768.77c0,5.7,4.62,10.32,10.33,10.32s10.33-4.62,10.33-10.32-4.62-10.32-10.33-10.32-10.33,4.62-10.33,10.32Z"/>
        <path class="cls-2" d="M477.24,366.32c0,5.7,4.63,10.32,10.33,10.32s10.33-4.62,10.33-10.32-4.63-10.32-10.33-10.32-10.33,4.62-10.33,10.32Z"/>
        <path class="cls-2" d="M477.24,340.36c0,5.7,4.63,10.33,10.33,10.33s10.33-4.62,10.33-10.33-4.63-10.33-10.33-10.33-10.33,4.62-10.33,10.33Z"/>
        <path class="cls-2" d="M477.24,392.28c0,5.7,4.63,10.32,10.33,10.32s10.33-4.62,10.33-10.32-4.63-10.32-10.33-10.32-10.33,4.62-10.33,10.32Z"/>
        <path class="cls-2" d="M454.76,405.27c0,5.7,4.62,10.32,10.32,10.32s10.33-4.62,10.33-10.32-4.62-10.32-10.33-10.32-10.32,4.62-10.32,10.32Z"/>
        <path class="cls-2" d="M454.76,379.3c0,5.7,4.62,10.32,10.32,10.32s10.33-4.62,10.33-10.32-4.62-10.32-10.33-10.32-10.32,4.62-10.32,10.32Z"/>
        <path class="cls-2" d="M454.76,353.34c0,5.7,4.62,10.33,10.32,10.33s10.33-4.62,10.33-10.33-4.62-10.33-10.33-10.33-10.32,4.62-10.32,10.33Z"/>
        <path class="cls-2" d="M454.76,327.37c0,5.7,4.62,10.33,10.32,10.33s10.33-4.62,10.33-10.33-4.62-10.33-10.33-10.33-10.32,4.62-10.32,10.33Z"/>
        <path class="cls-2" d="M387.3,703.86c0,5.7,4.62,10.32,10.33,10.32s10.33-4.62,10.33-10.32-4.62-10.32-10.33-10.32-10.33,4.62-10.33,10.32Z"/>
        <path class="cls-2" d="M342.33,548.07c0,5.7,4.62,10.33,10.32,10.33s10.32-4.62,10.32-10.33-4.62-10.33-10.32-10.33-10.32,4.62-10.32,10.33Z"/>
        <path class="cls-2" d="M342.33,314.39c0,5.7,4.62,10.32,10.32,10.32s10.32-4.62,10.32-10.32-4.62-10.32-10.32-10.32-10.32,4.62-10.32,10.32Z"/>
        <path class="cls-2" d="M342.33,522.11c0,5.7,4.62,10.32,10.32,10.32s10.32-4.62,10.32-10.32-4.62-10.32-10.32-10.32-10.32,4.62-10.32,10.32Z"/>
        <path class="cls-2" d="M342.33,496.14c0,5.7,4.62,10.32,10.32,10.32s10.32-4.62,10.32-10.32-4.62-10.32-10.32-10.32-10.32,4.62-10.32,10.32Z"/>
        <path class="cls-2" d="M342.33,444.21c0,5.7,4.62,10.33,10.32,10.33s10.32-4.62,10.32-10.33-4.62-10.33-10.32-10.33-10.32,4.62-10.32,10.33Z"/>
        <path class="cls-2" d="M342.33,418.25c0,5.7,4.62,10.33,10.32,10.33s10.32-4.62,10.32-10.33-4.62-10.33-10.32-10.33-10.32,4.62-10.32,10.33Z"/>
        <path class="cls-2" d="M342.33,755.79c0,5.7,4.62,10.33,10.32,10.33s10.32-4.62,10.32-10.33-4.62-10.33-10.32-10.33-10.32,4.62-10.32,10.33Z"/>
        <path class="cls-2" d="M342.33,781.75c0,5.7,4.62,10.32,10.32,10.32s10.32-4.62,10.32-10.32-4.62-10.32-10.32-10.32-10.32,4.62-10.32,10.32Z"/>
        <path class="cls-2" d="M342.33,703.86c0,5.7,4.62,10.32,10.32,10.32s10.32-4.62,10.32-10.32-4.62-10.32-10.32-10.32-10.32,4.62-10.32,10.32Z"/>
        <path class="cls-2" d="M342.33,729.82c0,5.7,4.62,10.32,10.32,10.32s10.32-4.62,10.32-10.32-4.62-10.32-10.32-10.32-10.32,4.62-10.32,10.32Z"/>
        <path class="cls-2" d="M342.33,677.89c0,5.7,4.62,10.32,10.32,10.32s10.32-4.62,10.32-10.32-4.62-10.32-10.32-10.32-10.32,4.62-10.32,10.32Z"/>
        <path class="cls-2" d="M342.33,807.72c0,5.7,4.62,10.32,10.32,10.32s10.32-4.62,10.32-10.32-4.62-10.32-10.32-10.32-10.32,4.62-10.32,10.32Z"/>
        <path class="cls-2" d="M342.33,885.61c0,5.7,4.62,10.32,10.32,10.32s10.32-4.62,10.32-10.32-4.62-10.32-10.32-10.32-10.32,4.62-10.32,10.32Z"/>
        <path class="cls-2" d="M342.33,833.68c0,5.7,4.62,10.32,10.32,10.32s10.32-4.62,10.32-10.32-4.62-10.32-10.32-10.32-10.32,4.62-10.32,10.32Z"/>
        <path class="cls-2" d="M342.33,859.64c0,5.7,4.62,10.33,10.32,10.33s10.32-4.62,10.32-10.33-4.62-10.33-10.32-10.33-10.32,4.62-10.32,10.33Z"/>
        <ellipse class="cls-2" cx="330.16" cy="716.84" rx="10.33" ry="10.32"/>
        <path class="cls-2" d="M319.84,690.88c0,5.7,4.62,10.32,10.33,10.32s10.33-4.62,10.33-10.32-4.62-10.32-10.33-10.32-10.33,4.62-10.33,10.32Z"/>
        <path class="cls-2" d="M319.84,561.05c0,5.7,4.62,10.32,10.33,10.32s10.33-4.62,10.33-10.32-4.62-10.32-10.33-10.32-10.33,4.62-10.33,10.32Z"/>
        <circle class="cls-2" cx="330.16" cy="638.95" r="10.33"/>
        <circle class="cls-2" cx="330.16" cy="742.81" r="10.33"/>
        <circle class="cls-2" cx="330.16" cy="535.09" r="10.33"/>
        <ellipse class="cls-2" cx="330.16" cy="509.13" rx="10.33" ry="10.32"/>
        <path class="cls-2" d="M319.84,483.16c0,5.7,4.62,10.32,10.33,10.32s10.33-4.62,10.33-10.32-4.62-10.32-10.33-10.32-10.33,4.62-10.33,10.32Z"/>
        <path class="cls-2" d="M319.84,405.27c0,5.7,4.62,10.32,10.33,10.32s10.33-4.62,10.33-10.32-4.62-10.32-10.33-10.32-10.33,4.62-10.33,10.32Z"/>
        <circle class="cls-2" cx="330.16" cy="327.37" r="10.33"/>
        <path class="cls-2" d="M319.84,353.34c0,5.7,4.62,10.33,10.33,10.33s10.33-4.62,10.33-10.33-4.62-10.33-10.33-10.33-10.33,4.62-10.33,10.33Z"/>
        <path class="cls-2" d="M387.3,729.82c0,5.7,4.62,10.32,10.33,10.32s10.33-4.62,10.33-10.32-4.62-10.32-10.33-10.32-10.33,4.62-10.33,10.32Z"/>
        <ellipse class="cls-2" cx="397.63" cy="366.32" rx="10.33" ry="10.32"/>
        <circle class="cls-2" cx="397.63" cy="340.36" r="10.33"/>
        <circle class="cls-2" cx="397.63" cy="755.79" r="10.33"/>
        <path class="cls-2" d="M387.3,392.28c0,5.7,4.62,10.32,10.33,10.32s10.33-4.62,10.33-10.32-4.62-10.32-10.33-10.32-10.33,4.62-10.33,10.32Z"/>
        <path class="cls-2" d="M387.3,781.75c0,5.7,4.62,10.32,10.33,10.32s10.33-4.62,10.33-10.32-4.62-10.32-10.33-10.32-10.33,4.62-10.33,10.32Z"/>
        <path class="cls-2" d="M387.3,807.72c0,5.7,4.62,10.32,10.33,10.32s10.33-4.62,10.33-10.32-4.62-10.32-10.33-10.32-10.33,4.62-10.33,10.32Z"/>
        <path class="cls-2" d="M364.81,690.88c0,5.7,4.63,10.32,10.33,10.32s10.33-4.62,10.33-10.32-4.63-10.32-10.33-10.32-10.33,4.62-10.33,10.32Z"/>
        <path class="cls-2" d="M364.81,794.74c0,5.7,4.63,10.32,10.33,10.32s10.33-4.62,10.33-10.32-4.63-10.32-10.33-10.32-10.33,4.62-10.33,10.32Z"/>
        <path class="cls-2" d="M364.81,716.84c0,5.7,4.63,10.32,10.33,10.32s10.33-4.62,10.33-10.32-4.63-10.32-10.33-10.32-10.33,4.62-10.33,10.32Z"/>
        <path class="cls-2" d="M364.81,742.81c0,5.7,4.63,10.33,10.33,10.33s10.33-4.62,10.33-10.33-4.63-10.33-10.33-10.33-10.33,4.62-10.33,10.33Z"/>
        <path class="cls-2" d="M364.81,768.77c0,5.7,4.63,10.32,10.33,10.32s10.33-4.62,10.33-10.32-4.63-10.32-10.33-10.32-10.33,4.62-10.33,10.32Z"/>
        <path class="cls-2" d="M364.81,820.7c0,5.7,4.63,10.32,10.33,10.32s10.33-4.62,10.33-10.32-4.63-10.32-10.33-10.32-10.33,4.62-10.33,10.32Z"/>
        <path class="cls-2" d="M364.81,509.13c0,5.7,4.63,10.32,10.33,10.32s10.33-4.62,10.33-10.32-4.63-10.32-10.33-10.32-10.33,4.62-10.33,10.32Z"/>
        <path class="cls-2" d="M364.81,353.34c0,5.7,4.63,10.33,10.33,10.33s10.33-4.62,10.33-10.33-4.63-10.33-10.33-10.33-10.33,4.62-10.33,10.33Z"/>
        <path class="cls-2" d="M364.81,457.19c0,5.7,4.62,10.33,10.33,10.33s10.32-4.62,10.32-10.33-4.62-10.33-10.32-10.33-10.33,4.62-10.33,10.33Z"/>
        <path class="cls-2" d="M364.81,431.23c0,5.7,4.62,10.33,10.33,10.33s10.32-4.62,10.32-10.33-4.62-10.33-10.32-10.33-10.33,4.62-10.33,10.33Z"/>
        <path class="cls-2" d="M342.33,340.36c0,5.7,4.62,10.33,10.33,10.33s10.32-4.62,10.32-10.33-4.62-10.33-10.32-10.33-10.33,4.62-10.33,10.33Z"/>
        <path class="cls-2" d="M274.86,405.27c0,5.7,4.62,10.33,10.32,10.33s10.33-4.62,10.33-10.33-4.62-10.33-10.33-10.33-10.32,4.62-10.32,10.33Z"/>
        <circle class="cls-2" cx="577.51" cy="574.04" r="10.33"/>
        <path class="cls-2" d="M612.16,444.21c0,5.7,4.62,10.33,10.33,10.33s10.32-4.62,10.32-10.33-4.62-10.33-10.32-10.33-10.33,4.62-10.33,10.33Z"/>
        <path class="cls-2" d="M522.21,496.14c0,5.7,4.62,10.33,10.32,10.33s10.33-4.62,10.33-10.33-4.62-10.33-10.33-10.33-10.32,4.62-10.32,10.33Z"/>
        <circle class="cls-2" cx="1072.21" cy="496.14" r="10.33"/>
        <path class="cls-2" d="M364.81,846.66c0,5.7,4.62,10.33,10.33,10.33s10.32-4.62,10.32-10.33-4.62-10.33-10.32-10.33-10.33,4.62-10.33,10.33Z"/>
      </g>
      <g>
        <path class="cls-2" d="M657.13,574.04c0,5.7,4.63,10.32,10.33,10.32s10.33-4.62,10.33-10.32-4.63-10.32-10.33-10.32-10.33,4.62-10.33,10.32Z"/>
        <path class="cls-2" d="M657.13,600c0,5.7,4.63,10.32,10.33,10.32s10.33-4.62,10.33-10.32-4.63-10.32-10.33-10.32-10.33,4.62-10.33,10.32Z"/>
        <path class="cls-2" d="M657.13,729.82c0,5.7,4.63,10.32,10.33,10.32s10.33-4.62,10.33-10.32-4.63-10.32-10.33-10.32-10.33,4.62-10.33,10.32Z"/>
        <path class="cls-2" d="M657.13,677.89c0,5.7,4.63,10.32,10.33,10.32s10.33-4.62,10.33-10.32-4.63-10.32-10.33-10.32-10.33,4.62-10.33,10.32Z"/>
        <path class="cls-2" d="M657.13,703.86c0,5.7,4.63,10.32,10.33,10.32s10.33-4.62,10.33-10.32-4.63-10.32-10.33-10.32-10.33,4.62-10.33,10.32Z"/>
        <path class="cls-2" d="M657.13,625.96c0,5.7,4.63,10.32,10.33,10.32s10.33-4.62,10.33-10.32-4.63-10.32-10.33-10.32-10.33,4.62-10.33,10.32Z"/>
        <path class="cls-2" d="M657.13,651.93c0,5.7,4.63,10.33,10.33,10.33s10.33-4.62,10.33-10.33-4.63-10.33-10.33-10.33-10.33,4.62-10.33,10.33Z"/>
        <path class="cls-2" d="M657.13,755.79c0,5.7,4.63,10.33,10.33,10.33s10.33-4.62,10.33-10.33-4.63-10.33-10.33-10.33-10.33,4.62-10.33,10.33Z"/>
        <path class="cls-2" d="M657.13,781.75c0,5.7,4.63,10.32,10.33,10.32s10.33-4.62,10.33-10.32-4.63-10.32-10.33-10.32-10.33,4.62-10.33,10.32Z"/>
        <path class="cls-2" d="M612.16,781.75c0,5.7,4.62,10.32,10.32,10.32s10.32-4.62,10.32-10.32-4.62-10.32-10.32-10.32-10.32,4.62-10.32,10.32Z"/>
        <path class="cls-2" d="M634.65,742.81c0,5.7,4.62,10.33,10.32,10.33s10.32-4.62,10.32-10.33-4.62-10.33-10.32-10.33-10.32,4.62-10.32,10.33Z"/>
        <path class="cls-2" d="M634.65,768.77c0,5.7,4.62,10.32,10.32,10.32s10.32-4.62,10.32-10.32-4.62-10.32-10.32-10.32-10.32,4.62-10.32,10.32Z"/>
        <path class="cls-2" d="M634.65,716.84c0,5.7,4.62,10.32,10.32,10.32s10.32-4.62,10.32-10.32-4.62-10.32-10.32-10.32-10.32,4.62-10.32,10.32Z"/>
        <path class="cls-2" d="M634.65,794.74c0,5.7,4.62,10.32,10.32,10.32s10.32-4.62,10.32-10.32-4.62-10.32-10.32-10.32-10.32,4.62-10.32,10.32Z"/>
        <path class="cls-2" d="M634.65,664.91c0,5.7,4.62,10.32,10.32,10.32s10.32-4.62,10.32-10.32-4.62-10.32-10.32-10.32-10.32,4.62-10.32,10.32Z"/>
        <path class="cls-2" d="M634.65,690.88c0,5.7,4.62,10.32,10.32,10.32s10.32-4.62,10.32-10.32-4.62-10.32-10.32-10.32-10.32,4.62-10.32,10.32Z"/>
        <path class="cls-2" d="M634.65,638.95c0,5.7,4.62,10.33,10.32,10.33s10.32-4.62,10.32-10.33-4.62-10.33-10.32-10.33-10.32,4.62-10.32,10.33Z"/>
        <path class="cls-2" d="M634.65,561.05c0,5.7,4.62,10.32,10.32,10.32s10.32-4.62,10.32-10.32-4.62-10.32-10.32-10.32-10.32,4.62-10.32,10.32Z"/>
        <path class="cls-2" d="M634.65,612.98c0,5.7,4.62,10.32,10.32,10.32s10.32-4.62,10.32-10.32-4.62-10.32-10.32-10.32-10.32,4.62-10.32,10.32Z"/>
        <path class="cls-2" d="M724.6,587.02c0,5.7,4.62,10.32,10.32,10.32s10.32-4.62,10.32-10.32-4.62-10.32-10.32-10.32-10.32,4.62-10.32,10.32Z"/>
        <path class="cls-2" d="M724.6,638.95c0,5.7,4.62,10.33,10.32,10.33s10.32-4.62,10.32-10.33-4.62-10.33-10.32-10.33-10.32,4.62-10.32,10.33Z"/>
        <path class="cls-2" d="M724.6,612.98c0,5.7,4.62,10.32,10.32,10.32s10.32-4.62,10.32-10.32-4.62-10.32-10.32-10.32-10.32,4.62-10.32,10.32Z"/>
        <path class="cls-2" d="M747.08,600c0,5.7,4.63,10.32,10.33,10.32s10.33-4.62,10.33-10.32-4.63-10.32-10.33-10.32-10.33,4.62-10.33,10.32Z"/>
        <path class="cls-2" d="M612.16,755.79c0,5.7,4.62,10.33,10.32,10.33s10.32-4.62,10.32-10.33-4.62-10.33-10.32-10.33-10.32,4.62-10.32,10.33Z"/>
        <path class="cls-2" d="M679.61,664.91c0,5.7,4.63,10.32,10.33,10.32s10.33-4.62,10.33-10.32-4.63-10.32-10.33-10.32-10.33,4.62-10.33,10.32Z"/>
        <path class="cls-2" d="M679.61,561.05c0,5.7,4.63,10.32,10.33,10.32s10.33-4.62,10.33-10.32-4.63-10.32-10.33-10.32-10.33,4.62-10.33,10.32Z"/>
        <path class="cls-2" d="M679.61,587.02c0,5.7,4.63,10.32,10.33,10.32s10.33-4.62,10.33-10.32-4.63-10.32-10.33-10.32-10.33,4.62-10.33,10.32Z"/>
        <path class="cls-2" d="M679.61,612.98c0,5.7,4.63,10.32,10.33,10.32s10.33-4.62,10.33-10.32-4.63-10.32-10.33-10.32-10.33,4.62-10.33,10.32Z"/>
        <path class="cls-2" d="M679.61,690.88c0,5.7,4.63,10.32,10.33,10.32s10.33-4.62,10.33-10.32-4.63-10.32-10.33-10.32-10.33,4.62-10.33,10.32Z"/>
        <path class="cls-2" d="M679.61,638.95c0,5.7,4.63,10.33,10.33,10.33s10.33-4.62,10.33-10.33-4.63-10.33-10.33-10.33-10.33,4.62-10.33,10.33Z"/>
        <path class="cls-2" d="M679.61,716.84c0,5.7,4.63,10.32,10.33,10.32s10.33-4.62,10.33-10.32-4.63-10.32-10.33-10.32-10.33,4.62-10.33,10.32Z"/>
        <path class="cls-2" d="M702.11,755.79c0,5.7,4.62,10.33,10.32,10.33s10.32-4.62,10.32-10.33-4.62-10.33-10.32-10.33-10.32,4.62-10.32,10.33Z"/>
        <path class="cls-2" d="M702.11,574.04c0,5.7,4.62,10.32,10.32,10.32s10.32-4.62,10.32-10.32-4.62-10.32-10.32-10.32-10.32,4.62-10.32,10.32Z"/>
        <path class="cls-2" d="M702.11,677.89c0,5.7,4.62,10.32,10.32,10.32s10.32-4.62,10.32-10.32-4.62-10.32-10.32-10.32-10.32,4.62-10.32,10.32Z"/>
        <path class="cls-2" d="M702.11,625.96c0,5.7,4.62,10.32,10.32,10.32s10.32-4.62,10.32-10.32-4.62-10.32-10.32-10.32-10.32,4.62-10.32,10.32Z"/>
        <path class="cls-2" d="M702.11,600c0,5.7,4.62,10.32,10.32,10.32s10.32-4.62,10.32-10.32-4.62-10.32-10.32-10.32-10.32,4.62-10.32,10.32Z"/>
        <path class="cls-2" d="M702.11,651.93c0,5.7,4.62,10.33,10.32,10.33s10.32-4.62,10.32-10.33-4.62-10.33-10.32-10.33-10.32,4.62-10.32,10.33Z"/>
        <path class="cls-2" d="M522.22,677.89c0,5.7,4.62,10.32,10.32,10.32s10.32-4.62,10.32-10.32-4.62-10.32-10.32-10.32-10.32,4.62-10.32,10.32Z"/>
        <path class="cls-2" d="M544.71,690.88c0,5.7,4.62,10.32,10.32,10.32s10.32-4.62,10.32-10.32-4.62-10.32-10.32-10.32-10.32,4.62-10.32,10.32Z"/>
        <path class="cls-2" d="M544.71,612.98c0,5.7,4.62,10.32,10.32,10.32s10.32-4.62,10.32-10.32-4.62-10.32-10.32-10.32-10.32,4.62-10.32,10.32Z"/>
        <path class="cls-2" d="M544.71,638.95c0,5.7,4.62,10.33,10.32,10.33s10.32-4.62,10.32-10.33-4.62-10.33-10.32-10.33-10.32,4.62-10.32,10.33Z"/>
        <path class="cls-2" d="M544.71,664.91c0,5.7,4.62,10.32,10.32,10.32s10.32-4.62,10.32-10.32-4.62-10.32-10.32-10.32-10.32,4.62-10.32,10.32Z"/>
        <path class="cls-2" d="M544.71,587.02c0,5.7,4.62,10.32,10.32,10.32s10.32-4.62,10.32-10.32-4.62-10.32-10.32-10.32-10.32,4.62-10.32,10.32Z"/>
        <path class="cls-2" d="M522.22,651.93c0,5.7,4.62,10.33,10.32,10.33s10.32-4.62,10.32-10.33-4.62-10.33-10.32-10.33-10.32,4.62-10.32,10.33Z"/>
        <path class="cls-2" d="M522.22,625.96c0,5.7,4.62,10.32,10.32,10.32s10.32-4.62,10.32-10.32-4.62-10.32-10.32-10.32-10.32,4.62-10.32,10.32Z"/>
        <path class="cls-2" d="M589.67,690.88c0,5.7,4.62,10.32,10.33,10.32s10.33-4.62,10.33-10.32-4.62-10.32-10.33-10.32-10.33,4.62-10.33,10.32Z"/>
        <circle class="cls-2" cx="600" cy="638.95" r="10.33"/>
        <ellipse class="cls-2" cx="600" cy="612.98" rx="10.33" ry="10.32"/>
        <path class="cls-2" d="M589.67,664.91c0,5.7,4.62,10.32,10.33,10.32s10.33-4.62,10.33-10.32-4.62-10.32-10.33-10.32-10.33,4.62-10.33,10.32Z"/>
        <path class="cls-2" d="M612.16,651.93c0,5.7,4.62,10.33,10.32,10.33s10.32-4.62,10.32-10.33-4.62-10.33-10.32-10.33-10.32,4.62-10.32,10.33Z"/>
        <path class="cls-2" d="M612.16,600c0,5.7,4.62,10.32,10.32,10.32s10.32-4.62,10.32-10.32-4.62-10.32-10.32-10.32-10.32,4.62-10.32,10.32Z"/>
        <path class="cls-2" d="M612.16,677.89c0,5.7,4.62,10.32,10.32,10.32s10.32-4.62,10.32-10.32-4.62-10.32-10.32-10.32-10.32,4.62-10.32,10.32Z"/>
        <path class="cls-2" d="M612.16,703.86c0,5.7,4.62,10.32,10.32,10.32s10.32-4.62,10.32-10.32-4.62-10.32-10.32-10.32-10.32,4.62-10.32,10.32Z"/>
        <path class="cls-2" d="M612.16,625.96c0,5.7,4.62,10.32,10.32,10.32s10.32-4.62,10.32-10.32-4.62-10.32-10.32-10.32-10.32,4.62-10.32,10.32Z"/>
        <path class="cls-2" d="M567.19,600c0,5.7,4.62,10.32,10.33,10.32s10.33-4.62,10.33-10.32-4.62-10.32-10.33-10.32-10.33,4.62-10.33,10.32Z"/>
        <circle class="cls-2" cx="577.51" cy="651.93" r="10.33"/>
        <ellipse class="cls-2" cx="577.51" cy="677.89" rx="10.33" ry="10.32"/>
        <path class="cls-2" d="M567.19,625.96c0,5.7,4.62,10.32,10.33,10.32s10.33-4.62,10.33-10.32-4.62-10.32-10.33-10.32-10.33,4.62-10.33,10.32Z"/>
        <path class="cls-2" d="M612.16,729.82c0,5.7,4.62,10.32,10.32,10.32s10.32-4.62,10.32-10.32-4.62-10.32-10.32-10.32-10.32,4.62-10.32,10.32Z"/>
        <path class="cls-2" d="M769.56,612.98c0,5.7,4.63,10.32,10.33,10.32s10.33-4.62,10.33-10.32-4.63-10.32-10.33-10.32-10.33,4.62-10.33,10.32Z"/>
        <path class="cls-2" d="M769.56,587.02c0,5.7,4.63,10.32,10.33,10.32s10.33-4.62,10.33-10.32-4.63-10.32-10.33-10.32-10.33,4.62-10.33,10.32Z"/>
      </g>
    </g>
  </g>
</svg>