<svg width="65" height="60" xmlns="http://www.w3.org/2000/svg">
 <style type="text/css">.st0{fill:#A3238F;}
	.st1{fill:#4D207A;}
	.st2{fill:#009DCA;}
	.st3{fill:#2DBCB6;}
	.st4{fill:#005BAA;}</style>

 <g>
  <title>background</title>
  <rect fill="none" id="canvas_background" height="62" width="67" y="-1" x="-1"/>
 </g>
 <g>
  <title>Layer 1</title>
  <path id="svg_1" d="m45.2,11.846819l0,1.8c0,0.6 -0.5,1 -1,1c-0.6,0 -1,-0.5 -1,-1l0,-1.8l0,-1.8c0,-0.6 0.5,-1 1,-1c0.6,0 1,0.5 1,1l0,1.8zm-24.8,0l0,1.8c0,0.6 -0.5,1 -1,1c-0.6,0 -1,-0.5 -1,-1l0,-1.8l0,-1.8c0,-0.6 0.5,-1 1,-1c0.6,0 1,0.5 1,1l0,1.8zm-1,5.6c2.1,0 3.8,-1.7 3.8,-3.8l0,-0.4l17.2,0l0,0.4c0,2.1 1.7,3.8 3.8,3.8c2.1,0 3.8,-1.7 3.8,-3.8l0,-0.4c2.5,0.1 4.4,2.1 4.4,4.6l0,3.6l-41.2,0l0,-3.6c0,-2.5 2,-4.5 4.5,-4.6l0,0.4c-0.1,2.1 1.6,3.8 3.7,3.8m-8.3,6.8l41.2,0l0,12.6c0,2 -1.6,3.6 -3.6,3.6l-5,0c-0.8,0 -1.4,0.6 -1.4,1.4l0,5c0,2 -1.6,3.6 -3.6,3.6l-23,0c-2.5,0 -4.6,-2.1 -4.6,-4.6l0,-21.6zm41.3,18.2c0,0.1 0,0.3 0,0.4c0,0.2 0,0.3 -0.1,0.5c0,0.1 0,0.2 -0.1,0.4c0,0.2 -0.1,0.3 -0.1,0.5c0,0.1 -0.1,0.2 -0.1,0.3c0,0.2 -0.1,0.3 -0.2,0.5c0,0.1 -0.1,0.2 -0.1,0.3c-0.1,0.2 -0.1,0.3 -0.2,0.4c0,0.1 -0.1,0.2 -0.1,0.3c-0.1,0.2 -0.2,0.3 -0.3,0.4c-0.1,0.1 -0.1,0.2 -0.2,0.3c-0.1,0.2 -0.2,0.3 -0.3,0.5c-0.1,0.1 -0.1,0.1 -0.2,0.2c-0.3,0.4 -0.7,0.8 -1.2,1.1c-0.1,0.1 -0.1,0.1 -0.2,0.2c-0.1,0.1 -0.3,0.2 -0.4,0.3c-0.1,0.1 -0.2,0.1 -0.3,0.2c-0.1,0.1 -0.3,0.2 -0.4,0.3c-0.1,0.1 -0.2,0.1 -0.3,0.2c-0.1,0.1 -0.3,0.1 -0.4,0.2c-0.1,0 -0.2,0.1 -0.3,0.1c-0.1,0.1 -0.3,0.1 -0.4,0.2c-0.1,0 -0.2,0.1 -0.4,0.1c-0.1,0 -0.3,0.1 -0.4,0.1c-0.1,0 -0.3,0 -0.4,0.1c-0.2,0 -0.3,0.1 -0.5,0.1c-0.1,0 -0.3,0 -0.4,0c-0.1,0 -0.2,0 -0.3,0c0.7,-1.1 1.1,-2.3 1.1,-3.6l0,-3.6l3.6,0c1.3,0 2.6,-0.4 3.6,-1.1c0,-0.1 0,0 0,0.1m-4.5,-32l0,-0.4c0,-2.1 -1.7,-3.8 -3.8,-3.8c-2.1,0 -3.8,1.7 -3.8,3.8l0,0.4l-17.2,0l0,-0.4c0,-2.1 -1.7,-3.8 -3.8,-3.8c-2.1,0 -3.8,1.7 -3.8,3.8l0,0.4c-4,0.1 -7.2,3.4 -7.2,7.4l0,5l0,23c0,4.1 3.3,7.4 7.4,7.4l23,0l5,0c6.3,0 11.4,-5.1 11.4,-11.4l0,-5l0,-14l0,-5c0,-4 -3.2,-7.3 -7.2,-7.4" class="st4"/>
  <path id="svg_2" d="m35.5,33.746819c1.5,0 2.1,1.8 2.1,3.6c0,1.8 -0.7,3.6 -2.1,3.6s-2.1,-1.8 -2.1,-3.6c0,-1.8 0.6,-3.6 2.1,-3.6m0,10c2.9,0 4.9,-2.6 4.9,-6.4s-2,-6.4 -4.9,-6.4s-4.9,2.6 -4.9,6.4s2,6.4 4.9,6.4" class="st4"/>
  <path id="svg_3" d="m25.1,35.546819l0,5.4l-0.1,0c-0.8,0 -1.4,0.6 -1.4,1.4c0,0.8 0.6,1.4 1.4,1.4l3,0c0.8,0 1.4,-0.6 1.4,-1.4c0,-0.8 -0.6,-1.4 -1.4,-1.4l-0.1,0l0,-8.6c0,-0.5 -0.2,-0.9 -0.6,-1.1c-0.5,-0.4 -1.3,-0.3 -1.8,0.2l-2,2c-0.5,0.5 -0.5,1.4 0,2c0.5,0.3 1.1,0.4 1.6,0.1" class="st4"/>
 </g>
</svg>