<svg width="65" height="60" xmlns="http://www.w3.org/2000/svg">
 <style type="text/css">.st0{fill:#A3238F;}
	.st1{fill:#4D207A;}
	.st2{fill:#009DCA;}
	.st3{fill:#2DBCB6;}
	.st4{fill:#005BAA;}</style>

 <g>
  <title>background</title>
  <rect fill="none" id="canvas_background" height="62" width="67" y="-1" x="-1"/>
 </g>
 <g>
  <title>Layer 1</title>
  <path id="svg_1" d="m39.9,36.2l3.5,0l0,3.6l-3.5,0l0,-3.6zm-0.7,6.8l4.9,0c1.3,0 2.4,-1.1 2.4,-2.4l0,-5.1c0,-1.3 -1.1,-2.4 -2.4,-2.4l-4.9,0c-1.3,0 -2.4,1.1 -2.4,2.4l0,5.1c0,1.4 1.1,2.4 2.4,2.4" class="st3"/>
  <path id="svg_2" d="m49.8,52.9l-15.8,0l0,-17.2c0,-1.4 -1.2,-2.6 -2.6,-2.6l-8.5,0c-1.4,0 -2.6,1.2 -2.6,2.6l0,17.2l-4,0l0,-18.6l16.2,-16.2c0.1,-0.1 0.2,-0.1 0.3,-0.1c0.1,0 0.2,0 0.3,0.1l16.6,16.6l0,18.2l0.1,0zm-18.9,0l-7.3,0l0,-16.6l7.3,0l0,16.6zm-20.8,-16.9c-0.1,0.1 -0.2,0.1 -0.3,0.1c-0.1,0 -0.2,0 -0.3,-0.1l-1.9,-1.9c-0.1,-0.1 -0.1,-0.2 -0.1,-0.3s0,-0.2 0.1,-0.3l24.9,-24.9c0.1,-0.1 0.2,-0.1 0.3,-0.1c0.1,0 0.2,0 0.3,0.1l24.9,24.9c0.1,0.1 0.1,0.2 0.1,0.3c0,0.1 0,0.2 -0.1,0.3l-1.9,1.9c-0.1,0.1 -0.2,0.1 -0.3,0.1s-0.2,0 -0.3,-0.1l-20.2,-20.2c-0.7,-0.7 -1.6,-1 -2.5,-1c-1,0 -1.9,0.4 -2.5,1l-20.2,20.2zm43.3,2.3c0.7,0.7 1.6,1 2.5,1c1,0 1.9,-0.4 2.5,-1l1.9,-1.9c1.4,-1.4 1.4,-3.7 0,-5.1l-11.9,-11.9l0,-9.3l-3.2,0l0,6.1l-9.8,-9.8c-0.7,-0.7 -1.6,-1 -2.5,-1c-1,0 -1.9,0.4 -2.5,1l-24.9,24.9c-1.4,1.4 -1.4,3.7 0,5.1l1.9,1.9c0.7,0.7 1.6,1 2.5,1c1,0 1.9,-0.4 2.5,-1l0.8,-0.8l0,15.4l-5.2,0c-0.9,0 -1.6,0.7 -1.6,1.6c0,0.9 0.7,1.6 1.6,1.6l50.2,0c0.9,0 1.6,-0.7 1.6,-1.6c0,-0.9 -0.7,-1.6 -1.6,-1.6l-5.2,0l0,-15.1l0.4,0.5z" class="st3"/>
 </g>
</svg>