<svg width="65" height="60" xmlns="http://www.w3.org/2000/svg">
 <style type="text/css">.st0{fill:#A3238F;}
	.st1{fill:#4D207A;}
	.st2{fill:#009DCA;}
	.st3{fill:#2DBCB6;}
	.st4{fill:#005BAA;}</style>

 <g>
  <title>background</title>
  <rect fill="none" id="canvas_background" height="62" width="67" y="-1" x="-1"/>
 </g>
 <g>
  <title>Layer 1</title>
  <path id="svg_1" d="m45.2,13.5c3.7,0 6.7,3 6.7,6.7c0,3.7 -3,6.7 -6.7,6.7c-3.7,0 -6.7,-3 -6.7,-6.7c0,-3.7 3,-6.7 6.7,-6.7m0,16.5c5.4,0 9.8,-4.4 9.8,-9.8c0,-5.4 -4.4,-9.8 -9.8,-9.8c-5.4,0 -9.8,4.4 -9.8,9.8c0,5.4 4.4,9.8 9.8,9.8" class="st0"/>
  <path id="svg_2" d="m13.2,38.7c0,-0.1 0.2,-0.5 0.2,-0.6l8.3,-7.3l8.3,7.3c0.1,0.1 0.2,0.4 0.3,0.6l0,8.7l-17.1,0l0,-8.7zm32,-32.7c7.6,0 13.8,6.2 13.8,13.8c0,10 -13.1,26.4 -13.3,26.6c0,0 -0.1,0.1 -0.1,0.1c-0.2,0.4 -0.4,0.4 -0.5,0.4c-0.1,0 -0.2,-0.1 -0.5,-0.4c0,0 -0.1,-0.1 -0.1,-0.1c-0.1,-0.1 -5.6,-7 -9.5,-14.6c0,0 0,-0.1 -0.1,-0.1c-2.1,-4.1 -3.7,-8.4 -3.7,-11.8c0.2,-7.6 6.4,-13.9 14,-13.9m15.5,41.4l-11.6,0c3,-3.9 13.2,-17.9 13.2,-27.5c0,-9.4 -7.6,-17 -17,-17c-9.4,0 -17,7.6 -17,17c0,2.1 0.5,4.5 1.3,6.8l-6.7,-5.9c-0.6,-0.5 -1.5,-0.5 -2.1,0l-16.1,14.3c-0.7,0.6 -0.7,1.6 -0.1,2.2c0.3,0.4 0.7,0.5 1.2,0.5c0.4,0 0.8,-0.1 1.1,-0.4l15.1,-13.4l10.7,9.3c3.2,6.1 7.2,11.7 8.9,13.9l-7.9,0l0,-8.7c0,-1 -0.5,-2.2 -1.3,-2.9l-8.5,-7.5c-1,-0.9 -2.6,-0.9 -3.7,0l-8.5,7.5c-0.8,0.7 -1.3,1.9 -1.3,2.9l0,8.7l-5.1,0c-0.9,0 -1.6,0.7 -1.6,1.6s0.7,1.6 1.6,1.6l55.8,0c0.9,0 1.6,-0.7 1.6,-1.6s-1.2,-1.4 -2,-1.4" class="st0"/>
 </g>
</svg>