<svg width="68" height="60" xmlns="http://www.w3.org/2000/svg">
 <style type="text/css">.st0{fill:#A3238F;}
	.st1{fill:#4D207A;}
	.st2{fill:#009DCA;}
	.st3{fill:#2DBCB6;}
	.st4{fill:#005BAA;}</style>

 <g>
  <title>background</title>
  <rect fill="none" id="canvas_background" height="62" width="70" y="-1" x="-1"/>
 </g>
 <g>
  <title>Layer 1</title>
  <path id="svg_1" d="m61,42.8c0,0.1 0,0.1 0,0l-3.6,0.1c-1,-2.5 -3.4,-4.3 -6.2,-4.3s-5.2,1.8 -6.2,4.3l-3.3,0l0,-23.5l9.2,0c0.4,0 1.1,0.4 1.4,0.8l8.1,10.3c0.1,0.2 0.5,0.8 0.5,1.4l0,10.9l0.1,0zm-9.9,6c-1.9,0 -3.5,-1.6 -3.5,-3.5c0,-1.9 1.6,-3.5 3.5,-3.5s3.5,1.6 3.5,3.5c0,1.9 -1.6,3.5 -3.5,3.5m-12.6,-5.9l-3.5,0c-1,-2.5 -3.4,-4.3 -6.2,-4.3c-2.8,0 -5.2,1.8 -6.2,4.3l-0.1,0c-1,-2.5 -3.4,-4.3 -6.2,-4.3c-2.8,0 -5.2,1.8 -6.2,4.3l-3.6,0l0,-30.2l32,0l0,30.2zm-9.7,5.9c-1.9,0 -3.5,-1.6 -3.5,-3.5c0,-1.9 1.6,-3.5 3.5,-3.5c1.9,0 3.5,1.6 3.5,3.5c0,1.9 -1.5,3.5 -3.5,3.5m-12.5,0c-1.9,0 -3.5,-1.6 -3.5,-3.5c0,-1.9 1.6,-3.5 3.5,-3.5c1.9,0 3.5,1.6 3.5,3.5c0,1.9 -1.5,3.5 -3.5,3.5m46.6,-20.3l-8.1,-10.3c-0.8,-1.2 -2.5,-2 -4,-2l-9.2,0l0,-5.1c0,-0.9 -0.7,-1.6 -1.6,-1.6l-35,0c-0.9,0 -1.6,0.7 -1.6,1.6l0,33.4c0,0.9 0.7,1.6 1.6,1.6l4.8,0c0.4,3.3 3.2,5.8 6.6,5.8c2.9,0 5.3,-1.9 6.3,-4.4c0.9,2.6 3.4,4.4 6.3,4.4c3.4,0 6.2,-2.6 6.6,-5.8l4.7,0l4.5,0c0.4,3.3 3.2,5.8 6.6,5.8c3.4,0 6.2,-2.6 6.6,-5.8l3.8,0c1.2,0 2.6,-0.6 2.6,-3.3l0,-10.9c-0.3,-1.8 -1.4,-3.2 -1.5,-3.4" class="st2"/>
  <path id="svg_2" d="m48.4,30.1l0,-3.7l2.1,0l2.9,3.7l-5,0zm3.6,-5.7c-0.2,-0.3 -0.6,-0.5 -0.9,-0.5l-3.8,0c-0.7,0 -1.2,0.5 -1.2,1.2l0,6.1c0,0.7 0.5,1.2 1.2,1.2l8.6,0c0.5,0 0.9,-0.3 1.1,-0.7c0.2,-0.4 0.1,-0.9 -0.1,-1.3l-4.9,-6z" class="st2"/>
  <rect id="svg_3" height="18.9" width="3.2" class="st2" y="18.4" x="20.7"/>
  <rect id="svg_4" height="18.9" width="3.2" class="st2" y="18.4" x="12.9"/>
  <rect id="svg_5" height="18.9" width="3.2" class="st2" y="18.4" x="28.6"/>
 </g>
</svg>