<svg width="65" height="60" xmlns="http://www.w3.org/2000/svg">
 <style type="text/css">
	.st1{fill:#4D207A;}
</style>

 <g>
  <title>background</title>
  <rect fill="none" id="canvas_background" height="62" width="67" y="-1" x="-1"/>
 </g>
 <g>
  <title>Layer 1</title>
  <path id="svg_1" d="m44.8,55.7c-13,-3.6 -15,-23.5 -15.3,-29.2c1.7,-0.1 4.5,-0.5 8,-1.7c3.8,-1.3 6.1,-2.6 7.3,-3.3c1.2,0.8 3.6,2 7.3,3.3c3.5,1.2 6.3,1.6 8,1.7c-0.2,5.7 -2.2,25.6 -15.3,29.2m-34.2,-10.1l0,-32.3l5.2,-1.3l0,9.3c0,0.4 0.2,0.9 0.5,1.2c0.3,0.3 0.7,0.4 1.1,0.4c0.1,0 0.1,0 0.2,0l8,-0.8c0.8,-0.1 1.4,-0.8 1.4,-1.6l0,-11.3l5.6,-1.4l21.9,5.5l0,8.8c-0.4,-0.1 -0.8,-0.2 -1.1,-0.4c-5.1,-1.8 -7.4,-3.5 -7.4,-3.5c-0.6,-0.5 -1.4,-0.4 -2,0c0,0 -2.3,1.7 -7.4,3.5c-4.1,1.4 -7.1,1.6 -8.2,1.6c-0.2,0 -0.3,0 -0.3,0c-0.4,0 -0.9,0.1 -1.2,0.4c-0.3,0.3 -0.5,0.7 -0.5,1.2c0,0.3 0,7.3 2.2,15c0.6,2 1.2,3.9 2,5.6l-20,0l0,0.1zm8.3,-34.4l4.8,-1.2l0,9.1l-4.8,0.5l0,-8.4zm44,12.6c-0.3,-0.3 -0.8,-0.5 -1.2,-0.4c0,0 -0.1,0 -0.3,0c-0.7,0 -2,-0.1 -3.9,-0.4l0,-10.9c0,-0.7 -0.5,-1.4 -1.2,-1.5l-23.5,-5.9c-0.3,-0.1 -0.5,-0.1 -0.8,0l-23.5,5.9c-0.7,0.2 -1.2,0.8 -1.2,1.5l0,35.1c0,0.9 0.7,1.6 1.6,1.6l23.1,0c3.1,5.4 7.3,8.8 12.4,10.1c0.1,0 0.3,0 0.4,0c0.1,0 0.3,0 0.4,0c7.5,-1.9 13.1,-8.4 16,-18.9c2.2,-7.7 2.2,-14.7 2.2,-15c0,-0.5 -0.2,-0.9 -0.5,-1.2" class="st1"/>
  <path id="svg_2" d="m39.4,36.1c-0.6,-0.6 -1.6,-0.7 -2.2,0c-0.6,0.6 -0.7,1.6 0,2.2l6.1,6.3c0.3,0.3 0.7,0.5 1.1,0.5c0.4,0 0.8,-0.2 1.1,-0.5l12.3,-12.8c0.6,-0.6 0.6,-1.6 0,-2.2c-0.6,-0.6 -1.6,-0.6 -2.2,0l-11.1,11.6l-5.1,-5.1z" class="st1"/>
 </g>
</svg>