<?xml version="1.0" encoding="utf-8"?>
<!-- Generator: Adobe Illustrator 19.1.0, SVG Export Plug-In . SVG Version: 6.00 Build 0)  -->
<svg version="1.1" id="Layer_1" xmlns="http://www.w3.org/2000/svg" xmlns:xlink="http://www.w3.org/1999/xlink" x="0px" y="0px"
	 viewBox="-104 149.9 632.6 295.4" style="enable-background:new -104 149.9 632.6 295.4;" xml:space="preserve">
<style type="text/css">
	.st40{fill:#ED1C24;}
	.st41{display:none;}
	.st42{display:inline;}
	.st43{fill:#93999C;}
	.st44{fill:#E5EAEC;}
	.st45{display:inline;fill:none;stroke:#D0D0D0;stroke-width:4;stroke-miterlimit:10;}
	.st46{display:inline;fill:none;stroke:#009FE3;stroke-width:12;stroke-miterlimit:10;}
	.st47{display:inline;fill:none;stroke:#E6007E;stroke-width:12;stroke-miterlimit:10;}
</style>
<g id="clear_space">
</g>
<g id="XMLID_49_">
	<path id="XMLID_401_" class="st40" d="M-86.1,236.3c-4.1-0.1-9-3.5-9-6c0-1.3,0-3,6-3h6h19.4c0.8,0,1.5,0.7,1.5,1.5
		s-0.7,1.3-1.5,1.5C-76.7,233.1-80.3,236.4-86.1,236.3z"/>
	<path id="XMLID_400_" class="st40" d="M-41.3,436.3c-5.9,0-8.9,0-8.9,3s4.1,6,8.9,6l0,0c5.8,0,12-3,17.9-3c0,0,6.9,0,7.5,0
		c0.8,0,1.5-0.7,1.5-1.5s-0.7-1.5-1.5-1.5c-0.5,0-4.5,0-4.5,0C-27.9,439.3-32.4,436.3-41.3,436.3L-41.3,436.3z"/>
	<path id="XMLID_399_" class="st40" d="M-47.3,421.4c-5.9,0-8.9,0-8.9,3s4.1,6,8.9,6l0,0c5.8,0,12-3,17.9-3c0,0,9.9,0,10.5,0
		c0.8,0,1.5-0.7,1.5-1.5s-0.7-1.5-1.5-1.5c-0.5,0-7.5,0-7.5,0C-33.9,424.3-38.4,421.4-47.3,421.4L-47.3,421.4z"/>
	<path id="XMLID_398_" class="st40" d="M-53.3,406.4c-5.9,0-8.9,0-8.9,3s4.1,6,8.9,6l0,0c5.8,0,12-3,17.9-3c0,0,9.9,0,10.5,0
		c0.8,0,1.5-0.7,1.5-1.5s-0.7-1.5-1.5-1.5c-0.5,0-7.5,0-7.5,0C-39.9,409.4-44.4,406.4-53.3,406.4L-53.3,406.4z"/>
	<path id="XMLID_325_" class="st40" d="M-62.2,391.5c-5.9,0-8.9,0-8.9,3s4.1,6,8.9,6l0,0c5.8,0,12-3,17.9-3c0,0,9.9,0,10.5,0
		c0.8,0,1.5-0.7,1.5-1.5s-0.7-1.5-1.5-1.5c-0.5,0-7.5,0-7.5,0C-48.8,394.5-53.3,391.5-62.2,391.5L-62.2,391.5z"/>
	<path id="XMLID_66_" class="st40" d="M-71.2,376.6c-5.9,0-8.9,0-8.9,3s4.1,6,8.9,6l0,0c5.8,0,12-3,17.9-3c0,0,9.9,0,10.5,0
		c0.8,0,1.5-0.7,1.5-1.5s-0.7-1.5-1.5-1.5c-0.5,0-7.5,0-7.5,0C-57.8,379.6-62.3,376.6-71.2,376.6L-71.2,376.6z"/>
	<path id="XMLID_65_" class="st40" d="M-83.1,361.7c-5.9,0-8.9,0-8.9,3s4.1,6,8.9,6l0,0c5.8,0,12-3,17.9-3c0,0,9.9,0,10.5,0
		c0.8,0,1.5-0.7,1.5-1.5s-0.7-1.5-1.5-1.5c-0.5,0-7.5,0-7.5,0C-69.7,364.7-74.2,361.7-83.1,361.7L-83.1,361.7z"/>
	<path id="XMLID_64_" class="st40" d="M1.9,170.7c0.8,0,1.5,0.7,1.5,1.5s-0.7,1.5-1.5,1.5H-8.5c-12.7,0-15.8,3-31.5,3
		c0,0-18.7,0-22.2,0c-5.9,0-9,0-9-3s4.1-6,9-6s26.9,0,26.9,0c15.9,0,19.7,3,29.9,3H1.9z"/>
	<path id="XMLID_63_" class="st40" d="M15.4,188.6c-12.7,0-18.7,3-34.5,3c0,0-45.5,0-49,0c-5.9,0-9,0-9-3s4.1-6,9-6s56.7,0,56.7,0
		c15.9,0,19.7,3,29.9,3h7.4c0.8,0,1.5,0.7,1.5,1.5s-0.7,1.5-1.5,1.5H15.4z"/>
	<path id="XMLID_62_" class="st40" d="M37.7,200.5c0.8,0,1.5,0.7,1.5,1.5s-0.7,1.5-1.5,1.5H27.3c-12.7,0-12.8,3-28.6,3
		c0,0-75.4,0-78.9,0c-5.9,0-9,0-9-3s4.1-6,9-6s75.6,0,80.6,0c15.9,0,19.7,3,29.9,3H37.7z"/>
	<path id="XMLID_61_" class="st40" d="M49.7,215.5c0.8,0,1.5,0.7,1.5,1.5s-0.7,1.5-1.5,1.5H39.3c-12.7,0-21.7,3-37.5,3
		c0,0-22.3,0-25.1,0c-5.9,0-9.3-3-14.9-3c-6,0-9.1,3-14.9,3s-36.6,0-38.8,0c-3.3,0-6-2-6-4.5s2.7-4.5,6-4.5c2.2,0,93.5,0,98.5,0
		c15.9,0,22.6,3,32.8,3H49.7z"/>
	<path id="XMLID_60_" class="st40" d="M55.6,233.4c0.8,0,1.5-0.7,1.5-1.5s-0.7-1.5-1.5-1.5h-7.5c-12.6,0-11.1-3-26.9-3h-35.7
		c-5.9,0-8.9,0.1-8.9,3s4.1,5.9,8.9,5.9H11c15.9,0,20.9-3,37.3-3h7.3V233.4z"/>
	<path id="XMLID_59_" class="st40" d="M61.6,245.3c0.8,0,1.5,0.7,1.5,1.5s-0.7,1.5-1.5,1.5H51.1c-12.7,0-9.7,3-25.5,3h-43.1
		c-5.9,0-8.9-0.1-8.9-3s4.1-5.9,8.9-5.9h41.8c15.9,0,13.5,3,29.9,3h7.4V245.3z"/>
	<path id="XMLID_58_" class="st40" d="M73.6,275.2c0.8,0,1.5,0.7,1.5,1.5s-0.7,1.5-1.5,1.5H63.2c-12.7,0-9.7,3-25.5,3h-61
		c-5.9,0-8.9-0.1-8.9-3s4.1-5.9,8.9-5.9h56.7c15.9,0,16.5,3,32.8,3h7.4V275.2z"/>
	<path id="XMLID_57_" class="st40" d="M73.6,290.1c0.8,0,1.5,0.7,1.5,1.5s-0.7,1.5-1.5,1.5H63.2c-12.7,0-9.7,3-25.5,3h-67
		c-5.9,0-8.9-0.1-8.9-3s4.1-5.9,8.9-5.9h62.7c15.9,0,16.5,3,32.8,3h7.4V290.1z"/>
	<path id="XMLID_56_" class="st40" d="M73.6,305c0.8,0,1.5,0.7,1.5,1.5s-0.7,1.5-1.5,1.5H63.2c-12.7,0-9.7,3-25.5,3h-73
		c-5.9,0-8.9-0.1-8.9-3s4.1-5.9,8.9-5.9h68.6c15.9,0,16.5,3,32.8,3h7.5C73.6,305.1,73.6,305,73.6,305z"/>
	<path id="XMLID_55_" class="st40" d="M66.1,322.9c-16.4,0-16.9,3-32.8,3H-83.1c-5.9,0-8.9-0.1-8.9-3s4.1-5.9,8.9-5.9H37.6
		c15.8,0,12.9,3,25.5,3h10.4c0.8,0,1.5,0.7,1.5,1.5s-0.7,1.5-1.5,1.5L66.1,322.9z"/>
	<path id="XMLID_54_" class="st40" d="M73.6,337.8c0.8,0,1.5-0.7,1.5-1.5s-0.7-1.5-1.5-1.5H63.2c-12.7,0-9.7-3-25.5-3H-92.1
		c-4.8,0-8.9,3-8.9,5.9s3,3.1,8.9,3H33.2c15.9,0,16.5-3,32.8-3L73.6,337.8z"/>
	<path id="XMLID_53_" class="st40" d="M73.6,352.7c0.8,0,1.5-0.7,1.5-1.5s-0.7-1.5-1.5-1.5H63.2c-12.7,0-9.7-3-25.5-3
		c0,0-133.5,0-135.6,0c-3.3,0-6,2-6,4.5s2.7,4.5,6,4.5c2.2,0,131.3,0,131.3,0c15.9,0,16.5-3,32.8-3H73.6z"/>
	<path id="XMLID_52_" class="st40" d="M73.6,367.7c0.8,0,1.5-0.7,1.5-1.5s-0.7-1.5-1.5-1.5H63.2c-12.7,0-9.7-3-25.5-3h-58.1
		c-5.9,0-8.9,0-8.9,3s6.2,6,14.9,6h47.8c15.9,0,13.5-3,29.8-3H73.6z"/>
	<path id="XMLID_51_" class="st40" d="M-36.9,161.7c0.8,0,1.5-0.7,1.5-1.5s-0.6-1.4-1.5-1.4h-4.5c-11.8,0-16.5-9-20.8-9
		c-2.3,0-3,2.7-3,6c0,4.5,3,6,6,6h22.3C-36.9,161.8-36.9,161.7-36.9,161.7z"/>
	<path id="XMLID_50_" class="st40" d="M33.3,257.2c15.9,0,16.5,3,32.8,3h7.5c0.8,0,1.5,0.7,1.5,1.5s-0.7,1.5-1.5,1.5H63.2
		c-12.7,0-9.7,3-25.5,3h-58.2c-5.9,0-8.9-0.1-8.9-3s4.1-5.9,8.9-5.9h53.8V257.2z"/>
</g>
<g>
	<g id="XMLID_25_">
		<path id="XMLID_46_" d="M179.5,325.9h16.1c5.3,0,8.7,3.7,8.7,8.2c0,3.5-1.4,6.1-4.7,7.5v0.1c3.2,0.9,4.1,3.9,4.3,7
			c0.1,1.9,0,5.4,1.3,7.1h-6.6c-0.8-1.9-0.7-4.8-1-7.1c-0.5-3.1-1.7-4.5-5-4.5H186v11.7h-6.6v-30H179.5z M186.1,339.4h7.2
			c3,0,4.5-1.3,4.5-4.3c0-2.9-1.5-4.1-4.5-4.1h-7.2V339.4z"/>
		<path id="XMLID_44_" d="M213.7,325.9H236v5.5h-15.8v6.4h14.5v5.1h-14.5v7.3h16.1v5.5h-22.7L213.7,325.9L213.7,325.9z"/>
		<path id="XMLID_42_" d="M245.1,325.9h6.6v24.3h14.5v5.5h-21.1V325.9z"/>
		<path id="XMLID_39_" d="M351.6,325.9h6.7l11.2,29.8h-6.8l-2.3-6.6h-11.2l-2.3,6.6h-6.6L351.6,325.9z M350.9,344.2h7.7l-3.8-11
			h-0.1L350.9,344.2z"/>
		<path id="XMLID_37_" d="M379.2,331.4h-8.9v-5.5h24.4v5.5h-8.9v24.3h-6.6V331.4z"/>
		<path id="XMLID_35_" d="M401.4,325.9h6.6v29.8h-6.6V325.9z"/>
		<path id="XMLID_32_" d="M286.4,325.9c-9.2,0-14.7,6.6-14.7,15c0,8.2,5.5,14.8,14.7,14.8s14.7-6.6,14.7-14.8
			C301,332.4,295.6,325.9,286.4,325.9z M286.4,350.2c-5.9,0-8.1-4.7-8.1-9.3c0-4.9,2.2-9.5,8.1-9.5s8.1,4.7,8.1,9.5
			C294.5,345.5,292.2,350.2,286.4,350.2z"/>
		<path id="XMLID_29_" d="M430.4,325.9c-9.2,0-14.7,6.6-14.7,15c0,8.2,5.5,14.8,14.7,14.8s14.7-6.6,14.7-14.8
			C445,332.4,439.5,325.9,430.4,325.9z M430.4,350.2c-5.9,0-8.1-4.7-8.1-9.3c0-4.9,2.2-9.5,8.1-9.5s8.1,4.7,8.1,9.5
			C438.5,345.5,436.2,350.2,430.4,350.2z"/>
		<path id="XMLID_27_" d="M452.7,325.9h6.5l12.5,20h0.1v-20h6.1v29.8h-6.6l-12.4-20h-0.1v20h-6.1V325.9z"/>
		<path id="XMLID_26_" d="M330.2,344.9c-1,3-3.3,5.3-7.5,5.3c-5.9,0-8.1-4.7-8.1-9.3c0-4.9,2.2-9.5,8.1-9.5c4.1,0,6.4,2.3,7.5,5.3
			h6.7c-1.5-6.3-6.6-10.8-14.2-10.8c-9.2,0-14.7,6.6-14.7,15c0,8.2,5.5,14.8,14.7,14.8c7.6,0,12.7-4.5,14.2-10.8H330.2z"/>
	</g>
	<g id="XMLID_8_">
		<path id="XMLID_24_" d="M527.8,296h-41.1v-3l6.4-1.3l0.9-8.3v-28.6l-0.9-8.3l-6.4-1.3v-3h39.9l0.9,13.8h-4.2l-1.7-8.4l-7.4-1.3
			h-10.5v20h5.5l5.7-0.9l0.8-6.4h3.6v18.8h-3.6l-0.8-6.5l-5.7-0.8h-5.5v12.8l0.9,7.3l5.9,1.3h5.5l6.7-1.3l1.8-8h4.1L527.8,296z"/>
		<path id="XMLID_20_" d="M342,255.8l-1.7-8.5l-7.6-0.8h-5.3v37l0.9,8.3l6.3,1.3v3h-24.2v-3l6.4-1.3l0.8-8.3v-37h-5.3l-7.6,0.8
			l-1.7,8.5h-4.3l0.9-13.5h45.8l0.9,13.5L342,255.8L342,255.8z"/>
		<polygon id="XMLID_19_" points="276.3,242.3 276.3,245.3 282.6,246.6 283.5,254.9 283.5,285.6 264.3,254.9 257.2,242.3 
			239.2,242.3 239.2,245.3 245.6,246.6 246.5,254.9 246.5,283.5 245.6,291.7 239.2,293.1 239.2,296 258,296 258,293.1 251.6,291.7 
			250.7,283.5 250.7,251 271,283.5 278.1,296 287.8,296 287.8,254.9 288.7,246.6 295,245.3 295,242.3 		"/>
		<path id="XMLID_13_" d="M229.3,291.8l-3.5-8.3l-14.3-41.2h-7.6l-15,41.2l-3.6,8.3l-5.7,1.3v3H197v-3l-5.6-1.3l2.1-8.3l2.8-7.5H213
			l2.6,7.5l2.1,8.3l-5.4,1.3v3h22.4v-3L229.3,291.8z M197.4,272.1l7.4-20.6l6.8,20.6H197.4z"/>
		<path id="XMLID_10_" d="M392.8,291.8l-3.5-8.3L375,242.3h-7.6l-15,41.2l-3.6,8.3l-5.7,1.3v3h17.4v-3l-5.6-1.3l2.1-8.3l2.8-7.5
			h16.8l2.6,7.5l2.1,8.3l-5.4,1.3v3h22.4v-3L392.8,291.8z M360.8,272.1l7.4-20.6l6.8,20.6H360.8z"/>
		<path id="XMLID_413_" d="M176.4,277c0-13.7-11.1-18.5-22.8-23.1c-8.1-3.1-16.1-5.7-16.1-14.7c0-6.4,5.6-12.5,17-12.5
			c3.5,0,9,1.2,12.6,3.3l2.6,12.2h5.8l-1.3-17.1c-6.2-2.2-13.5-3.8-19.4-3.8c-17.2,0-26,10.3-26,21.5c0,12.8,9.7,17.1,20.6,21.1
			c8.9,3.2,18.1,6.7,18.1,16.1c0,8.4-7.6,13.3-18.1,13.3c-4.7,0-8.5-1.4-12.4-3.2l-2.3-11.7h-5.9l1.2,16.9
			c8.2,3.1,13.2,3.7,18.9,3.7C165.4,299,176.4,290.3,176.4,277"/>
		<polygon id="XMLID_9_" points="482.7,239.3 481.6,221.4 428.1,221.4 428.1,224.9 437.5,226.7 438.6,238.4 438.6,279 437.5,290.6 
			428.1,292.5 428.1,296 461.8,296 461.8,292.5 450.6,290.6 449.5,279 449.5,259.9 457.5,259.9 466.5,261 467.8,270.3 471.9,270.3 
			471.9,244.3 467.8,244.3 466.5,253.6 457.5,254.9 449.5,254.9 449.5,226.5 464.4,226.5 475.5,228.3 477.9,239.3 		"/>
	</g>
</g>
<g id="line_spacers" class="st41">
	<g id="XMLID_67_" class="st2">
		<rect x="11315.2" y="3160.3" class="st43" width="816.4" height="136.1"/>
		<rect x="11315.2" y="3069.6" class="st44" width="816.4" height="90.7"/>
		<rect x="11315.2" y="3296.3" class="st44" width="816.4" height="90.7"/>
		<rect x="11315.2" y="3387" class="st43" width="816.4" height="136.1"/>
	</g>
	<g id="XMLID_68_" class="st2">
		<rect x="6093.8" y="3160.3" class="st43" width="816.4" height="136.1"/>
		<rect x="6093.8" y="3387" class="st43" width="816.4" height="136.1"/>
		<rect x="6093.8" y="3069.6" class="st44" width="816.4" height="90.7"/>
		<rect x="6093.8" y="3296.3" class="st44" width="816.4" height="90.7"/>
	</g>
	<g id="XMLID_69_" class="st2">
		<rect x="6093.8" y="711.1" class="st43" width="816.4" height="136.1"/>
		<rect x="6093.8" y="484.4" class="st43" width="816.4" height="136.1"/>
		<rect x="6093.8" y="257.6" class="st43" width="816.4" height="136.1"/>
		<rect x="6093.8" y="30.8" class="st43" width="816.4" height="136.1"/>
		<rect x="6093.8" y="166.9" class="st44" width="816.4" height="90.7"/>
		<rect x="6093.8" y="393.7" class="st44" width="816.4" height="90.7"/>
		<rect x="6093.8" y="620.4" class="st44" width="816.4" height="90.7"/>
	</g>
	<g id="XMLID_70_" class="st2">
		<rect x="5096" y="2253.2" class="st43" width="136.1" height="816.4"/>
		<rect x="4869.3" y="2253.2" class="st43" width="136.1" height="816.4"/>
		<rect x="4642.5" y="2253.2" class="st43" width="136.1" height="816.4"/>
		<rect x="4415.7" y="2253.2" class="st43" width="136.1" height="816.4"/>
		<rect x="4551.8" y="2253.2" class="st44" width="90.7" height="816.4"/>
		<rect x="4778.5" y="2253.2" class="st44" width="90.7" height="816.4"/>
		<rect x="5005.3" y="2253.2" class="st44" width="90.7" height="816.4"/>
	</g>
	<g id="XMLID_71_" class="st2">
		<rect x="11315.2" y="5201.2" class="st43" width="816.4" height="136.1"/>
		<rect x="11315.2" y="4974.4" class="st43" width="816.4" height="136.1"/>
		<rect x="11315.2" y="4747.7" class="st43" width="816.4" height="136.1"/>
		<rect x="11315.2" y="4520.9" class="st43" width="816.4" height="136.1"/>
		<rect x="11315.2" y="4657" class="st44" width="816.4" height="90.7"/>
		<rect x="11315.2" y="4883.7" class="st44" width="816.4" height="90.7"/>
		<rect x="11315.2" y="5110.5" class="st44" width="816.4" height="90.7"/>
		<rect x="11315.2" y="4294.1" class="st43" width="816.4" height="136.1"/>
		<rect x="11315.2" y="4067.4" class="st43" width="816.4" height="136.1"/>
		<rect x="11315.2" y="3976.6" class="st44" width="816.4" height="90.7"/>
		<rect x="11315.2" y="4203.4" class="st44" width="816.4" height="90.7"/>
		<rect x="11315.2" y="4430.2" class="st44" width="816.4" height="90.7"/>
	</g>
	<g id="XMLID_72_" class="st2">
		<rect x="11315.2" y="847.2" class="st43" width="816.4" height="181.4"/>
		<rect x="11315.2" y="1119.3" class="st43" width="816.4" height="136.1"/>
		<rect x="11315.2" y="1346.1" class="st43" width="816.4" height="136.1"/>
		<rect x="11315.2" y="1572.9" class="st43" width="816.4" height="136.1"/>
		<rect x="11315.2" y="1482.2" class="st44" width="816.4" height="90.7"/>
		<rect x="11315.2" y="1255.4" class="st44" width="816.4" height="90.7"/>
		<rect x="11315.2" y="1028.6" class="st44" width="816.4" height="90.7"/>
		<rect x="11315.2" y="1799.6" class="st43" width="816.4" height="136.1"/>
		<rect x="11315.2" y="2026.4" class="st43" width="816.4" height="136.1"/>
		<rect x="11315.2" y="2162.5" class="st44" width="816.4" height="90.7"/>
		<rect x="11315.2" y="1935.7" class="st44" width="816.4" height="90.7"/>
		<rect x="11315.2" y="1708.9" class="st44" width="816.4" height="90.7"/>
	</g>
	<g id="XMLID_73_" class="st2">
		<rect x="968.8" y="6017.6" class="st43" width="816.4" height="136.1"/>
		<rect x="968.8" y="5790.8" class="st43" width="816.4" height="136.1"/>
		<rect x="968.8" y="5564" class="st43" width="816.4" height="136.1"/>
		<rect x="968.8" y="5337.3" class="st43" width="816.4" height="136.1"/>
		<rect x="968.8" y="5473.3" class="st44" width="816.4" height="90.7"/>
		<rect x="968.8" y="5700.1" class="st44" width="816.4" height="90.7"/>
		<rect x="968.8" y="5926.9" class="st44" width="816.4" height="90.7"/>
	</g>
	<g id="XMLID_74_" class="st2">
		<rect x="968.8" y="2933.5" class="st43" width="816.4" height="136.1"/>
		<rect x="968.8" y="2706.7" class="st43" width="816.4" height="136.1"/>
		<rect x="968.8" y="2480" class="st43" width="816.4" height="136.1"/>
		<rect x="968.8" y="2253.2" class="st43" width="816.4" height="136.1"/>
		<rect x="968.8" y="2389.2" class="st44" width="816.4" height="90.7"/>
		<rect x="968.8" y="2616" class="st44" width="816.4" height="90.7"/>
		<rect x="968.8" y="2842.8" class="st44" width="816.4" height="90.7"/>
	</g>
	<g id="XMLID_75_" class="st2">
		<rect x="968.8" y="3613.8" class="st43" width="816.4" height="136.1"/>
		<rect x="968.8" y="3840.6" class="st43" width="816.4" height="136.1"/>
		<rect x="968.8" y="3749.9" class="st44" width="816.4" height="90.7"/>
		<rect x="968.8" y="3523.1" class="st44" width="816.4" height="90.7"/>
	</g>
</g>
<g id="lines_vertical" class="st41">
	<line id="XMLID_76_" class="st45" x1="968.8" y1="6153.7" x2="968.8" y2="30.8"/>
	<line id="XMLID_77_" class="st45" x1="1014.1" y1="6153.7" x2="1014.1" y2="30.8"/>
	<line id="XMLID_78_" class="st45" x1="1059.5" y1="6153.7" x2="1059.5" y2="30.8"/>
	<line id="XMLID_79_" class="st45" x1="1104.8" y1="6153.7" x2="1104.8" y2="30.8"/>
	<line id="XMLID_80_" class="st45" x1="1150.2" y1="6153.7" x2="1150.2" y2="30.8"/>
	<line id="XMLID_81_" class="st45" x1="1195.6" y1="6153.7" x2="1195.6" y2="30.8"/>
	<line id="XMLID_82_" class="st45" x1="1240.9" y1="6153.7" x2="1240.9" y2="30.8"/>
	<line id="XMLID_83_" class="st45" x1="1286.3" y1="6153.7" x2="1286.3" y2="30.8"/>
	<line id="XMLID_84_" class="st45" x1="1331.6" y1="6153.7" x2="1331.6" y2="30.8"/>
	<line id="XMLID_85_" class="st45" x1="1377" y1="6153.7" x2="1377" y2="30.8"/>
	<line id="XMLID_86_" class="st45" x1="1422.3" y1="6153.7" x2="1422.3" y2="30.8"/>
	<line id="XMLID_87_" class="st45" x1="1467.7" y1="6153.7" x2="1467.7" y2="30.8"/>
	<line id="XMLID_88_" class="st45" x1="1513" y1="6153.7" x2="1513" y2="30.8"/>
	<line id="XMLID_89_" class="st45" x1="1558.4" y1="6153.7" x2="1558.4" y2="30.8"/>
	<line id="XMLID_90_" class="st45" x1="1603.7" y1="6153.7" x2="1603.7" y2="30.8"/>
	<line id="XMLID_91_" class="st45" x1="1649.1" y1="6153.7" x2="1649.1" y2="30.8"/>
	<line id="XMLID_92_" class="st45" x1="1694.4" y1="6153.7" x2="1694.4" y2="30.8"/>
	<line id="XMLID_93_" class="st45" x1="1739.8" y1="6153.7" x2="1739.8" y2="30.8"/>
	<line id="XMLID_94_" class="st45" x1="1785.2" y1="6153.7" x2="1785.2" y2="30.8"/>
	<line id="XMLID_95_" class="st45" x1="1830.5" y1="6153.7" x2="1830.5" y2="30.8"/>
	<line id="XMLID_96_" class="st45" x1="1875.9" y1="6153.7" x2="1875.9" y2="30.8"/>
	<line id="XMLID_97_" class="st45" x1="1921.2" y1="6153.7" x2="1921.2" y2="30.8"/>
	<line id="XMLID_98_" class="st45" x1="1966.6" y1="6153.7" x2="1966.6" y2="30.8"/>
	<line id="XMLID_99_" class="st45" x1="2011.9" y1="6153.7" x2="2011.9" y2="30.8"/>
	<line id="XMLID_100_" class="st45" x1="2057.3" y1="6153.7" x2="2057.3" y2="30.8"/>
	<line id="XMLID_101_" class="st45" x1="2102.6" y1="6153.7" x2="2102.6" y2="30.8"/>
	<line id="XMLID_102_" class="st45" x1="2148" y1="6153.7" x2="2148" y2="30.8"/>
	<line id="XMLID_103_" class="st45" x1="2193.3" y1="6153.7" x2="2193.3" y2="30.8"/>
	<line id="XMLID_104_" class="st45" x1="2238.7" y1="6153.7" x2="2238.7" y2="30.8"/>
	<line id="XMLID_105_" class="st45" x1="2284.1" y1="6153.7" x2="2284.1" y2="30.8"/>
	<line id="XMLID_106_" class="st45" x1="2329.4" y1="6153.7" x2="2329.4" y2="30.8"/>
	<line id="XMLID_107_" class="st45" x1="2374.8" y1="6153.7" x2="2374.8" y2="30.8"/>
	<line id="XMLID_108_" class="st45" x1="2420.1" y1="6153.7" x2="2420.1" y2="30.8"/>
	<line id="XMLID_109_" class="st45" x1="2465.5" y1="6153.7" x2="2465.5" y2="30.8"/>
	<line id="XMLID_110_" class="st45" x1="2510.8" y1="6153.7" x2="2510.8" y2="30.8"/>
	<line id="XMLID_111_" class="st45" x1="2556.2" y1="6153.7" x2="2556.2" y2="30.8"/>
	<line id="XMLID_112_" class="st45" x1="2601.5" y1="6153.7" x2="2601.5" y2="30.8"/>
	<line id="XMLID_113_" class="st45" x1="2646.9" y1="6153.7" x2="2646.9" y2="30.8"/>
	<line id="XMLID_114_" class="st45" x1="2692.2" y1="6153.7" x2="2692.2" y2="30.8"/>
	<line id="XMLID_115_" class="st45" x1="2737.6" y1="6153.7" x2="2737.6" y2="30.8"/>
	<line id="XMLID_116_" class="st45" x1="2783" y1="6153.7" x2="2783" y2="30.8"/>
	<line id="XMLID_117_" class="st45" x1="2828.3" y1="6153.7" x2="2828.3" y2="30.8"/>
	<line id="XMLID_118_" class="st45" x1="2873.7" y1="6153.7" x2="2873.7" y2="30.8"/>
	<line id="XMLID_119_" class="st45" x1="2919" y1="6153.7" x2="2919" y2="30.8"/>
	<line id="XMLID_120_" class="st45" x1="2964.4" y1="6153.7" x2="2964.4" y2="30.8"/>
	<line id="XMLID_121_" class="st45" x1="3009.7" y1="6153.7" x2="3009.7" y2="30.8"/>
	<line id="XMLID_122_" class="st45" x1="3055.1" y1="6153.7" x2="3055.1" y2="30.8"/>
	<line id="XMLID_123_" class="st45" x1="3100.4" y1="6153.7" x2="3100.4" y2="30.8"/>
	<line id="XMLID_124_" class="st45" x1="3145.8" y1="6153.7" x2="3145.8" y2="30.8"/>
	<line id="XMLID_125_" class="st45" x1="3191.1" y1="6153.7" x2="3191.1" y2="30.8"/>
	<line id="XMLID_126_" class="st45" x1="3236.5" y1="6153.7" x2="3236.5" y2="30.8"/>
	<line id="XMLID_127_" class="st45" x1="3281.9" y1="6153.7" x2="3281.9" y2="30.8"/>
	<line id="XMLID_128_" class="st45" x1="3327.2" y1="6153.7" x2="3327.2" y2="30.8"/>
	<line id="XMLID_129_" class="st45" x1="3372.6" y1="6153.7" x2="3372.6" y2="30.8"/>
	<line id="XMLID_130_" class="st45" x1="3417.9" y1="6153.7" x2="3417.9" y2="30.8"/>
	<line id="XMLID_131_" class="st45" x1="3463.3" y1="6153.7" x2="3463.3" y2="30.8"/>
	<line id="XMLID_132_" class="st45" x1="3508.6" y1="6153.7" x2="3508.6" y2="30.8"/>
	<line id="XMLID_133_" class="st45" x1="3554" y1="6153.7" x2="3554" y2="30.8"/>
	<line id="XMLID_134_" class="st45" x1="3599.3" y1="6153.7" x2="3599.3" y2="30.8"/>
	<line id="XMLID_135_" class="st45" x1="3644.7" y1="6153.7" x2="3644.7" y2="30.8"/>
	<line id="XMLID_136_" class="st45" x1="3690" y1="6153.7" x2="3690" y2="30.8"/>
	<line id="XMLID_137_" class="st45" x1="3735.4" y1="6153.7" x2="3735.4" y2="30.8"/>
	<line id="XMLID_138_" class="st45" x1="3780.7" y1="6153.7" x2="3780.7" y2="30.8"/>
	<line id="XMLID_139_" class="st45" x1="3826.1" y1="6153.7" x2="3826.1" y2="30.8"/>
	<line id="XMLID_140_" class="st45" x1="3871.5" y1="6153.7" x2="3871.5" y2="30.8"/>
	<line id="XMLID_141_" class="st45" x1="3916.8" y1="6153.7" x2="3916.8" y2="30.8"/>
	<line id="XMLID_142_" class="st45" x1="3962.2" y1="6153.7" x2="3962.2" y2="30.8"/>
	<line id="XMLID_143_" class="st45" x1="4007.5" y1="6153.7" x2="4007.5" y2="30.8"/>
	<line id="XMLID_144_" class="st45" x1="4052.9" y1="6153.7" x2="4052.9" y2="30.8"/>
	<line id="XMLID_145_" class="st45" x1="4098.2" y1="6153.7" x2="4098.2" y2="30.8"/>
	<line id="XMLID_146_" class="st45" x1="4143.6" y1="6153.7" x2="4143.6" y2="30.8"/>
	<line id="XMLID_147_" class="st45" x1="4188.9" y1="6153.7" x2="4188.9" y2="30.8"/>
	<line id="XMLID_148_" class="st45" x1="4234.3" y1="6153.7" x2="4234.3" y2="30.8"/>
	<line id="XMLID_149_" class="st45" x1="4279.6" y1="6153.7" x2="4279.6" y2="30.8"/>
	<line id="XMLID_150_" class="st45" x1="4325" y1="6153.7" x2="4325" y2="30.8"/>
	<line id="XMLID_151_" class="st45" x1="4370.4" y1="6153.7" x2="4370.4" y2="30.8"/>
	<line id="XMLID_152_" class="st45" x1="4415.7" y1="6153.7" x2="4415.7" y2="30.8"/>
	<line id="XMLID_153_" class="st45" x1="4461.1" y1="6153.7" x2="4461.1" y2="30.8"/>
	<line id="XMLID_154_" class="st45" x1="4506.4" y1="6153.7" x2="4506.4" y2="30.8"/>
	<line id="XMLID_155_" class="st45" x1="4551.8" y1="6153.7" x2="4551.8" y2="30.8"/>
	<line id="XMLID_156_" class="st45" x1="4597.1" y1="6153.7" x2="4597.1" y2="30.8"/>
	<line id="XMLID_157_" class="st45" x1="4642.5" y1="6153.7" x2="4642.5" y2="30.8"/>
	<line id="XMLID_158_" class="st45" x1="4687.8" y1="6153.7" x2="4687.8" y2="30.8"/>
	<line id="XMLID_159_" class="st45" x1="4733.2" y1="6153.7" x2="4733.2" y2="30.8"/>
	<line id="XMLID_160_" class="st45" x1="4778.5" y1="6153.7" x2="4778.5" y2="30.8"/>
	<line id="XMLID_161_" class="st45" x1="4823.9" y1="6153.7" x2="4823.9" y2="30.8"/>
	<line id="XMLID_162_" class="st45" x1="4869.3" y1="6153.7" x2="4869.3" y2="30.8"/>
	<line id="XMLID_163_" class="st45" x1="4914.6" y1="6153.7" x2="4914.6" y2="30.8"/>
	<line id="XMLID_164_" class="st45" x1="4960" y1="6153.7" x2="4960" y2="30.8"/>
	<line id="XMLID_165_" class="st45" x1="5005.3" y1="6153.7" x2="5005.3" y2="30.8"/>
	<line id="XMLID_166_" class="st45" x1="5050.7" y1="6153.7" x2="5050.7" y2="30.8"/>
	<line id="XMLID_167_" class="st45" x1="5096" y1="6153.7" x2="5096" y2="30.8"/>
	<line id="XMLID_168_" class="st45" x1="5141.4" y1="6153.7" x2="5141.4" y2="30.8"/>
	<line id="XMLID_169_" class="st45" x1="5186.7" y1="6153.7" x2="5186.7" y2="30.8"/>
	<line id="XMLID_170_" class="st45" x1="5232.1" y1="6153.7" x2="5232.1" y2="30.8"/>
	<line id="XMLID_171_" class="st45" x1="5277.4" y1="6153.7" x2="5277.4" y2="30.8"/>
	<line id="XMLID_172_" class="st45" x1="5322.8" y1="6153.7" x2="5322.8" y2="30.8"/>
	<line id="XMLID_173_" class="st45" x1="5368.1" y1="6153.7" x2="5368.1" y2="30.8"/>
	<line id="XMLID_174_" class="st45" x1="5413.5" y1="6153.7" x2="5413.5" y2="30.8"/>
	<line id="XMLID_175_" class="st45" x1="5458.9" y1="6153.7" x2="5458.9" y2="30.8"/>
	<line id="XMLID_176_" class="st45" x1="5504.2" y1="6153.7" x2="5504.2" y2="30.8"/>
	<line id="XMLID_177_" class="st45" x1="5549.6" y1="6153.7" x2="5549.6" y2="30.8"/>
	<line id="XMLID_178_" class="st45" x1="5594.9" y1="6153.7" x2="5594.9" y2="30.8"/>
	<line id="XMLID_179_" class="st45" x1="5640.3" y1="6153.7" x2="5640.3" y2="30.8"/>
	<line id="XMLID_180_" class="st45" x1="5685.6" y1="6153.7" x2="5685.6" y2="30.8"/>
	<line id="XMLID_181_" class="st45" x1="5731" y1="6153.7" x2="5731" y2="30.8"/>
	<line id="XMLID_182_" class="st45" x1="5776.3" y1="6153.7" x2="5776.3" y2="30.8"/>
	<line id="XMLID_183_" class="st45" x1="5821.7" y1="6153.7" x2="5821.7" y2="30.8"/>
	<line id="XMLID_184_" class="st45" x1="5867" y1="6153.7" x2="5867" y2="30.8"/>
	<line id="XMLID_185_" class="st45" x1="5912.4" y1="6153.7" x2="5912.4" y2="30.8"/>
	<line id="XMLID_186_" class="st45" x1="5957.8" y1="6153.7" x2="5957.8" y2="30.8"/>
	<line id="XMLID_187_" class="st45" x1="6003.1" y1="6153.7" x2="6003.1" y2="30.8"/>
	<line id="XMLID_188_" class="st45" x1="6048.5" y1="6153.7" x2="6048.5" y2="30.8"/>
	<line id="XMLID_189_" class="st45" x1="6093.8" y1="6153.7" x2="6093.8" y2="30.8"/>
	<line id="XMLID_190_" class="st45" x1="6139.2" y1="6153.7" x2="6139.2" y2="30.8"/>
	<line id="XMLID_191_" class="st45" x1="6184.5" y1="6153.7" x2="6184.5" y2="30.8"/>
	<line id="XMLID_192_" class="st45" x1="6229.9" y1="6153.7" x2="6229.9" y2="30.8"/>
	<line id="XMLID_193_" class="st45" x1="6275.2" y1="6153.7" x2="6275.2" y2="30.8"/>
	<line id="XMLID_194_" class="st45" x1="6320.6" y1="6153.7" x2="6320.6" y2="30.8"/>
	<line id="XMLID_195_" class="st45" x1="6365.9" y1="6153.7" x2="6365.9" y2="30.8"/>
	<line id="XMLID_196_" class="st45" x1="6411.3" y1="6153.7" x2="6411.3" y2="30.8"/>
	<line id="XMLID_197_" class="st45" x1="6456.7" y1="6153.7" x2="6456.7" y2="30.8"/>
	<line id="XMLID_198_" class="st45" x1="6502" y1="6153.7" x2="6502" y2="30.8"/>
	<line id="XMLID_199_" class="st45" x1="6547.4" y1="6153.7" x2="6547.4" y2="30.8"/>
	<line id="XMLID_200_" class="st45" x1="6592.7" y1="6153.7" x2="6592.7" y2="30.8"/>
	<line id="XMLID_201_" class="st45" x1="6638.1" y1="6153.7" x2="6638.1" y2="30.8"/>
	<line id="XMLID_202_" class="st45" x1="6683.4" y1="6153.7" x2="6683.4" y2="30.8"/>
	<line id="XMLID_203_" class="st45" x1="6728.8" y1="6153.7" x2="6728.8" y2="30.8"/>
	<line id="XMLID_204_" class="st45" x1="6774.1" y1="6153.7" x2="6774.1" y2="30.8"/>
	<line id="XMLID_205_" class="st45" x1="6819.5" y1="6153.7" x2="6819.5" y2="30.8"/>
	<line id="XMLID_206_" class="st45" x1="6864.8" y1="6153.7" x2="6864.8" y2="30.8"/>
	<line id="XMLID_207_" class="st45" x1="6910.2" y1="6153.7" x2="6910.2" y2="30.8"/>
	<line id="XMLID_208_" class="st45" x1="6955.6" y1="6153.7" x2="6955.6" y2="30.8"/>
	<line id="XMLID_209_" class="st45" x1="7000.9" y1="6153.7" x2="7000.9" y2="30.8"/>
	<line id="XMLID_210_" class="st45" x1="7046.3" y1="6153.7" x2="7046.3" y2="30.8"/>
	<line id="XMLID_211_" class="st45" x1="7091.6" y1="6153.7" x2="7091.6" y2="30.8"/>
	<line id="XMLID_212_" class="st45" x1="7137" y1="6153.7" x2="7137" y2="30.8"/>
	<line id="XMLID_213_" class="st45" x1="7182.3" y1="6153.7" x2="7182.3" y2="30.8"/>
	<line id="XMLID_214_" class="st45" x1="7227.7" y1="6153.7" x2="7227.7" y2="30.8"/>
	<line id="XMLID_215_" class="st45" x1="7273" y1="6153.7" x2="7273" y2="30.8"/>
	<line id="XMLID_216_" class="st45" x1="7318.4" y1="6153.7" x2="7318.4" y2="30.8"/>
	<line id="XMLID_217_" class="st45" x1="7363.7" y1="6153.7" x2="7363.7" y2="30.8"/>
	<line id="XMLID_218_" class="st45" x1="7409.1" y1="6153.7" x2="7409.1" y2="30.8"/>
	<line id="XMLID_219_" class="st45" x1="7454.4" y1="6153.7" x2="7454.4" y2="30.8"/>
	<line id="XMLID_220_" class="st45" x1="7499.8" y1="6153.7" x2="7499.8" y2="30.8"/>
	<line id="XMLID_221_" class="st45" x1="7545.2" y1="6153.7" x2="7545.2" y2="30.8"/>
	<line id="XMLID_222_" class="st45" x1="7590.5" y1="6153.7" x2="7590.5" y2="30.8"/>
	<line id="XMLID_223_" class="st45" x1="7635.9" y1="6153.7" x2="7635.9" y2="30.8"/>
	<line id="XMLID_224_" class="st45" x1="7681.2" y1="6153.7" x2="7681.2" y2="30.8"/>
	<line id="XMLID_225_" class="st45" x1="7726.6" y1="6153.7" x2="7726.6" y2="30.8"/>
	<line id="XMLID_226_" class="st45" x1="7771.9" y1="6153.7" x2="7771.9" y2="30.8"/>
	<line id="XMLID_227_" class="st45" x1="7817.3" y1="6153.7" x2="7817.3" y2="30.8"/>
	<line id="XMLID_228_" class="st45" x1="7862.6" y1="6153.7" x2="7862.6" y2="30.8"/>
	<line id="XMLID_229_" class="st45" x1="7908" y1="6153.7" x2="7908" y2="30.8"/>
	<line id="XMLID_230_" class="st45" x1="7953.3" y1="6153.7" x2="7953.3" y2="30.8"/>
	<line id="XMLID_231_" class="st45" x1="7998.7" y1="6153.7" x2="7998.7" y2="30.8"/>
	<line id="XMLID_232_" class="st45" x1="8044.1" y1="6153.7" x2="8044.1" y2="30.8"/>
	<line id="XMLID_233_" class="st45" x1="8089.4" y1="6153.7" x2="8089.4" y2="30.8"/>
	<line id="XMLID_234_" class="st45" x1="8134.8" y1="6153.7" x2="8134.8" y2="30.8"/>
	<line id="XMLID_235_" class="st45" x1="8180.1" y1="6153.7" x2="8180.1" y2="30.8"/>
	<line id="XMLID_236_" class="st45" x1="8225.5" y1="6153.7" x2="8225.5" y2="30.8"/>
	<line id="XMLID_237_" class="st45" x1="8270.8" y1="6153.7" x2="8270.8" y2="30.8"/>
	<line id="XMLID_238_" class="st45" x1="8316.2" y1="6153.7" x2="8316.2" y2="30.8"/>
	<line id="XMLID_239_" class="st45" x1="8361.5" y1="6153.7" x2="8361.5" y2="30.8"/>
	<line id="XMLID_240_" class="st45" x1="8406.9" y1="6153.7" x2="8406.9" y2="30.8"/>
	<line id="XMLID_241_" class="st45" x1="8452.2" y1="6153.7" x2="8452.2" y2="30.8"/>
	<line id="XMLID_242_" class="st45" x1="8497.6" y1="6153.7" x2="8497.6" y2="30.8"/>
	<line id="XMLID_243_" class="st45" x1="8543" y1="6153.7" x2="8543" y2="30.8"/>
	<line id="XMLID_244_" class="st45" x1="8588.3" y1="6153.7" x2="8588.3" y2="30.8"/>
	<line id="XMLID_245_" class="st45" x1="8633.7" y1="6153.7" x2="8633.7" y2="30.8"/>
	<line id="XMLID_246_" class="st45" x1="8679" y1="6153.7" x2="8679" y2="30.8"/>
	<line id="XMLID_247_" class="st45" x1="8724.4" y1="6153.7" x2="8724.4" y2="30.8"/>
	<line id="XMLID_248_" class="st45" x1="8769.7" y1="6153.7" x2="8769.7" y2="30.8"/>
	<line id="XMLID_249_" class="st45" x1="8815.1" y1="6153.7" x2="8815.1" y2="30.8"/>
	<line id="XMLID_250_" class="st45" x1="8860.4" y1="6153.7" x2="8860.4" y2="30.8"/>
	<line id="XMLID_251_" class="st45" x1="8905.8" y1="6153.7" x2="8905.8" y2="30.8"/>
	<line id="XMLID_252_" class="st45" x1="8951.1" y1="6153.7" x2="8951.1" y2="30.8"/>
	<line id="XMLID_253_" class="st45" x1="8996.5" y1="6153.7" x2="8996.5" y2="30.8"/>
	<line id="XMLID_254_" class="st45" x1="9041.9" y1="6153.7" x2="9041.9" y2="30.8"/>
	<line id="XMLID_255_" class="st45" x1="9087.2" y1="6153.7" x2="9087.2" y2="30.8"/>
	<line id="XMLID_256_" class="st45" x1="9132.6" y1="6153.7" x2="9132.6" y2="30.8"/>
	<line id="XMLID_257_" class="st45" x1="9177.9" y1="6153.7" x2="9177.9" y2="30.8"/>
	<line id="XMLID_258_" class="st45" x1="9223.3" y1="6153.7" x2="9223.3" y2="30.8"/>
	<line id="XMLID_259_" class="st45" x1="9268.6" y1="6153.7" x2="9268.6" y2="30.8"/>
	<line id="XMLID_260_" class="st45" x1="9314" y1="6153.7" x2="9314" y2="30.8"/>
	<line id="XMLID_261_" class="st45" x1="9359.3" y1="6153.7" x2="9359.3" y2="30.8"/>
	<line id="XMLID_262_" class="st45" x1="9404.7" y1="6153.7" x2="9404.7" y2="30.8"/>
	<line id="XMLID_263_" class="st45" x1="9450" y1="6153.7" x2="9450" y2="30.8"/>
	<line id="XMLID_264_" class="st45" x1="9495.4" y1="6153.7" x2="9495.4" y2="30.8"/>
	<line id="XMLID_265_" class="st45" x1="9540.7" y1="6153.7" x2="9540.7" y2="30.8"/>
	<line id="XMLID_266_" class="st45" x1="9586.1" y1="6153.7" x2="9586.1" y2="30.8"/>
	<line id="XMLID_267_" class="st45" x1="9631.5" y1="6153.7" x2="9631.5" y2="30.8"/>
	<line id="XMLID_268_" class="st45" x1="9676.8" y1="6153.7" x2="9676.8" y2="30.8"/>
	<line id="XMLID_269_" class="st45" x1="9722.2" y1="6153.7" x2="9722.2" y2="30.8"/>
	<line id="XMLID_270_" class="st45" x1="9767.5" y1="6153.7" x2="9767.5" y2="30.8"/>
	<line id="XMLID_271_" class="st45" x1="9812.9" y1="6153.7" x2="9812.9" y2="30.8"/>
	<line id="XMLID_272_" class="st45" x1="9858.2" y1="6153.7" x2="9858.2" y2="30.8"/>
	<line id="XMLID_273_" class="st45" x1="9903.6" y1="6153.7" x2="9903.6" y2="30.8"/>
	<line id="XMLID_274_" class="st45" x1="9948.9" y1="6153.7" x2="9948.9" y2="30.8"/>
	<line id="XMLID_275_" class="st45" x1="9994.3" y1="6153.7" x2="9994.3" y2="30.8"/>
	<line id="XMLID_276_" class="st45" x1="10039.6" y1="6153.7" x2="10039.6" y2="30.8"/>
	<line id="XMLID_277_" class="st45" x1="10085" y1="6153.7" x2="10085" y2="30.8"/>
	<line id="XMLID_278_" class="st45" x1="10130.4" y1="6153.7" x2="10130.4" y2="30.8"/>
	<line id="XMLID_279_" class="st45" x1="10175.7" y1="6153.7" x2="10175.7" y2="30.8"/>
	<line id="XMLID_280_" class="st45" x1="10221.1" y1="6153.7" x2="10221.1" y2="30.8"/>
	<line id="XMLID_281_" class="st45" x1="10266.4" y1="6153.7" x2="10266.4" y2="30.8"/>
	<line id="XMLID_282_" class="st45" x1="10311.8" y1="6153.7" x2="10311.8" y2="30.8"/>
	<line id="XMLID_283_" class="st45" x1="10357.1" y1="6153.7" x2="10357.1" y2="30.8"/>
	<line id="XMLID_284_" class="st45" x1="10402.5" y1="6153.7" x2="10402.5" y2="30.8"/>
	<line id="XMLID_285_" class="st45" x1="10447.8" y1="6153.7" x2="10447.8" y2="30.8"/>
	<line id="XMLID_286_" class="st45" x1="10493.2" y1="6153.7" x2="10493.2" y2="30.8"/>
	<line id="XMLID_287_" class="st45" x1="10538.5" y1="6153.7" x2="10538.5" y2="30.8"/>
	<line id="XMLID_288_" class="st45" x1="10583.9" y1="6153.7" x2="10583.9" y2="30.8"/>
	<line id="XMLID_289_" class="st45" x1="10629.3" y1="6153.7" x2="10629.3" y2="30.8"/>
	<line id="XMLID_290_" class="st45" x1="10674.6" y1="6153.7" x2="10674.6" y2="30.8"/>
	<line id="XMLID_291_" class="st45" x1="10720" y1="6153.7" x2="10720" y2="30.8"/>
	<line id="XMLID_292_" class="st45" x1="10765.3" y1="6153.7" x2="10765.3" y2="30.8"/>
	<line id="XMLID_293_" class="st45" x1="10810.7" y1="6153.7" x2="10810.7" y2="30.8"/>
	<line id="XMLID_294_" class="st45" x1="10856" y1="6153.7" x2="10856" y2="30.8"/>
	<line id="XMLID_295_" class="st45" x1="10901.4" y1="6153.7" x2="10901.4" y2="30.8"/>
	<line id="XMLID_296_" class="st45" x1="10946.7" y1="6153.7" x2="10946.7" y2="30.8"/>
	<line id="XMLID_297_" class="st45" x1="10992.1" y1="6153.7" x2="10992.1" y2="30.8"/>
	<line id="XMLID_298_" class="st45" x1="11037.4" y1="6153.7" x2="11037.4" y2="30.8"/>
	<line id="XMLID_299_" class="st45" x1="11082.8" y1="6153.7" x2="11082.8" y2="30.8"/>
	<line id="XMLID_300_" class="st45" x1="11128.1" y1="6153.7" x2="11128.1" y2="30.8"/>
	<line id="XMLID_301_" class="st45" x1="11173.5" y1="6153.7" x2="11173.5" y2="30.8"/>
	<line id="XMLID_302_" class="st45" x1="11218.9" y1="6153.7" x2="11218.9" y2="30.8"/>
	<line id="XMLID_303_" class="st45" x1="11264.2" y1="6153.7" x2="11264.2" y2="30.8"/>
	<line id="XMLID_304_" class="st45" x1="11309.6" y1="6153.7" x2="11309.6" y2="30.8"/>
	<line id="XMLID_305_" class="st45" x1="11354.9" y1="6153.7" x2="11354.9" y2="30.8"/>
	<line id="XMLID_306_" class="st45" x1="11400.3" y1="6153.7" x2="11400.3" y2="30.8"/>
	<line id="XMLID_307_" class="st45" x1="11445.6" y1="6153.7" x2="11445.6" y2="30.8"/>
	<line id="XMLID_308_" class="st45" x1="11491" y1="6153.7" x2="11491" y2="30.8"/>
	<line id="XMLID_309_" class="st45" x1="11536.3" y1="6153.7" x2="11536.3" y2="30.8"/>
	<line id="XMLID_310_" class="st45" x1="11581.7" y1="6153.7" x2="11581.7" y2="30.8"/>
	<line id="XMLID_311_" class="st45" x1="11627" y1="6153.7" x2="11627" y2="30.8"/>
	<line id="XMLID_312_" class="st45" x1="11672.4" y1="6153.7" x2="11672.4" y2="30.8"/>
	<line id="XMLID_313_" class="st45" x1="11717.8" y1="6153.7" x2="11717.8" y2="30.8"/>
	<line id="XMLID_314_" class="st45" x1="11763.1" y1="6153.7" x2="11763.1" y2="30.8"/>
	<line id="XMLID_315_" class="st45" x1="11808.5" y1="6153.7" x2="11808.5" y2="30.8"/>
	<line id="XMLID_316_" class="st45" x1="11853.8" y1="6153.7" x2="11853.8" y2="30.8"/>
	<line id="XMLID_317_" class="st45" x1="11899.2" y1="6153.7" x2="11899.2" y2="30.8"/>
	<line id="XMLID_318_" class="st45" x1="11944.5" y1="6153.7" x2="11944.5" y2="30.8"/>
	<line id="XMLID_319_" class="st45" x1="11989.9" y1="6153.7" x2="11989.9" y2="30.8"/>
	<line id="XMLID_320_" class="st45" x1="12035.2" y1="6153.7" x2="12035.2" y2="30.8"/>
	<line id="XMLID_321_" class="st45" x1="12080.6" y1="6153.7" x2="12080.6" y2="30.8"/>
	<line id="XMLID_322_" class="st45" x1="12125.9" y1="6153.7" x2="12125.9" y2="30.8"/>
</g>
<g id="lines_horizontal" class="st41">
	<line class="st45" x1="12128.8" y1="30.8" x2="967.2" y2="30.8"/>
	<line class="st45" x1="12128.8" y1="76.2" x2="967.2" y2="76.2"/>
	<line class="st45" x1="12128.8" y1="121.5" x2="967.2" y2="121.5"/>
	<line class="st45" x1="12128.8" y1="166.9" x2="967.2" y2="166.9"/>
	<line class="st45" x1="12127.6" y1="212.2" x2="965.9" y2="212.2"/>
	<line class="st45" x1="12127.6" y1="257.6" x2="965.9" y2="257.6"/>
	<line class="st45" x1="12127.6" y1="302.9" x2="965.9" y2="302.9"/>
	<line class="st45" x1="12127.6" y1="348.3" x2="965.9" y2="348.3"/>
	<line class="st45" x1="12128.8" y1="393.7" x2="967.2" y2="393.7"/>
	<line class="st45" x1="12128.8" y1="439" x2="967.2" y2="439"/>
	<line class="st45" x1="12128.8" y1="484.4" x2="967.2" y2="484.4"/>
	<line class="st45" x1="12128.8" y1="529.7" x2="967.2" y2="529.7"/>
	<line class="st45" x1="12127.6" y1="575.1" x2="965.9" y2="575.1"/>
	<line class="st45" x1="12127.6" y1="620.4" x2="965.9" y2="620.4"/>
	<line class="st45" x1="12127.6" y1="665.8" x2="965.9" y2="665.8"/>
	<line class="st45" x1="12127.6" y1="711.1" x2="965.9" y2="711.1"/>
	<line class="st45" x1="12128.8" y1="756.5" x2="967.2" y2="756.5"/>
	<line class="st45" x1="12128.8" y1="801.8" x2="967.2" y2="801.8"/>
	<line class="st45" x1="12128.8" y1="847.2" x2="967.2" y2="847.2"/>
	<line class="st45" x1="12128.8" y1="892.6" x2="967.2" y2="892.6"/>
	<line class="st45" x1="12127.6" y1="937.9" x2="965.9" y2="937.9"/>
	<line class="st45" x1="12127.6" y1="983.3" x2="965.9" y2="983.3"/>
	<line class="st45" x1="12127.6" y1="1028.6" x2="965.9" y2="1028.6"/>
	<line class="st45" x1="12127.6" y1="1074" x2="965.9" y2="1074"/>
	<line class="st45" x1="12128.8" y1="1119.3" x2="967.2" y2="1119.3"/>
	<line class="st45" x1="12128.8" y1="1164.7" x2="967.2" y2="1164.7"/>
	<line class="st45" x1="12128.8" y1="1210" x2="967.2" y2="1210"/>
	<line class="st45" x1="12128.8" y1="1255.4" x2="967.2" y2="1255.4"/>
	<line class="st45" x1="12127.6" y1="1300.7" x2="965.9" y2="1300.7"/>
	<line class="st45" x1="12127.6" y1="1346.1" x2="965.9" y2="1346.1"/>
	<line class="st45" x1="12127.6" y1="1391.5" x2="965.9" y2="1391.5"/>
	<line class="st45" x1="12127.6" y1="1436.8" x2="965.9" y2="1436.8"/>
	<line class="st45" x1="12128.8" y1="1482.2" x2="967.2" y2="1482.2"/>
	<line class="st45" x1="12128.8" y1="1527.5" x2="967.2" y2="1527.5"/>
	<line class="st45" x1="12128.8" y1="1572.9" x2="967.2" y2="1572.9"/>
	<line class="st45" x1="12128.8" y1="1618.2" x2="967.2" y2="1618.2"/>
	<line class="st45" x1="12127.6" y1="1663.6" x2="965.9" y2="1663.6"/>
	<line class="st45" x1="12127.6" y1="1708.9" x2="965.9" y2="1708.9"/>
	<line class="st45" x1="12127.6" y1="1754.3" x2="965.9" y2="1754.3"/>
	<line class="st45" x1="12127.6" y1="1799.6" x2="965.9" y2="1799.6"/>
	<line class="st45" x1="12128.8" y1="1845" x2="967.2" y2="1845"/>
	<line class="st45" x1="12128.8" y1="1890.3" x2="967.2" y2="1890.3"/>
	<line class="st45" x1="12128.8" y1="1935.7" x2="967.2" y2="1935.7"/>
	<line class="st45" x1="12128.8" y1="1981.1" x2="967.2" y2="1981.1"/>
	<line class="st45" x1="12127.6" y1="2026.4" x2="965.9" y2="2026.4"/>
	<line class="st45" x1="12127.6" y1="2071.8" x2="965.9" y2="2071.8"/>
	<line class="st45" x1="12127.6" y1="2117.1" x2="965.9" y2="2117.1"/>
	<line class="st45" x1="12127.6" y1="2162.5" x2="965.9" y2="2162.5"/>
	<line class="st45" x1="12128.8" y1="2207.8" x2="967.2" y2="2207.8"/>
	<line class="st45" x1="12128.8" y1="2253.2" x2="967.2" y2="2253.2"/>
	<line class="st45" x1="12128.8" y1="2298.5" x2="967.2" y2="2298.5"/>
	<line class="st45" x1="12128.8" y1="2343.9" x2="967.2" y2="2343.9"/>
	<line class="st45" x1="12127.6" y1="2389.2" x2="965.9" y2="2389.2"/>
	<line class="st45" x1="12127.6" y1="2434.6" x2="965.9" y2="2434.6"/>
	<line class="st45" x1="12127.6" y1="2480" x2="965.9" y2="2480"/>
	<line class="st45" x1="12127.6" y1="2525.3" x2="965.9" y2="2525.3"/>
	<line class="st45" x1="12128.8" y1="2570.7" x2="967.2" y2="2570.7"/>
	<line class="st45" x1="12128.8" y1="2616" x2="967.2" y2="2616"/>
	<line class="st45" x1="12128.8" y1="2661.4" x2="967.2" y2="2661.4"/>
	<line class="st45" x1="12128.8" y1="2706.7" x2="967.2" y2="2706.7"/>
	<line class="st45" x1="12127.6" y1="2752.1" x2="965.9" y2="2752.1"/>
	<line class="st45" x1="12127.6" y1="2797.4" x2="965.9" y2="2797.4"/>
	<line class="st45" x1="12127.6" y1="2842.8" x2="965.9" y2="2842.8"/>
	<line class="st45" x1="12127.6" y1="2888.1" x2="965.9" y2="2888.1"/>
	<line class="st45" x1="12128.8" y1="2933.5" x2="967.2" y2="2933.5"/>
	<line class="st45" x1="12128.8" y1="2978.9" x2="967.2" y2="2978.9"/>
	<line class="st45" x1="12128.8" y1="3024.2" x2="967.2" y2="3024.2"/>
	<line class="st45" x1="12128.8" y1="3069.6" x2="967.2" y2="3069.6"/>
	<line class="st45" x1="12127.6" y1="3114.9" x2="965.9" y2="3114.9"/>
	<line class="st45" x1="12127.6" y1="3160.3" x2="965.9" y2="3160.3"/>
	<line class="st45" x1="12127.6" y1="3205.6" x2="965.9" y2="3205.6"/>
	<line class="st45" x1="12127.6" y1="3251" x2="965.9" y2="3251"/>
	<line class="st45" x1="12128.8" y1="3296.3" x2="967.2" y2="3296.3"/>
	<line class="st45" x1="12128.8" y1="3341.7" x2="967.2" y2="3341.7"/>
	<line class="st45" x1="12128.8" y1="3387" x2="967.2" y2="3387"/>
	<line class="st45" x1="12128.8" y1="3432.4" x2="967.2" y2="3432.4"/>
	<line class="st45" x1="12127.6" y1="3477.7" x2="965.9" y2="3477.7"/>
	<line class="st45" x1="12127.6" y1="3523.1" x2="965.9" y2="3523.1"/>
	<line class="st45" x1="12127.6" y1="3568.5" x2="965.9" y2="3568.5"/>
	<line class="st45" x1="12127.6" y1="3613.8" x2="965.9" y2="3613.8"/>
	<line class="st45" x1="12128.8" y1="3659.2" x2="967.2" y2="3659.2"/>
	<line class="st45" x1="12128.8" y1="3704.5" x2="967.2" y2="3704.5"/>
	<line class="st45" x1="12128.8" y1="3749.9" x2="967.2" y2="3749.9"/>
	<line class="st45" x1="12128.8" y1="3795.2" x2="967.2" y2="3795.2"/>
	<line class="st45" x1="12127.6" y1="3840.6" x2="965.9" y2="3840.6"/>
	<line class="st45" x1="12127.6" y1="3885.9" x2="965.9" y2="3885.9"/>
	<line class="st45" x1="12127.6" y1="3931.3" x2="965.9" y2="3931.3"/>
	<line class="st45" x1="12127.6" y1="3976.6" x2="965.9" y2="3976.6"/>
	<line class="st45" x1="12128.8" y1="4022" x2="967.2" y2="4022"/>
	<line class="st45" x1="12128.8" y1="4067.4" x2="967.2" y2="4067.4"/>
	<line class="st45" x1="12128.8" y1="4112.7" x2="967.2" y2="4112.7"/>
	<line class="st45" x1="12128.8" y1="4158.1" x2="967.2" y2="4158.1"/>
	<line class="st45" x1="12127.6" y1="4203.4" x2="965.9" y2="4203.4"/>
	<line class="st45" x1="12127.6" y1="4248.8" x2="965.9" y2="4248.8"/>
	<line class="st45" x1="12127.6" y1="4294.1" x2="965.9" y2="4294.1"/>
	<line class="st45" x1="12127.6" y1="4339.5" x2="965.9" y2="4339.5"/>
	<line class="st45" x1="12128.8" y1="4384.8" x2="967.2" y2="4384.8"/>
	<line class="st45" x1="12128.8" y1="4430.2" x2="967.2" y2="4430.2"/>
	<line class="st45" x1="12128.8" y1="4475.5" x2="967.2" y2="4475.5"/>
	<line class="st45" x1="12127.6" y1="4520.9" x2="965.9" y2="4520.9"/>
	<line class="st45" x1="12127.6" y1="4566.3" x2="965.9" y2="4566.3"/>
	<line class="st45" x1="12127.6" y1="4611.6" x2="965.9" y2="4611.6"/>
	<line class="st45" x1="12127.6" y1="4657" x2="965.9" y2="4657"/>
	<line class="st45" x1="12128.8" y1="4702.3" x2="967.2" y2="4702.3"/>
	<line class="st45" x1="12128.8" y1="4747.7" x2="967.2" y2="4747.7"/>
	<line class="st45" x1="12128.8" y1="4793" x2="967.2" y2="4793"/>
	<line class="st45" x1="12128.8" y1="4838.4" x2="967.2" y2="4838.4"/>
	<line class="st45" x1="12127.6" y1="4883.7" x2="965.9" y2="4883.7"/>
	<line class="st45" x1="12127.6" y1="4929.1" x2="965.9" y2="4929.1"/>
	<line class="st45" x1="12127.6" y1="4974.4" x2="965.9" y2="4974.4"/>
	<line class="st45" x1="12127.6" y1="5019.8" x2="965.9" y2="5019.8"/>
	<line class="st45" x1="12128.8" y1="5065.2" x2="967.2" y2="5065.2"/>
	<line class="st45" x1="12128.8" y1="5110.5" x2="967.2" y2="5110.5"/>
	<line class="st45" x1="12128.8" y1="5155.9" x2="967.2" y2="5155.9"/>
	<line class="st45" x1="12128.8" y1="5201.2" x2="967.2" y2="5201.2"/>
	<line class="st45" x1="12127.6" y1="5246.6" x2="965.9" y2="5246.6"/>
	<line class="st45" x1="12127.6" y1="5291.9" x2="965.9" y2="5291.9"/>
	<line class="st45" x1="12127.6" y1="5337.3" x2="965.9" y2="5337.3"/>
	<line class="st45" x1="12127.6" y1="5382.6" x2="965.9" y2="5382.6"/>
	<line class="st45" x1="12128.8" y1="5428" x2="967.2" y2="5428"/>
	<line class="st45" x1="12128.8" y1="5473.3" x2="967.2" y2="5473.3"/>
	<line class="st45" x1="12128.8" y1="5518.7" x2="967.2" y2="5518.7"/>
	<line class="st45" x1="12128.8" y1="5564" x2="967.2" y2="5564"/>
	<line class="st45" x1="12127.6" y1="5609.4" x2="965.9" y2="5609.4"/>
	<line class="st45" x1="12127.6" y1="5654.8" x2="965.9" y2="5654.8"/>
	<line class="st45" x1="12127.6" y1="5700.1" x2="965.9" y2="5700.1"/>
	<line class="st45" x1="12127.6" y1="5745.5" x2="965.9" y2="5745.5"/>
	<line class="st45" x1="12128.8" y1="5790.8" x2="967.2" y2="5790.8"/>
	<line class="st45" x1="12128.8" y1="5836.2" x2="967.2" y2="5836.2"/>
	<line class="st45" x1="12128.8" y1="5881.5" x2="967.2" y2="5881.5"/>
	<line class="st45" x1="12127.6" y1="5926.9" x2="965.9" y2="5926.9"/>
	<line class="st45" x1="12127.6" y1="5972.2" x2="965.9" y2="5972.2"/>
	<line class="st45" x1="12127.6" y1="6017.6" x2="965.9" y2="6017.6"/>
	<line class="st45" x1="12127.6" y1="6062.9" x2="965.9" y2="6062.9"/>
	<line class="st45" x1="12128.8" y1="6108.3" x2="967.2" y2="6108.3"/>
	<line class="st45" x1="12128.8" y1="6153.7" x2="967.2" y2="6153.7"/>
</g>
<g id="building_lines" class="st41">
	<rect x="968.8" y="30.8" class="st46" width="816.4" height="6122.8"/>
	<rect x="6093.8" y="30.8" class="st46" width="816.4" height="6122.8"/>
	<rect x="11315.2" y="30.8" class="st46" width="813.5" height="6122.8"/>
	<rect x="4415.7" y="30.8" class="st46" width="816.4" height="6122.8"/>
	<rect x="968.8" y="30.8" class="st46" width="11160.4" height="816.4"/>
	<rect x="968.8" y="5337.3" class="st46" width="11162.8" height="816.4"/>
	<rect x="968.8" y="3523.1" class="st46" width="11162.8" height="453.5"/>
	<rect x="968.8" y="2253.2" class="st46" width="11162.8" height="816.4"/>
	<line id="XMLID_323_" class="st47" x1="6003.1" y1="847.2" x2="6003.1" y2="5337.3"/>
	<line id="XMLID_324_" class="st47" x1="10538.5" y1="847.2" x2="10538.5" y2="5337.3"/>
</g>
</svg>
