<svg width="69" height="58" viewBox="0 0 69 58" fill="none" xmlns="http://www.w3.org/2000/svg">
<path d="M53.6901 11.2668C53.4865 11.0652 53.2113 10.9527 52.9248 10.954C52.6383 10.9554 52.3641 11.0705 52.1624 11.274C51.9608 11.4775 51.8483 11.7528 51.8496 12.0393C51.851 12.3258 51.9661 12.6 52.1696 12.8016L55.6839 16.316C55.8855 16.5178 56.1589 16.6313 56.4441 16.6315C56.7282 16.6254 56.9995 16.5127 57.2044 16.316L64.5486 9.00045C64.7502 8.79312 64.8612 8.51418 64.8572 8.225C64.8532 7.93582 64.7344 7.66008 64.5271 7.45846C64.3197 7.25683 64.0408 7.14582 63.7516 7.14986C63.4624 7.15389 63.1867 7.27264 62.9851 7.47997L56.4441 14.0209L53.6901 11.2668Z" fill="#3C255F"/>
<path d="M68.58 3.9513C68.3828 3.7375 68.1101 3.60888 67.8197 3.5927C65.9181 3.487 64.0426 3.10029 62.2542 2.44517C60.8321 1.83545 59.4766 1.08079 58.2092 0.193138C58.0254 0.0673241 57.8079 0 57.5852 0C57.3625 0 57.145 0.0673241 56.9612 0.193138C55.6902 1.07491 54.3353 1.82924 52.9162 2.44517C51.1285 3.10255 49.2526 3.48932 47.3506 3.5927C47.2068 3.59813 47.0655 3.63238 46.9351 3.69342C46.8047 3.75447 46.6879 3.84106 46.5916 3.94807C46.4953 4.05507 46.4214 4.18033 46.3744 4.3164C46.3274 4.45247 46.3082 4.59659 46.3179 4.74023C46.6272 8.74018 47.5966 12.6613 49.1867 16.3446C50.9648 19.6416 53.8059 22.2401 57.2481 23.7175C57.3742 23.7748 57.5112 23.8042 57.6497 23.8036C57.7835 23.8026 57.9155 23.7733 58.037 23.7175C61.4365 22.2187 64.2347 19.6225 65.9837 16.3446C67.5812 12.6638 68.5509 8.74142 68.8525 4.74023C68.8654 4.45216 68.7679 4.17002 68.58 3.9513ZM64.119 15.4266C62.6437 18.1124 60.3602 20.2654 57.5924 21.5803C54.817 20.2712 52.5273 18.117 51.0514 15.4266C49.7239 12.3335 48.8867 9.05232 48.5699 5.70129C50.332 5.51973 52.063 5.10987 53.7195 4.48204C55.0711 3.91393 56.3676 3.22249 57.5924 2.41648C58.8136 3.22853 60.1106 3.92028 61.4653 4.48204C63.1164 5.11101 64.8428 5.52092 66.6005 5.70129C66.2793 9.03768 65.4421 12.304 64.119 15.3836V15.4266Z" fill="#3C255F"/>
<path d="M57.6208 24.9798C57.3367 24.9835 57.0652 25.098 56.8642 25.299C56.6633 25.5 56.5487 25.7714 56.545 26.0556V41.1456L32.4612 55.0595V27.2318L47.2213 18.7114C47.4553 18.5656 47.6253 18.3365 47.6972 18.0704C47.769 17.8042 47.7374 17.5207 47.6086 17.277C47.4677 17.0376 47.2386 16.8629 46.9705 16.7905C46.7023 16.7181 46.4164 16.7537 46.1742 16.8897L31.328 25.4962L21.0863 21.4511L44.0943 8.91436C44.2684 8.82286 44.4132 8.68419 44.5121 8.51422C44.6111 8.34426 44.6601 8.14986 44.6537 7.9533V6.69101C44.6537 6.69101 44.6537 6.60495 44.6537 6.56192C44.6452 6.47689 44.6208 6.39419 44.582 6.31807C44.5897 6.2802 44.5897 6.24117 44.582 6.20331C44.5075 6.14096 44.4256 6.08797 44.3382 6.04553L44.2521 5.95946C44.1569 5.88545 44.0503 5.82733 43.9365 5.78733L28.0145 0.40828C27.751 0.309219 27.4604 0.309219 27.1969 0.40828L0.602862 13.6623V13.7483C0.520283 13.8139 0.447787 13.8912 0.3877 13.9778V14.1213C0.330628 14.227 0.301034 14.3454 0.301635 14.4655C0.270174 14.4473 0.234344 14.4379 0.19797 14.4384C0.161597 14.4389 0.126047 14.4493 0.0951166 14.4685C0.0641864 14.4876 0.039038 14.5148 0.0223573 14.5471C0.0056766 14.5795 -0.00190985 14.6157 0.000408194 14.652V44.9468C0.00205195 45.16 0.0670152 45.368 0.18705 45.5442C0.307085 45.7204 0.476777 45.857 0.674583 45.9366L30.9981 57.9139C31.1197 57.9697 31.2517 57.999 31.3854 58C31.5572 57.9924 31.7245 57.9432 31.8731 57.8566L58.1659 42.6948C58.3292 42.6005 58.4645 42.4645 58.5577 42.3006C58.651 42.1367 58.699 41.951 58.6966 41.7624V26.1273C58.7065 25.9801 58.6859 25.8325 58.6363 25.6936C58.5866 25.5547 58.509 25.4274 58.4081 25.3198C58.3072 25.2122 58.1852 25.1265 58.0498 25.068C57.9144 25.0095 57.7683 24.9795 57.6208 24.9798ZM18.1457 20.4901C17.9023 20.5711 17.6978 20.7399 17.572 20.9634V21.0352V21.1069C17.5569 21.2019 17.5569 21.2987 17.572 21.3938C17.5657 21.4414 17.5657 21.4896 17.572 21.5372V29.7134L12.7237 28.0064V19.3999L37.9837 6.04553L42.2152 7.47994L18.1457 20.4901ZM27.7563 2.58859L35.1866 5.07013L11.5761 17.6212L3.71554 14.5229L27.7563 2.58859ZM30.3096 55.332L2.15203 44.2153V16.2012L10.572 19.529V28.7523C10.571 28.9718 10.638 29.1862 10.7639 29.366C10.8898 29.5459 11.0683 29.6822 11.2749 29.7564L18.0453 32.2523C18.1644 32.2981 18.2907 32.3224 18.4183 32.324C18.633 32.3217 18.8423 32.2569 19.0207 32.1375C19.1629 32.0358 19.2796 31.9026 19.3617 31.7483C19.4438 31.5941 19.4891 31.4229 19.4941 31.2482V23.072L30.2809 27.3753L30.3096 55.332Z" fill="#3C255F"/>
</svg>
