<?xml version="1.0" encoding="utf-8"?>
<!-- Generator: Adobe Illustrator 24.0.1, SVG Export Plug-In . SVG Version: 6.00 Build 0)  -->
<svg version="1.1" id="new_logo_master" xmlns="http://www.w3.org/2000/svg" xmlns:xlink="http://www.w3.org/1999/xlink" x="0px"
	 y="0px" viewBox="0 0 152.6 78.3" style="enable-background:new 0 0 152.6 78.3;" xml:space="preserve">
<style type="text/css">
	.st110{fill:#CCDEEE;}
</style>
<g>
	<g>
		<path class="st110" d="M24.9,0c1.1,0,2,0.9,2,2c0,1.1-0.9,2-2,2s-2-0.9-2-2C22.9,0.9,23.8,0,24.9,0"/>
	</g>
	<g>
		<path class="st110" d="M34.3,2c0,1.1,0.9,2,2,2c1.1,0,2-0.9,2-2c0-1.1-0.9-2-2-2C35.2,0,34.3,0.9,34.3,2"/>
	</g>
	<g>
		<path class="st110" d="M40,2c0,1.1,0.9,2,2,2c1.1,0,2-0.9,2-2c0-1.1-0.9-2-2-2C40.9,0,40,0.9,40,2"/>
	</g>
	<g>
		<path class="st110" d="M45.7,2c0,1.1,0.9,2,2,2c1.1,0,2-0.9,2-2c0-1.1-0.9-2-2-2C46.6,0,45.7,0.9,45.7,2"/>
	</g>
	<g>
		<path class="st110" d="M57.1,2c0,1.1,0.9,2,2,2c1.1,0,2-0.9,2-2c0-1.1-0.9-2-2-2C58.1,0,57.1,0.9,57.1,2"/>
	</g>
	<g>
		<path class="st110" d="M62.9,2c0,1.1,0.9,2,2,2c1.1,0,2-0.9,2-2c0-1.1-0.9-2-2-2C63.8,0,62.9,0.9,62.9,2"/>
	</g>
	<g>
		<path class="st110" d="M80,2c0,1.1,0.9,2,2,2c1.1,0,2-0.9,2-2c0-1.1-0.9-2-2-2C80.9,0,80,0.9,80,2"/>
	</g>
	<g>
		<path class="st110" d="M97.1,2c0,1.1,0.9,2,2,2c1.1,0,2-0.9,2-2c0-1.1-0.9-2-2-2C98.1,0,97.1,0.9,97.1,2"/>
	</g>
	<g>
		<path class="st110" d="M114.3,2c0,1.1,0.9,2,2,2c1.1,0,2-0.9,2-2c0-1.1-0.9-2-2-2C115.2,0,114.3,0.9,114.3,2"/>
	</g>
	<g>
		<path class="st110" d="M17.1,7.7c0,1.1,0.9,2,2,2c1.1,0,2-0.9,2-2c0-1.1-0.9-2-2-2C18,5.7,17.1,6.6,17.1,7.7"/>
	</g>
	<g>
		<path class="st110" d="M22.9,7.7c0,1.1,0.9,2,2,2c1.1,0,2-0.9,2-2c0-1.1-0.9-2-2-2C23.8,5.7,22.9,6.6,22.9,7.7"/>
	</g>
	<g>
		<path class="st110" d="M28.6,7.7c0,1.1,0.9,2,2,2c1.1,0,2-0.9,2-2c0-1.1-0.9-2-2-2C29.5,5.7,28.6,6.6,28.6,7.7"/>
	</g>
	<g>
		<path class="st110" d="M34.3,7.7c0,1.1,0.9,2,2,2c1.1,0,2-0.9,2-2c0-1.1-0.9-2-2-2C35.2,5.7,34.3,6.6,34.3,7.7"/>
	</g>
	<g>
		<path class="st110" d="M45.7,7.7c0,1.1,0.9,2,2,2c1.1,0,2-0.9,2-2c0-1.1-0.9-2-2-2C46.6,5.7,45.7,6.6,45.7,7.7"/>
	</g>
	<g>
		<path class="st110" d="M51.4,7.7c0,1.1,0.9,2,2,2c1.1,0,2-0.9,2-2c0-1.1-0.9-2-2-2C52.3,5.7,51.4,6.6,51.4,7.7"/>
	</g>
	<g>
		<path class="st110" d="M57.1,7.7c0,1.1,0.9,2,2,2c1.1,0,2-0.9,2-2c0-1.1-0.9-2-2-2C58.1,5.7,57.1,6.6,57.1,7.7"/>
	</g>
	<g>
		<path class="st110" d="M91.4,7.7c0,1.1,0.9,2,2,2c1.1,0,2-0.9,2-2c0-1.1-0.9-2-2-2C92.3,5.7,91.4,6.6,91.4,7.7"/>
	</g>
	<g>
		<path class="st110" d="M102.9,7.7c0,1.1,0.9,2,2,2c1.1,0,2-0.9,2-2c0-1.1-0.9-2-2-2C103.8,5.7,102.9,6.6,102.9,7.7"/>
	</g>
	<g>
		<path class="st110" d="M108.6,7.7c0,1.1,0.9,2,2,2c1.1,0,2-0.9,2-2c0-1.1-0.9-2-2-2C109.5,5.7,108.6,6.6,108.6,7.7"/>
	</g>
	<g>
		<path class="st110" d="M114.3,7.7c0,1.1,0.9,2,2,2c1.1,0,2-0.9,2-2c0-1.1-0.9-2-2-2C115.2,5.7,114.3,6.6,114.3,7.7"/>
	</g>
	<g>
		<path class="st110" d="M120,7.7c0,1.1,0.9,2,2,2c1.1,0,2-0.9,2-2c0-1.1-0.9-2-2-2C120.9,5.7,120,6.6,120,7.7"/>
	</g>
	<g>
		<path class="st110" d="M125.7,7.7c0,1.1,0.9,2,2,2c1.1,0,2-0.9,2-2c0-1.1-0.9-2-2-2C126.6,5.7,125.7,6.6,125.7,7.7"/>
	</g>
	<g>
		<path class="st110" d="M131.4,7.7c0,1.1,0.9,2,2,2c1.1,0,2-0.9,2-2c0-1.1-0.9-2-2-2C132.3,5.7,131.4,6.6,131.4,7.7"/>
	</g>
	<g>
		<path class="st110" d="M5.7,13.5c0,1.1,0.9,2,2,2c1.1,0,2-0.9,2-2c0-1.1-0.9-2-2-2C6.6,11.4,5.7,12.3,5.7,13.5"/>
	</g>
	<g>
		<path class="st110" d="M11.4,13.5c0,1.1,0.9,2,2,2c1.1,0,2-0.9,2-2c0-1.1-0.9-2-2-2C12.3,11.4,11.4,12.3,11.4,13.5"/>
	</g>
	<g>
		<path class="st110" d="M17.1,13.5c0,1.1,0.9,2,2,2c1.1,0,2-0.9,2-2c0-1.1-0.9-2-2-2C18,11.4,17.1,12.3,17.1,13.5"/>
	</g>
	<g>
		<path class="st110" d="M22.9,13.5c0,1.1,0.9,2,2,2c1.1,0,2-0.9,2-2c0-1.1-0.9-2-2-2C23.8,11.4,22.9,12.3,22.9,13.5"/>
	</g>
	<g>
		<path class="st110" d="M28.6,13.5c0,1.1,0.9,2,2,2c1.1,0,2-0.9,2-2c0-1.1-0.9-2-2-2C29.5,11.4,28.6,12.3,28.6,13.5"/>
	</g>
	<g>
		<path class="st110" d="M34.3,13.5c0,1.1,0.9,2,2,2c1.1,0,2-0.9,2-2c0-1.1-0.9-2-2-2C35.2,11.4,34.3,12.3,34.3,13.5"/>
	</g>
	<g>
		<path class="st110" d="M40,13.5c0,1.1,0.9,2,2,2c1.1,0,2-0.9,2-2c0-1.1-0.9-2-2-2C40.9,11.4,40,12.3,40,13.5"/>
	</g>
	<g>
		<path class="st110" d="M51.4,13.5c0,1.1,0.9,2,2,2c1.1,0,2-0.9,2-2c0-1.1-0.9-2-2-2C52.3,11.4,51.4,12.3,51.4,13.5"/>
	</g>
	<g>
		<path class="st110" d="M57.1,13.5c0,1.1,0.9,2,2,2c1.1,0,2-0.9,2-2c0-1.1-0.9-2-2-2C58.1,11.4,57.1,12.3,57.1,13.5"/>
	</g>
	<g>
		<path class="st110" d="M82,11.4c-1.1,0-2,0.9-2,2c0,1.1,0.9,2,2,2c1.1,0,2-0.9,2-2C84,12.3,83.1,11.4,82,11.4"/>
	</g>
	<g>
		<path class="st110" d="M85.7,13.5c0,1.1,0.9,2,2,2c1.1,0,2-0.9,2-2c0-1.1-0.9-2-2-2C86.6,11.4,85.7,12.3,85.7,13.5"/>
	</g>
	<g>
		<path class="st110" d="M91.4,13.5c0,1.1,0.9,2,2,2c1.1,0,2-0.9,2-2c0-1.1-0.9-2-2-2C92.3,11.4,91.4,12.3,91.4,13.5"/>
	</g>
	<g>
		<path class="st110" d="M97.1,13.5c0,1.1,0.9,2,2,2c1.1,0,2-0.9,2-2c0-1.1-0.9-2-2-2C98.1,11.4,97.1,12.3,97.1,13.5"/>
	</g>
	<g>
		<path class="st110" d="M102.9,13.5c0,1.1,0.9,2,2,2c1.1,0,2-0.9,2-2c0-1.1-0.9-2-2-2C103.8,11.4,102.9,12.3,102.9,13.5"/>
	</g>
	<g>
		<path class="st110" d="M108.6,13.5c0,1.1,0.9,2,2,2c1.1,0,2-0.9,2-2c0-1.1-0.9-2-2-2C109.5,11.4,108.6,12.3,108.6,13.5"/>
	</g>
	<g>
		<path class="st110" d="M114.3,13.5c0,1.1,0.9,2,2,2c1.1,0,2-0.9,2-2c0-1.1-0.9-2-2-2C115.2,11.4,114.3,12.3,114.3,13.5"/>
	</g>
	<g>
		<path class="st110" d="M120,13.5c0,1.1,0.9,2,2,2c1.1,0,2-0.9,2-2c0-1.1-0.9-2-2-2C120.9,11.4,120,12.3,120,13.5"/>
	</g>
	<g>
		<path class="st110" d="M125.7,13.5c0,1.1,0.9,2,2,2c1.1,0,2-0.9,2-2c0-1.1-0.9-2-2-2C126.6,11.4,125.7,12.3,125.7,13.5"/>
	</g>
	<g>
		<path class="st110" d="M131.4,13.5c0,1.1,0.9,2,2,2c1.1,0,2-0.9,2-2c0-1.1-0.9-2-2-2C132.3,11.4,131.4,12.3,131.4,13.5"/>
	</g>
	<g>
		<path class="st110" d="M137.1,13.5c0,1.1,0.9,2,2,2c1.1,0,2-0.9,2-2c0-1.1-0.9-2-2-2C138.1,11.4,137.1,12.3,137.1,13.5"/>
	</g>
	<g>
		<path class="st110" d="M0,19.2c0,1.1,0.9,2,2,2c1.1,0,2-0.9,2-2c0-1.1-0.9-2-2-2C0.9,17.1,0,18,0,19.2"/>
	</g>
	<g>
		<path class="st110" d="M5.7,19.2c0,1.1,0.9,2,2,2c1.1,0,2-0.9,2-2c0-1.1-0.9-2-2-2C6.6,17.1,5.7,18,5.7,19.2"/>
	</g>
	<g>
		<path class="st110" d="M11.4,19.2c0,1.1,0.9,2,2,2c1.1,0,2-0.9,2-2c0-1.1-0.9-2-2-2C12.3,17.1,11.4,18,11.4,19.2"/>
	</g>
	<g>
		<path class="st110" d="M17.1,19.2c0,1.1,0.9,2,2,2c1.1,0,2-0.9,2-2s-0.9-2-2-2C18,17.1,17.1,18,17.1,19.2"/>
	</g>
	<g>
		<path class="st110" d="M22.9,19.2c0,1.1,0.9,2,2,2c1.1,0,2-0.9,2-2s-0.9-2-2-2C23.8,17.1,22.9,18,22.9,19.2"/>
	</g>
	<g>
		<path class="st110" d="M28.6,19.2c0,1.1,0.9,2,2,2c1.1,0,2-0.9,2-2s-0.9-2-2-2C29.5,17.1,28.6,18,28.6,19.2"/>
	</g>
	<g>
		<path class="st110" d="M34.3,19.2c0,1.1,0.9,2,2,2c1.1,0,2-0.9,2-2s-0.9-2-2-2C35.2,17.1,34.3,18,34.3,19.2"/>
	</g>
	<g>
		<path class="st110" d="M40,19.2c0,1.1,0.9,2,2,2c1.1,0,2-0.9,2-2s-0.9-2-2-2C40.9,17.1,40,18,40,19.2"/>
	</g>
	<g>
		<path class="st110" d="M51.4,19.2c0,1.1,0.9,2,2,2c1.1,0,2-0.9,2-2s-0.9-2-2-2C52.3,17.1,51.4,18,51.4,19.2"/>
	</g>
	<g>
		<path class="st110" d="M62.9,19.2c0,1.1,0.9,2,2,2c1.1,0,2-0.9,2-2c0-1.1-0.9-2-2-2C63.8,17.1,62.9,18,62.9,19.2"/>
	</g>
	<g>
		<path class="st110" d="M74.3,19.2c0,1.1,0.9,2,2,2c1.1,0,2-0.9,2-2c0-1.1-0.9-2-2-2C75.2,17.1,74.3,18,74.3,19.2"/>
	</g>
	<g>
		<path class="st110" d="M80,19.2c0,1.1,0.9,2,2,2c1.1,0,2-0.9,2-2c0-1.1-0.9-2-2-2C80.9,17.1,80,18,80,19.2"/>
	</g>
	<g>
		<path class="st110" d="M85.7,19.2c0,1.1,0.9,2,2,2c1.1,0,2-0.9,2-2s-0.9-2-2-2C86.6,17.1,85.7,18,85.7,19.2"/>
	</g>
	<g>
		<path class="st110" d="M91.4,19.2c0,1.1,0.9,2,2,2c1.1,0,2-0.9,2-2c0-1.1-0.9-2-2-2C92.3,17.1,91.4,18,91.4,19.2"/>
	</g>
	<g>
		<path class="st110" d="M97.1,19.2c0,1.1,0.9,2,2,2c1.1,0,2-0.9,2-2s-0.9-2-2-2C98.1,17.1,97.1,18,97.1,19.2"/>
	</g>
	<g>
		<path class="st110" d="M102.9,19.2c0,1.1,0.9,2,2,2c1.1,0,2-0.9,2-2s-0.9-2-2-2C103.8,17.1,102.9,18,102.9,19.2"/>
	</g>
	<g>
		<path class="st110" d="M108.6,19.2c0,1.1,0.9,2,2,2c1.1,0,2-0.9,2-2s-0.9-2-2-2C109.5,17.1,108.6,18,108.6,19.2"/>
	</g>
	<g>
		<path class="st110" d="M114.3,19.2c0,1.1,0.9,2,2,2c1.1,0,2-0.9,2-2c0-1.1-0.9-2-2-2C115.2,17.1,114.3,18,114.3,19.2"/>
	</g>
	<g>
		<path class="st110" d="M120,19.2c0,1.1,0.9,2,2,2c1.1,0,2-0.9,2-2c0-1.1-0.9-2-2-2C120.9,17.1,120,18,120,19.2"/>
	</g>
	<g>
		<path class="st110" d="M125.7,19.2c0,1.1,0.9,2,2,2c1.1,0,2-0.9,2-2s-0.9-2-2-2C126.6,17.1,125.7,18,125.7,19.2"/>
	</g>
	<g>
		<path class="st110" d="M131.4,19.2c0,1.1,0.9,2,2,2c1.1,0,2-0.9,2-2c0-1.1-0.9-2-2-2C132.3,17.1,131.4,18,131.4,19.2"/>
	</g>
	<g>
		<path class="st110" d="M137.1,19.2c0,1.1,0.9,2,2,2c1.1,0,2-0.9,2-2c0-1.1-0.9-2-2-2C138.1,17.1,137.1,18,137.1,19.2"/>
	</g>
	<g>
		<path class="st110" d="M5.7,24.9c0,1.1,0.9,2,2,2c1.1,0,2-0.9,2-2c0-1.1-0.9-2-2-2C6.6,22.9,5.7,23.8,5.7,24.9"/>
	</g>
	<g>
		<path class="st110" d="M11.4,24.9c0,1.1,0.9,2,2,2c1.1,0,2-0.9,2-2c0-1.1-0.9-2-2-2C12.3,22.9,11.4,23.8,11.4,24.9"/>
	</g>
	<g>
		<path class="st110" d="M17.1,24.9c0,1.1,0.9,2,2,2c1.1,0,2-0.9,2-2s-0.9-2-2-2C18,22.9,17.1,23.8,17.1,24.9"/>
	</g>
	<g>
		<path class="st110" d="M22.9,24.9c0,1.1,0.9,2,2,2c1.1,0,2-0.9,2-2s-0.9-2-2-2C23.8,22.9,22.9,23.8,22.9,24.9"/>
	</g>
	<g>
		<path class="st110" d="M28.6,24.9c0,1.1,0.9,2,2,2c1.1,0,2-0.9,2-2s-0.9-2-2-2C29.5,22.9,28.6,23.8,28.6,24.9"/>
	</g>
	<g>
		<path class="st110" d="M34.3,24.9c0,1.1,0.9,2,2,2c1.1,0,2-0.9,2-2s-0.9-2-2-2C35.2,22.9,34.3,23.8,34.3,24.9"/>
	</g>
	<g>
		<path class="st110" d="M40,24.9c0,1.1,0.9,2,2,2c1.1,0,2-0.9,2-2s-0.9-2-2-2C40.9,22.9,40,23.8,40,24.9"/>
	</g>
	<g>
		<path class="st110" d="M68.6,24.9c0,1.1,0.9,2,2,2c1.1,0,2-0.9,2-2c0-1.1-0.9-2-2-2C69.5,22.9,68.6,23.8,68.6,24.9"/>
	</g>
	<g>
		<path class="st110" d="M74.3,24.9c0,1.1,0.9,2,2,2c1.1,0,2-0.9,2-2c0-1.1-0.9-2-2-2C75.2,22.9,74.3,23.8,74.3,24.9"/>
	</g>
	<g>
		<path class="st110" d="M80,24.9c0,1.1,0.9,2,2,2c1.1,0,2-0.9,2-2c0-1.1-0.9-2-2-2C80.9,22.9,80,23.8,80,24.9"/>
	</g>
	<g>
		<path class="st110" d="M85.7,24.9c0,1.1,0.9,2,2,2c1.1,0,2-0.9,2-2s-0.9-2-2-2C86.6,22.9,85.7,23.8,85.7,24.9"/>
	</g>
	<g>
		<path class="st110" d="M91.4,24.9c0,1.1,0.9,2,2,2c1.1,0,2-0.9,2-2c0-1.1-0.9-2-2-2C92.3,22.9,91.4,23.8,91.4,24.9"/>
	</g>
	<g>
		<path class="st110" d="M97.1,24.9c0,1.1,0.9,2,2,2c1.1,0,2-0.9,2-2s-0.9-2-2-2C98.1,22.9,97.1,23.8,97.1,24.9"/>
	</g>
	<g>
		<path class="st110" d="M102.9,24.9c0,1.1,0.9,2,2,2c1.1,0,2-0.9,2-2s-0.9-2-2-2C103.8,22.9,102.9,23.8,102.9,24.9"/>
	</g>
	<g>
		<path class="st110" d="M108.6,24.9c0,1.1,0.9,2,2,2c1.1,0,2-0.9,2-2s-0.9-2-2-2C109.5,22.9,108.6,23.8,108.6,24.9"/>
	</g>
	<g>
		<path class="st110" d="M114.3,24.9c0,1.1,0.9,2,2,2c1.1,0,2-0.9,2-2c0-1.1-0.9-2-2-2C115.2,22.9,114.3,23.8,114.3,24.9"/>
	</g>
	<g>
		<path class="st110" d="M120,24.9c0,1.1,0.9,2,2,2c1.1,0,2-0.9,2-2c0-1.1-0.9-2-2-2C120.9,22.9,120,23.8,120,24.9"/>
	</g>
	<g>
		<path class="st110" d="M125.7,24.9c0,1.1,0.9,2,2,2c1.1,0,2-0.9,2-2s-0.9-2-2-2C126.6,22.9,125.7,23.8,125.7,24.9"/>
	</g>
	<g>
		<path class="st110" d="M131.4,24.9c0,1.1,0.9,2,2,2c1.1,0,2-0.9,2-2c0-1.1-0.9-2-2-2C132.3,22.9,131.4,23.8,131.4,24.9"/>
	</g>
	<g>
		<path class="st110" d="M137.1,24.9c0,1.1,0.9,2,2,2c1.1,0,2-0.9,2-2c0-1.1-0.9-2-2-2C138.1,22.9,137.1,23.8,137.1,24.9"/>
	</g>
	<g>
		<path class="st110" d="M17.1,30.6c0,1.1,0.9,2,2,2c1.1,0,2-0.9,2-2s-0.9-2-2-2C18,28.6,17.1,29.5,17.1,30.6"/>
	</g>
	<g>
		<path class="st110" d="M22.9,30.6c0,1.1,0.9,2,2,2c1.1,0,2-0.9,2-2s-0.9-2-2-2C23.8,28.6,22.9,29.5,22.9,30.6"/>
	</g>
	<g>
		<path class="st110" d="M28.6,30.6c0,1.1,0.9,2,2,2c1.1,0,2-0.9,2-2s-0.9-2-2-2C29.5,28.6,28.6,29.5,28.6,30.6"/>
	</g>
	<g>
		<path class="st110" d="M34.3,30.6c0,1.1,0.9,2,2,2c1.1,0,2-0.9,2-2s-0.9-2-2-2C35.2,28.6,34.3,29.5,34.3,30.6"/>
	</g>
	<g>
		<path class="st110" d="M40,30.6c0,1.1,0.9,2,2,2c1.1,0,2-0.9,2-2s-0.9-2-2-2C40.9,28.6,40,29.5,40,30.6"/>
	</g>
	<g>
		<path class="st110" d="M45.7,30.6c0,1.1,0.9,2,2,2c1.1,0,2-0.9,2-2s-0.9-2-2-2C46.6,28.6,45.7,29.5,45.7,30.6"/>
	</g>
	<g>
		<path class="st110" d="M68.6,30.6c0,1.1,0.9,2,2,2c1.1,0,2-0.9,2-2c0-1.1-0.9-2-2-2C69.5,28.6,68.6,29.5,68.6,30.6"/>
	</g>
	<g>
		<path class="st110" d="M74.3,30.6c0,1.1,0.9,2,2,2c1.1,0,2-0.9,2-2c0-1.1-0.9-2-2-2C75.2,28.6,74.3,29.5,74.3,30.6"/>
	</g>
	<g>
		<path class="st110" d="M80,30.6c0,1.1,0.9,2,2,2c1.1,0,2-0.9,2-2c0-1.1-0.9-2-2-2C80.9,28.6,80,29.5,80,30.6"/>
	</g>
	<g>
		<path class="st110" d="M85.7,30.6c0,1.1,0.9,2,2,2c1.1,0,2-0.9,2-2s-0.9-2-2-2C86.6,28.6,85.7,29.5,85.7,30.6"/>
	</g>
	<g>
		<path class="st110" d="M91.4,30.6c0,1.1,0.9,2,2,2c1.1,0,2-0.9,2-2c0-1.1-0.9-2-2-2C92.3,28.6,91.4,29.5,91.4,30.6"/>
	</g>
	<g>
		<path class="st110" d="M97.1,30.6c0,1.1,0.9,2,2,2c1.1,0,2-0.9,2-2s-0.9-2-2-2C98.1,28.6,97.1,29.5,97.1,30.6"/>
	</g>
	<g>
		<path class="st110" d="M102.9,30.6c0,1.1,0.9,2,2,2c1.1,0,2-0.9,2-2s-0.9-2-2-2C103.8,28.6,102.9,29.5,102.9,30.6"/>
	</g>
	<g>
		<path class="st110" d="M108.6,30.6c0,1.1,0.9,2,2,2c1.1,0,2-0.9,2-2s-0.9-2-2-2C109.5,28.6,108.6,29.5,108.6,30.6"/>
	</g>
	<g>
		<path class="st110" d="M114.3,30.6c0,1.1,0.9,2,2,2c1.1,0,2-0.9,2-2c0-1.1-0.9-2-2-2C115.2,28.6,114.3,29.5,114.3,30.6"/>
	</g>
	<g>
		<path class="st110" d="M120,30.6c0,1.1,0.9,2,2,2c1.1,0,2-0.9,2-2c0-1.1-0.9-2-2-2C120.9,28.6,120,29.5,120,30.6"/>
	</g>
	<g>
		<path class="st110" d="M125.7,30.6c0,1.1,0.9,2,2,2c1.1,0,2-0.9,2-2s-0.9-2-2-2C126.6,28.6,125.7,29.5,125.7,30.6"/>
	</g>
	<g>
		<path class="st110" d="M137.1,30.6c0,1.1,0.9,2,2,2c1.1,0,2-0.9,2-2c0-1.1-0.9-2-2-2C138.1,28.6,137.1,29.5,137.1,30.6"/>
	</g>
	<g>
		<path class="st110" d="M17.1,36.3c0,1.1,0.9,2,2,2c1.1,0,2-0.9,2-2s-0.9-2-2-2C18,34.3,17.1,35.2,17.1,36.3"/>
	</g>
	<g>
		<path class="st110" d="M22.9,36.3c0,1.1,0.9,2,2,2c1.1,0,2-0.9,2-2s-0.9-2-2-2C23.8,34.3,22.9,35.2,22.9,36.3"/>
	</g>
	<g>
		<path class="st110" d="M28.6,36.3c0,1.1,0.9,2,2,2c1.1,0,2-0.9,2-2s-0.9-2-2-2C29.5,34.3,28.6,35.2,28.6,36.3"/>
	</g>
	<g>
		<path class="st110" d="M34.3,36.3c0,1.1,0.9,2,2,2c1.1,0,2-0.9,2-2s-0.9-2-2-2C35.2,34.3,34.3,35.2,34.3,36.3"/>
	</g>
	<g>
		<path class="st110" d="M40,36.3c0,1.1,0.9,2,2,2c1.1,0,2-0.9,2-2s-0.9-2-2-2C40.9,34.3,40,35.2,40,36.3"/>
	</g>
	<g>
		<path class="st110" d="M68.6,36.3c0,1.1,0.9,2,2,2c1.1,0,2-0.9,2-2c0-1.1-0.9-2-2-2C69.5,34.3,68.6,35.2,68.6,36.3"/>
	</g>
	<g>
		<path class="st110" d="M80,36.3c0,1.1,0.9,2,2,2c1.1,0,2-0.9,2-2c0-1.1-0.9-2-2-2C80.9,34.3,80,35.2,80,36.3"/>
	</g>
	<g>
		<path class="st110" d="M85.7,36.3c0,1.1,0.9,2,2,2c1.1,0,2-0.9,2-2s-0.9-2-2-2C86.6,34.3,85.7,35.2,85.7,36.3"/>
	</g>
	<g>
		<path class="st110" d="M91.4,36.3c0,1.1,0.9,2,2,2c1.1,0,2-0.9,2-2c0-1.1-0.9-2-2-2C92.3,34.3,91.4,35.2,91.4,36.3"/>
	</g>
	<g>
		<path class="st110" d="M97.1,36.3c0,1.1,0.9,2,2,2c1.1,0,2-0.9,2-2s-0.9-2-2-2C98.1,34.3,97.1,35.2,97.1,36.3"/>
	</g>
	<g>
		<path class="st110" d="M102.9,36.3c0,1.1,0.9,2,2,2c1.1,0,2-0.9,2-2s-0.9-2-2-2C103.8,34.3,102.9,35.2,102.9,36.3"/>
	</g>
	<g>
		<path class="st110" d="M108.6,36.3c0,1.1,0.9,2,2,2c1.1,0,2-0.9,2-2s-0.9-2-2-2C109.5,34.3,108.6,35.2,108.6,36.3"/>
	</g>
	<g>
		<path class="st110" d="M114.3,36.3c0,1.1,0.9,2,2,2c1.1,0,2-0.9,2-2c0-1.1-0.9-2-2-2C115.2,34.3,114.3,35.2,114.3,36.3"/>
	</g>
	<g>
		<path class="st110" d="M120,36.3c0,1.1,0.9,2,2,2c1.1,0,2-0.9,2-2c0-1.1-0.9-2-2-2C120.9,34.3,120,35.2,120,36.3"/>
	</g>
	<g>
		<path class="st110" d="M125.7,36.3c0,1.1,0.9,2,2,2c1.1,0,2-0.9,2-2s-0.9-2-2-2C126.6,34.3,125.7,35.2,125.7,36.3"/>
	</g>
	<g>
		<path class="st110" d="M131.4,36.3c0,1.1,0.9,2,2,2c1.1,0,2-0.9,2-2c0-1.1-0.9-2-2-2C132.3,34.3,131.4,35.2,131.4,36.3"/>
	</g>
	<g>
		<path class="st110" d="M22.9,42c0,1.1,0.9,2,2,2c1.1,0,2-0.9,2-2s-0.9-2-2-2C23.8,40,22.9,40.9,22.9,42"/>
	</g>
	<g>
		<path class="st110" d="M28.6,42c0,1.1,0.9,2,2,2c1.1,0,2-0.9,2-2s-0.9-2-2-2C29.5,40,28.6,40.9,28.6,42"/>
	</g>
	<g>
		<path class="st110" d="M34.3,42c0,1.1,0.9,2,2,2c1.1,0,2-0.9,2-2s-0.9-2-2-2C35.2,40,34.3,40.9,34.3,42"/>
	</g>
	<g>
		<path class="st110" d="M62.9,42c0,1.1,0.9,2,2,2c1.1,0,2-0.9,2-2c0-1.1-0.9-2-2-2C63.8,40,62.9,40.9,62.9,42"/>
	</g>
	<g>
		<path class="st110" d="M68.6,42c0,1.1,0.9,2,2,2c1.1,0,2-0.9,2-2c0-1.1-0.9-2-2-2C69.5,40,68.6,40.9,68.6,42"/>
	</g>
	<g>
		<path class="st110" d="M74.3,42c0,1.1,0.9,2,2,2c1.1,0,2-0.9,2-2c0-1.1-0.9-2-2-2C75.2,40,74.3,40.9,74.3,42"/>
	</g>
	<g>
		<path class="st110" d="M80,42c0,1.1,0.9,2,2,2c1.1,0,2-0.9,2-2c0-1.1-0.9-2-2-2C80.9,40,80,40.9,80,42"/>
	</g>
	<g>
		<path class="st110" d="M85.7,42c0,1.1,0.9,2,2,2c1.1,0,2-0.9,2-2s-0.9-2-2-2C86.6,40,85.7,40.9,85.7,42"/>
	</g>
	<g>
		<path class="st110" d="M91.4,42c0,1.1,0.9,2,2,2c1.1,0,2-0.9,2-2c0-1.1-0.9-2-2-2C92.3,40,91.4,40.9,91.4,42"/>
	</g>
	<g>
		<path class="st110" d="M97.1,42c0,1.1,0.9,2,2,2c1.1,0,2-0.9,2-2s-0.9-2-2-2C98.1,40,97.1,40.9,97.1,42"/>
	</g>
	<g>
		<path class="st110" d="M102.9,42c0,1.1,0.9,2,2,2c1.1,0,2-0.9,2-2s-0.9-2-2-2C103.8,40,102.9,40.9,102.9,42"/>
	</g>
	<g>
		<path class="st110" d="M108.6,42c0,1.1,0.9,2,2,2c1.1,0,2-0.9,2-2s-0.9-2-2-2C109.5,40,108.6,40.9,108.6,42"/>
	</g>
	<g>
		<path class="st110" d="M114.3,42c0,1.1,0.9,2,2,2c1.1,0,2-0.9,2-2c0-1.1-0.9-2-2-2C115.2,40,114.3,40.9,114.3,42"/>
	</g>
	<g>
		<path class="st110" d="M120,42c0,1.1,0.9,2,2,2c1.1,0,2-0.9,2-2c0-1.1-0.9-2-2-2C120.9,40,120,40.9,120,42"/>
	</g>
	<g>
		<path class="st110" d="M125.7,42c0,1.1,0.9,2,2,2c1.1,0,2-0.9,2-2s-0.9-2-2-2C126.6,40,125.7,40.9,125.7,42"/>
	</g>
	<g>
		<path class="st110" d="M30.6,45.7c-1.1,0-2,0.9-2,2c0,1.1,0.9,2,2,2c1.1,0,2-0.9,2-2C32.6,46.6,31.7,45.7,30.6,45.7"/>
	</g>
	<g>
		<path class="st110" d="M36.3,45.7c-1.1,0-2,0.9-2,2c0,1.1,0.9,2,2,2c1.1,0,2-0.9,2-2C38.3,46.6,37.4,45.7,36.3,45.7"/>
	</g>
	<g>
		<path class="st110" d="M42,45.7c-1.1,0-2,0.9-2,2c0,1.1,0.9,2,2,2c1.1,0,2-0.9,2-2C44,46.6,43.1,45.7,42,45.7"/>
	</g>
	<g>
		<path class="st110" d="M64.9,45.7c-1.1,0-2,0.9-2,2c0,1.1,0.9,2,2,2c1.1,0,2-0.9,2-2C66.9,46.6,66,45.7,64.9,45.7"/>
	</g>
	<g>
		<path class="st110" d="M70.6,45.7c-1.1,0-2,0.9-2,2c0,1.1,0.9,2,2,2c1.1,0,2-0.9,2-2C72.6,46.6,71.7,45.7,70.6,45.7"/>
	</g>
	<g>
		<path class="st110" d="M76.3,45.7c-1.1,0-2,0.9-2,2c0,1.1,0.9,2,2,2c1.1,0,2-0.9,2-2C78.3,46.6,77.4,45.7,76.3,45.7"/>
	</g>
	<g>
		<path class="st110" d="M82,45.7c-1.1,0-2,0.9-2,2c0,1.1,0.9,2,2,2c1.1,0,2-0.9,2-2C84,46.6,83.1,45.7,82,45.7"/>
	</g>
	<g>
		<path class="st110" d="M87.7,45.7c-1.1,0-2,0.9-2,2c0,1.1,0.9,2,2,2c1.1,0,2-0.9,2-2C89.8,46.6,88.9,45.7,87.7,45.7"/>
	</g>
	<g>
		<path class="st110" d="M93.5,45.7c-1.1,0-2,0.9-2,2c0,1.1,0.9,2,2,2c1.1,0,2-0.9,2-2C95.5,46.6,94.6,45.7,93.5,45.7"/>
	</g>
	<g>
		<path class="st110" d="M104.9,45.7c-1.1,0-2,0.9-2,2c0,1.1,0.9,2,2,2c1.1,0,2-0.9,2-2C106.9,46.6,106,45.7,104.9,45.7"/>
	</g>
	<g>
		<path class="st110" d="M116.3,45.7c-1.1,0-2,0.9-2,2c0,1.1,0.9,2,2,2c1.1,0,2-0.9,2-2C118.3,46.6,117.4,45.7,116.3,45.7"/>
	</g>
	<g>
		<path class="st110" d="M122,45.7c-1.1,0-2,0.9-2,2c0,1.1,0.9,2,2,2c1.1,0,2-0.9,2-2C124,46.6,123.1,45.7,122,45.7"/>
	</g>
	<g>
		<path class="st110" d="M40,53.5c0,1.1,0.9,2,2,2c1.1,0,2-0.9,2-2s-0.9-2-2-2C40.9,51.4,40,52.3,40,53.5"/>
	</g>
	<g>
		<path class="st110" d="M45.7,53.5c0,1.1,0.9,2,2,2c1.1,0,2-0.9,2-2s-0.9-2-2-2C46.6,51.4,45.7,52.3,45.7,53.5"/>
	</g>
	<g>
		<path class="st110" d="M68.6,53.5c0,1.1,0.9,2,2,2c1.1,0,2-0.9,2-2s-0.9-2-2-2C69.5,51.4,68.6,52.3,68.6,53.5"/>
	</g>
	<g>
		<path class="st110" d="M74.3,53.5c0,1.1,0.9,2,2,2c1.1,0,2-0.9,2-2s-0.9-2-2-2C75.2,51.4,74.3,52.3,74.3,53.5"/>
	</g>
	<g>
		<path class="st110" d="M80,53.5c0,1.1,0.9,2,2,2c1.1,0,2-0.9,2-2s-0.9-2-2-2C80.9,51.4,80,52.3,80,53.5"/>
	</g>
	<g>
		<path class="st110" d="M85.7,53.5c0,1.1,0.9,2,2,2c1.1,0,2-0.9,2-2s-0.9-2-2-2C86.6,51.4,85.7,52.3,85.7,53.5"/>
	</g>
	<g>
		<path class="st110" d="M40,59.2c0,1.1,0.9,2,2,2c1.1,0,2-0.9,2-2s-0.9-2-2-2C40.9,57.1,40,58.1,40,59.2"/>
	</g>
	<g>
		<path class="st110" d="M45.7,59.2c0,1.1,0.9,2,2,2c1.1,0,2-0.9,2-2s-0.9-2-2-2C46.6,57.1,45.7,58.1,45.7,59.2"/>
	</g>
	<g>
		<path class="st110" d="M34.3,59.2c0,1.1,0.9,2,2,2c1.1,0,2-0.9,2-2s-0.9-2-2-2C35.2,57.1,34.3,58.1,34.3,59.2"/>
	</g>
	<g>
		<path class="st110" d="M51.4,59.2c0,1.1,0.9,2,2,2c1.1,0,2-0.9,2-2s-0.9-2-2-2C52.3,57.1,51.4,58.1,51.4,59.2"/>
	</g>
	<g>
		<path class="st110" d="M74.3,59.2c0,1.1,0.9,2,2,2c1.1,0,2-0.9,2-2c0-1.1-0.9-2-2-2C75.2,57.1,74.3,58,74.3,59.2"/>
	</g>
	<g>
		<path class="st110" d="M82,57.1c-1.1,0-2,0.9-2,2c0,1.1,0.9,2,2,2c1.1,0,2-0.9,2-2C84,58.1,83.1,57.1,82,57.1"/>
	</g>
	<g>
		<path class="st110" d="M85.7,59.2c0,1.1,0.9,2,2,2c1.1,0,2-0.9,2-2s-0.9-2-2-2C86.6,57.1,85.7,58.1,85.7,59.2"/>
	</g>
	<g>
		<path class="st110" d="M114.3,59.2c0,1.1,0.9,2,2,2c1.1,0,2-0.9,2-2c0-1.1-0.9-2-2-2C115.2,57.1,114.3,58,114.3,59.2"/>
	</g>
	<g>
		<path class="st110" d="M120,59.2c0,1.1,0.9,2,2,2c1.1,0,2-0.9,2-2c0-1.1-0.9-2-2-2C120.9,57.1,120,58,120,59.2"/>
	</g>
	<g>
		<path class="st110" d="M125.7,59.2c0,1.1,0.9,2,2,2c1.1,0,2-0.9,2-2s-0.9-2-2-2C126.6,57.1,125.7,58.1,125.7,59.2"/>
	</g>
	<g>
		<path class="st110" d="M131.4,59.2c0,1.1,0.9,2,2,2c1.1,0,2-0.9,2-2c0-1.1-0.9-2-2-2C132.3,57.1,131.4,58,131.4,59.2"/>
	</g>
	<g>
		<path class="st110" d="M40,64.9c0,1.1,0.9,2,2,2c1.1,0,2-0.9,2-2c0-1.1-0.9-2-2-2C40.9,62.9,40,63.8,40,64.9"/>
	</g>
	<g>
		<path class="st110" d="M45.7,64.9c0,1.1,0.9,2,2,2c1.1,0,2-0.9,2-2c0-1.1-0.9-2-2-2C46.6,62.9,45.7,63.8,45.7,64.9"/>
	</g>
	<g>
		<path class="st110" d="M51.4,64.9c0,1.1,0.9,2,2,2c1.1,0,2-0.9,2-2c0-1.1-0.9-2-2-2C52.3,62.9,51.4,63.8,51.4,64.9"/>
	</g>
	<g>
		<path class="st110" d="M74.3,64.9c0,1.1,0.9,2,2,2c1.1,0,2-0.9,2-2c0-1.1-0.9-2-2-2C75.2,62.9,74.3,63.8,74.3,64.9"/>
	</g>
	<g>
		<path class="st110" d="M82,62.9c-1.1,0-2,0.9-2,2c0,1.1,0.9,2,2,2c1.1,0,2-0.9,2-2C84,63.8,83.1,62.9,82,62.9"/>
	</g>
	<g>
		<path class="st110" d="M91.4,64.9c0,1.1,0.9,2,2,2c1.1,0,2-0.9,2-2c0-1.1-0.9-2-2-2C92.3,62.9,91.4,63.8,91.4,64.9"/>
	</g>
	<g>
		<path class="st110" d="M120,64.9c0,1.1,0.9,2,2,2c1.1,0,2-0.9,2-2c0-1.1-0.9-2-2-2C120.9,62.9,120,63.8,120,64.9"/>
	</g>
	<g>
		<path class="st110" d="M125.7,64.9c0,1.1,0.9,2,2,2c1.1,0,2-0.9,2-2c0-1.1-0.9-2-2-2C126.6,62.9,125.7,63.8,125.7,64.9"/>
	</g>
	<g>
		<path class="st110" d="M125.7,70.6c0,1.1,0.9,2,2,2c1.1,0,2-0.9,2-2c0-1.1-0.9-2-2-2C126.6,68.6,125.7,69.5,125.7,70.6"/>
	</g>
	<g>
		<path class="st110" d="M131.4,64.9c0,1.1,0.9,2,2,2c1.1,0,2-0.9,2-2c0-1.1-0.9-2-2-2C132.3,62.9,131.4,63.8,131.4,64.9"/>
	</g>
	<g>
		<path class="st110" d="M137.1,64.9c0,1.1,0.9,2,2,2c1.1,0,2-0.9,2-2c0-1.1-0.9-2-2-2C138.1,62.9,137.1,63.8,137.1,64.9"/>
	</g>
	<g>
		<path class="st110" d="M40,70.6c0,1.1,0.9,2,2,2c1.1,0,2-0.9,2-2c0-1.1-0.9-2-2-2C40.9,68.6,40,69.5,40,70.6"/>
	</g>
	<g>
		<path class="st110" d="M45.7,70.6c0,1.1,0.9,2,2,2c1.1,0,2-0.9,2-2c0-1.1-0.9-2-2-2C46.6,68.6,45.7,69.5,45.7,70.6"/>
	</g>
	<g>
		<path class="st110" d="M80,70.6c0,1.1,0.9,2,2,2c1.1,0,2-0.9,2-2c0-1.1-0.9-2-2-2C80.9,68.6,80,69.5,80,70.6"/>
	</g>
	<g>
		<path class="st110" d="M120,70.6c0,1.1,0.9,2,2,2c1.1,0,2-0.9,2-2c0-1.1-0.9-2-2-2C120.9,68.6,120,69.5,120,70.6"/>
	</g>
	<g>
		<path class="st110" d="M131.4,70.6c0,1.1,0.9,2,2,2c1.1,0,2-0.9,2-2c0-1.1-0.9-2-2-2C132.3,68.6,131.4,69.5,131.4,70.6"/>
	</g>
	<g>
		<path class="st110" d="M40,76.3c0,1.1,0.9,2,2,2c1.1,0,2-0.9,2-2s-0.9-2-2-2C40.9,74.3,40,75.2,40,76.3"/>
	</g>
	<g>
		<path class="st110" d="M142.9,13.5c0,1.1,0.9,2,2,2c1.1,0,2-0.9,2-2c0-1.1-0.9-2-2-2C143.8,11.4,142.9,12.3,142.9,13.5"/>
	</g>
	<g>
		<path class="st110" d="M142.9,19.2c0,1.1,0.9,2,2,2c1.1,0,2-0.9,2-2s-0.9-2-2-2C143.8,17.1,142.9,18,142.9,19.2"/>
	</g>
	<g>
		<path class="st110" d="M148.6,19.2c0,1.1,0.9,2,2,2c1.1,0,2-0.9,2-2s-0.9-2-2-2C149.5,17.1,148.6,18,148.6,19.2"/>
	</g>
	<g>
		<path class="st110" d="M142.9,76.3c0,1.1,0.9,2,2,2c1.1,0,2-0.9,2-2s-0.9-2-2-2C143.8,74.3,142.9,75.2,142.9,76.3"/>
	</g>
</g>
</svg>
