<?xml version="1.0" encoding="utf-8"?>
<!-- Generator: Adobe Illustrator 24.0.1, SVG Export Plug-In . SVG Version: 6.00 Build 0)  -->
<svg version="1.1" id="new_logo_master" xmlns="http://www.w3.org/2000/svg" xmlns:xlink="http://www.w3.org/1999/xlink" x="0px"
	 y="0px" viewBox="0 0 26.9 32.6" style="enable-background:new 0 0 26.9 32.6;" xml:space="preserve">
<style type="text/css">
	.st110{fill:#CCDEEE;}
</style>
<g>
	<g>
		<g>
			<path class="st110" d="M0,19.2c0,1.1,0.9,2,2,2c1.1,0,2-0.9,2-2c0-1.1-0.9-2-2-2C0.9,17.1,0,18,0,19.2"/>
		</g>
		<g>
			<path class="st110" d="M5.7,19.2c0,1.1,0.9,2,2,2c1.1,0,2-0.9,2-2s-0.9-2-2-2C6.6,17.1,5.7,18,5.7,19.2"/>
		</g>
		<g>
			<path class="st110" d="M11.4,19.2c0,1.1,0.9,2,2,2c1.1,0,2-0.9,2-2c0-1.1-0.9-2-2-2C12.3,17.1,11.4,18,11.4,19.2"/>
		</g>
		<g>
			<path class="st110" d="M17.1,19.2c0,1.1,0.9,2,2,2c1.1,0,2-0.9,2-2s-0.9-2-2-2C18.1,17.1,17.1,18,17.1,19.2"/>
		</g>
		<g>
			<path class="st110" d="M22.9,19.2c0,1.1,0.9,2,2,2c1.1,0,2-0.9,2-2s-0.9-2-2-2C23.8,17.1,22.9,18,22.9,19.2"/>
		</g>
		<g>
			<path class="st110" d="M0,24.9c0,1.1,0.9,2,2,2c1.1,0,2-0.9,2-2s-0.9-2-2-2C0.9,22.9,0,23.8,0,24.9"/>
		</g>
		<g>
			<path class="st110" d="M5.7,24.9c0,1.1,0.9,2,2,2c1.1,0,2-0.9,2-2s-0.9-2-2-2C6.6,22.9,5.7,23.8,5.7,24.9"/>
		</g>
		<g>
			<path class="st110" d="M11.4,24.9c0,1.1,0.9,2,2,2c1.1,0,2-0.9,2-2s-0.9-2-2-2C12.3,22.9,11.4,23.8,11.4,24.9"/>
		</g>
		<g>
			<path class="st110" d="M17.1,24.9c0,1.1,0.9,2,2,2c1.1,0,2-0.9,2-2s-0.9-2-2-2C18.1,22.9,17.1,23.8,17.1,24.9"/>
		</g>
		<g>
			<path class="st110" d="M22.9,24.9c0,1.1,0.9,2,2,2c1.1,0,2-0.9,2-2s-0.9-2-2-2C23.8,22.9,22.9,23.8,22.9,24.9"/>
		</g>
		<g>
			<path class="st110" d="M0,30.6c0,1.1,0.9,2,2,2c1.1,0,2-0.9,2-2c0-1.1-0.9-2-2-2C0.9,28.6,0,29.5,0,30.6"/>
		</g>
		<g>
			<path class="st110" d="M5.7,30.6c0,1.1,0.9,2,2,2c1.1,0,2-0.9,2-2s-0.9-2-2-2C6.6,28.6,5.7,29.5,5.7,30.6"/>
		</g>
		<g>
			<path class="st110" d="M11.4,30.6c0,1.1,0.9,2,2,2c1.1,0,2-0.9,2-2c0-1.1-0.9-2-2-2C12.3,28.6,11.4,29.5,11.4,30.6"/>
		</g>
		<g>
			<path class="st110" d="M17.1,30.6c0,1.1,0.9,2,2,2c1.1,0,2-0.9,2-2s-0.9-2-2-2C18.1,28.6,17.1,29.5,17.1,30.6"/>
		</g>
		<g>
			<path class="st110" d="M22.9,30.6c0,1.1,0.9,2,2,2c1.1,0,2-0.9,2-2s-0.9-2-2-2C23.8,28.6,22.9,29.5,22.9,30.6"/>
		</g>
		<g>
			<path class="st110" d="M22.9,13.4c0,1.1,0.9,2,2,2c1.1,0,2-0.9,2-2c0-1.1-0.9-2-2-2C23.8,11.4,22.9,12.3,22.9,13.4"/>
		</g>
		<g>
			<path class="st110" d="M11.4,2c0,1.1,0.9,2,2,2c1.1,0,2-0.9,2-2s-0.9-2-2-2C12.3,0,11.4,0.9,11.4,2"/>
		</g>
		<g>
			<path class="st110" d="M5.7,7.7c0,1.1,0.9,2,2,2c1.1,0,2-0.9,2-2c0-1.1-0.9-2-2-2C6.6,5.7,5.7,6.6,5.7,7.7"/>
		</g>
		<g>
			<path class="st110" d="M11.4,7.7c0,1.1,0.9,2,2,2c1.1,0,2-0.9,2-2s-0.9-2-2-2C12.3,5.7,11.4,6.6,11.4,7.7"/>
		</g>
		<g>
			<path class="st110" d="M17.1,7.7c0,1.1,0.9,2,2,2c1.1,0,2-0.9,2-2s-0.9-2-2-2C18,5.7,17.1,6.6,17.1,7.7"/>
		</g>
		<g>
			<path class="st110" d="M0,13.5c0,1.1,0.9,2,2,2c1.1,0,2-0.9,2-2s-0.9-2-2-2C0.9,11.4,0,12.3,0,13.5"/>
		</g>
		<g>
			<path class="st110" d="M5.7,13.5c0,1.1,0.9,2,2,2c1.1,0,2-0.9,2-2c0-1.1-0.9-2-2-2C6.6,11.4,5.7,12.3,5.7,13.5"/>
		</g>
		<g>
			<path class="st110" d="M11.4,13.5c0,1.1,0.9,2,2,2c1.1,0,2-0.9,2-2s-0.9-2-2-2C12.3,11.4,11.4,12.3,11.4,13.5"/>
		</g>
		<g>
			<path class="st110" d="M17.1,13.5c0,1.1,0.9,2,2,2c1.1,0,2-0.9,2-2s-0.9-2-2-2C18,11.4,17.1,12.3,17.1,13.5"/>
		</g>
	</g>
</g>
</svg>
